/* XPM */
static char *_568fa09d49a4f3aa8ede6d623587fcd[] = {
/* columns rows colors chars-per-pixel */
"64 64 162 2 ",
"   c #1C1C1D",
".  c #1E1E20",
"X  c #232325",
"o  c #272629",
"O  c #28272A",
"+  c #2B2A2D",
"@  c #2E2D31",
"#  c #302F33",
"$  c #323235",
"%  c #363539",
"&  c #38373B",
"*  c #39393C",
"=  c #3C3B3F",
"-  c #3D3C3F",
";  c #3C3B40",
":  c #3F3E42",
">  c #3F3E43",
",  c #403F43",
"<  c #403F44",
"1  c #414043",
"2  c #424145",
"3  c #434247",
"4  c #444347",
"5  c #444348",
"6  c #47464A",
"7  c #47474C",
"8  c #48474C",
"9  c #49484D",
"0  c #4A494D",
"q  c #4B4A4F",
"w  c #524E4A",
"e  c #58524A",
"r  c #4E4D51",
"t  c #4D4C52",
"y  c #504F52",
"u  c #504F54",
"i  c #525155",
"p  c #525156",
"a  c #5A5757",
"s  c #5D5955",
"d  c #55545A",
"f  c #58575D",
"g  c #5A595D",
"h  c #635D54",
"j  c #615D59",
"k  c #6F664E",
"l  c #6A645A",
"z  c #6E685F",
"x  c #756C56",
"c  c #786D56",
"v  c #7E745C",
"b  c #5D5C62",
"n  c #605F64",
"m  c #616066",
"M  c #646469",
"N  c #68676D",
"B  c #69686D",
"V  c #726D67",
"C  c #7D7562",
"Z  c #7B766D",
"A  c #6D6D72",
"S  c #726F71",
"D  c #837553",
"F  c #81765D",
"G  c #857A63",
"H  c #897D62",
"J  c #887E6A",
"K  c #A98527",
"L  c #AA8629",
"P  c #AE8A2A",
"I  c #B18D2D",
"U  c #B28E31",
"Y  c #B59233",
"T  c #B99536",
"R  c #B69439",
"E  c #BA9639",
"W  c #BD9A3C",
"Q  c #C29E3E",
"!  c #91825D",
"~  c #9E8C5D",
"^  c #BE9C42",
"/  c #BF9F4A",
"(  c #B99F5B",
")  c #BFA050",
"_  c #BBA15E",
"`  c #8D8168",
"'  c #928462",
"]  c #9B8B64",
"[  c #9C8D6A",
"{  c #A18E61",
"}  c #A79360",
"|  c #AA9564",
" . c #A6966C",
".. c #A9976B",
"X. c #B39D65",
"o. c #B39E6B",
"O. c #AD9C73",
"+. c #BCA466",
"@. c #B6A16D",
"#. c #BCA56A",
"$. c #BCA876",
"%. c #C29E42",
"&. c #C5A244",
"*. c #C9A546",
"=. c #C5A34A",
"-. c #C9A64B",
";. c #CDA94C",
":. c #D1AD4E",
">. c #C6A653",
",. c #C8A751",
"<. c #C7A856",
"1. c #CCAB53",
"2. c #C4A759",
"3. c #C7AB5F",
"4. c #CDAE5A",
"5. c #D1AE53",
"6. c #D0AF5A",
"7. c #CFB05E",
"8. c #D5B154",
"9. c #D9B556",
"0. c #D4B35B",
"q. c #DAB65B",
"w. c #DDBA5C",
"e. c #E1BD5E",
"r. c #C5AB65",
"t. c #CBAF64",
"y. c #C3AA6A",
"u. c #C9AF6B",
"i. c #CEB062",
"p. c #C9B06D",
"a. c #D2B464",
"s. c #D8B761",
"d. c #DCBA63",
"f. c #D5B769",
"g. c #D6B96C",
"h. c #DDBD6A",
"j. c #C2AD7A",
"k. c #C7B074",
"l. c #DBBE73",
"z. c #E1BE62",
"x. c #E0BF68",
"c. c #DFC06E",
"v. c #DDC173",
"b. c #E5C162",
"n. c #E9C566",
"m. c #E3C26B",
"M. c #EAC66A",
"N. c #ECC96C",
"B. c #F0CB6F",
"V. c #E3C371",
"C. c #E9C770",
"Z. c #EAC973",
"A. c #E2C67B",
"S. c #E7C97C",
"D. c #ECCC7B",
"F. c #F0CD74",
"G. c #EFD186",
"H. c #EED189",
"J. c #F2D484",
"K. c #E9D291",
"L. c #F3D791",
"P. c #F5DD9F",
/* pixels */
"X o + X X @ X @ O o + % O O o @ $ : @ * O $ $ O @ . @ X X $ * $ @ * < % % $ 2 ; < 9 2 & & + $ % $ * $ @ o $ # O + O O + + + X X ",
"X o + o X X O o @ $ @ # o @ @ O O $ + % $ @ O $ $ X & $ O & 2 $ # : & 9 + $ * * * : * % % o + @ @ + + @ O @ @ @ : % @ + o X X + ",
"$ O o X o O & $ + @ @ @ O + + O X + $ + % % $ 4 : @ $ : $ * f % * @ : 2 % % < * % $ - : $ X @ + X . X $ o $ # $ & $ $ @ + X X   ",
"X X X X @ * 6 1 o X X @ + X o $ % 2 * $ $ 2 : o : * < * : < : $ @ * * y 9 @ ; * % : 6 * O % : % X X X @ o * @ + @ 2 * o O + O   ",
".   X X $ 2 & + X o o & @ X O $ @ @ @ * $ $ b f 9 9 O 2 6 5 % $ @ $ 5 % % % & 7 9 p p & $ + * $ $ @ @ * % $ 2 o $ 2 9 d o * @ X ",
"+ X   $ 1 & @   X X @ $ + $ + % O + X * + O n p p 6 * 2 2 2 & @ + * : & , & 2 9 p p 9 ; 2 = $ * $ + + $ % % $ # $ - 9 g t 1 * @ ",
"O + @ 2 $ @ O + X X O 9 O % & % + & $ % $ : 6 t 6 ; % 2 % * * % * : + & 6 @ t t p 4 9 * * : * * ; + # @ % $ & $ @ : : d 6 $ : $ ",
"o X : $ @ + + X . O + % $ % * O % , % * % : u % $ @ 9 : 2 @ : @ - & * 2 2 % u b 8 2 t * @ 1 = $ X O $ * : % : % * * 6 6 & % @ + ",
"$ + + X X + @ $ X + $ % 8 % @ $ % + 2 # % : : < * % 2 : 2 & 4 & X $ : $ , 9 d 9 9 9 9 6 2 2 7 : % % * : : % % % % % # & + + $ $ ",
"$ @ o X @ + # + $ - % $ $ % @ $ $ + $ : 2 9 9 2 9 : 6 , = $ 2 + X y d t 8 9 t 6 8 6 5 * * 2 < : % $ * : : $ % % @ $ @ ; # + o o ",
"$ @ + + % $ % % # : t & & 2 : $ & * = : % = % $ = : 6 8 : : 2 : + t f p 9 t : 2 5 : t , * % 4 $ & @ % * & $ % 2 % , 5 : $ $ @ $ ",
"4 < * 8 : & $ & * 2 $ $ $ * % 5 2 4 & 2 * p $ 2 $ : $ , 6 * $ 2 % % % : 2 9 : 8 t t 2 = % 9 % @ 6 % : 5 : : : $ - 6 * % 2 % $ @ ",
"* : = 6 % 2 2 , @ @ @ + & 2 1 $ * 2 9 6 6 9 * 2 % & = * 9 u 6 2 : * * % : 9 : t 2 * t * 9 : 2 * ; : & , 6 : < 6 5 8 2 2 6 4 $ & ",
"& * % : ; ; t 6 $ + % $ 2 6 : * * : u p 2 2 6 - * % $ : 6 2 d 2 < 2 % : & 9 2 2 8 : 6 : * = 4 * * : % % 2 2 < 5 ; 8 9 : 2 2 $ % ",
"$ % % < * 2 2 2 : 6 6 : % : : 4 6 8 : : 6 2 t : < $ * * 6 $ 6 & , 6 ; 6 * 5 6 * * % , 2 % 8 2 % % 6 : : : : < 4 2 9 : % * % % @ ",
"* % * < 6 : % % 8 2 : 8 ; : * = 2 * : 2 * 6 2 9 9 ; g p w k D ] ] [ k s 2 p * * 1 % 2 p t : , 9 1 6 & , 2 : t 6 : 2 2 $ $ $ $ @ ",
"+ % 6 % = % % % $ % < ; : : : % : 2 2 * t : : , p x ] +.f.4.0.s.d.q.0.h.u...F s 8 9 d t 6 9 t 9 8 9 2 2 t ; * 6 : = % % $ $ % # ",
"% : * % : * * % * % : : < 2 2 ; 2 8 p t p 6 9 C o.3.,.-.5.q.z.n.M.m.n.w.0.s.f.X.v y t 9 9 : p 9 9 p 6 2 2 < : 2 % : ; * % ; & % ",
"% * & * 2 2 : : % : : + : * t 6 4 5 t 2 9 8 O.t.,.1.8.w.w.8.;.&.-.5.f.Z.D.Z.w.s.a.o.s 9 2 4 9 p 9 p 9 8 : % @ 4 * % % & $ 6 < * ",
"+ % : : 8 : % 2 2 9 2 , t 9 t d 9 4 : 9 e j.>.:.8.9.:.W P P P P P P P P ^ v.H.J.Z.1.k.l ; 5 2 6 2 : 9 6 + * * % % < % = % * * $ ",
"% * * % , , * 6 2 , 2 6 u 9 9 9 6 6 9 s #.1.:.8.*.T P P P U T W ^ W T I P P ^ l.L.J.h.+.e 9 6 2 6 9 2 % $ ; % : 6 % $ % * 2 $ O ",
"* : % * 5 6 1 6 2 * 9 9 8 2 6 6 8 8 p $.4.:.8.&.I P L W :.w.e.d.h.b.z.9.Q I P U 4.P.J.h.#.9 t t < 6 = * * * * % 7 : & < t 8 $ $ ",
"< 6 2 : d b ; d : 6 % : d t : p 6 9 O.>.W ;.&.P P I c.b.n.n.w.5.h.V.F.B.M.5.Q P P =.S.,.a.@.9 t 6 * , % : ; < 6 % 2 9 b d $ * * ",
"2 : < < g g p g 2 * * t : 9 p 8 d C t.Q T %.P P T 8.q.8.;.-.8.C.C.e.8.0.0.m.n.;.I P ,.0.0.f.F 9 ; t 9 * * * 5 % $ 2 9 g 2 2 * 6 ",
"% $ : 2 * p p 2 : % : 2 p 9 p b s X.=.U %.U P T :.9.5.m.n.n.M.N.C.n.n.n.9.m.J.n.;.P U 7.&.f.+.s N 5 6 5 * * : 2 * 6 9 : : 6 : : ",
"@ @ $ : 9 6 2 $ 2 : : t t t t p J 3.Y W W P Y ;.8.-.9.z.C.n.n.M.C.n.n.z.w.b.S.D.n.*.P ^ h.W g.H g p 9 < 9 5 * : 9 d t : : : * 2 ",
"2 : : $ 9 * 6 $ : 2 = 2 t 2 t d ..-.I ;.P I 5.0.%.;.8.w.V.n.b.-.0.C.M.z.e.n.b.h.S.K.T P h.&.f.} p d t 6 t 6 6 9 2 < 8 2 % * * % ",
"% % 5 6 2 : t ; 2 7 9 : < t t g y.E W %.P E W U ;.:.:.8.1.;.&.w.d.:.-.1.C.n.n.e.W ^ <.P ^ V.=.p.s 6 9 t 2 9 6 t t < < & 2 2 : * ",
"$ * 6 6 6 2 2 : 5 5 5 8 8 t 5 V 0.Y -.I I -.I P T *.;.&.5.V.e.z.z.e.9.q.h.x.:.W P P l.T P A.=.f.h t 9 5 < 9 8 8 2 * & & 2 % & ; ",
"* 2 5 2 2 6 6 6 % 6 < p : d 9 J 1.W -.P Y &.P P P I Y 5.8.q.m.w.d.z.:.w.8.E I P L P g.&.P a.-.6.` 9 t 8 9 2 8 9 t 2 & * O $ % 2 ",
"2 5 9 6 6 6 6 * p t 9 9 < 5 9 ' 1.E -.P T -.P %.W T P Y 0.8.V.q.h.8.e.:.I P L %.&.P -.*.P %.5.5.O.g 7 2 d u 9 9 6 2 < $ 2 < : 5 ",
"2 t : * 8 6 2 t 6 p 8 t : 9 6 ] -.E %.P T -.P ,.&.&.Q T Y ,.1.1.5.<.8.Y P %.e.e.;.P =.;.P E 9.;.O.p p 6 9 t 6 2 * 2 8 2 < 2 * : ",
"4 2 < % 2 9 6 t 6 9 9 t 2 2 2 ] -.W %.P Y %.P ^ ;.&.&.&.W I a.d.;.;.I E 5.e.e.e.%.P =.&.P Y 0.-. .p p t t f p 9 % < 2 6 * 2 : * ",
"* 6 9 * 6 2 2 2 * : 6 t g t 6 ' 5.W &.P E -.E U -.-.&.*.Q I W =.-.&.P ,.S.b.e.:.I K q.=.P U ;.-.] 6 f 6 b b p u 8 9 t 2 < , * * ",
"2 : 2 6 2 : ; * 2 2 8 t t 9 p c 1.%.-.P ^ =.;.I P I T I P I =.&.0.9.Y I U %.Y P P R n.*.P T &.-.' t p t p b f 9 9 t 6 6 : : $ : ",
"2 2 2 6 t 5 2 6 9 6 t p 9 t u w 0.W 1.P E &.&.&.Y I P P P W ,.Q *.4.8.*.T I Y Y W z.e.W P -.%.4.V 9 6 8 t m b 9 + p t 2 * 5 & : ",
": 6 8 6 9 7 t t 9 t u p p f p y r.W 1.T U ,.Q 5.W U T =.*.;.E &.*.9.z.w.-.&.1.s.q.N.9.I L 8.Y r.s t 6 9 p 2 t p 2 t 7 : 9 2 6 * ",
"7 7 p 8 : t u 2 2 p t 2 p f 9 8 ~ -.=.-.P =.*.%.Y Q Q *.8.-.-.&.*.q.m.8.8.e.e.w.0.G.&.P Y -.%.| , t 9 6 9 % 6 p u t 2 5 2 % * % ",
"7 7 t u u t d 6 5 t 9 8 6 p < 6 c i.Y 0.Y P ^ E =.;.&.&.;.R Y W Q Q *.1.w.e.q.;.;.;.P P -.I >.H f 9 t p p 9 t t f p 6 : 6 % % % ",
"8 t 9 9 p p M b t t 7 p 6 9 t 8 j X.-.^ &.I R ,.*.;.8.*.%.&.&.&.*.*.:.q.q.9.-.q.9.Y P Y W E +.e : t t p 6 u t 6 t 9 9 2 9 2 % * ",
"t 2 8 t f m m p f b p t 9 t d 2 6 v i.%.=.W P R ,.*.5.;.%.&.*.*.*.5.5.5.q.-.8.8.T P P W Y a.F * 2 9 t 6 6 9 t 2 4 u u g 9 2 * * ",
"2 $ p 6 m f g 6 d f m f A p 6 t 9 t o.<.W ,.Y P R 6.&.;.U Y I Y T T W -.-.:.8.Y P L W Y =.j.6 t 6 p t 5 2 6 : 9 2 p d M b d 9 % ",
"$ $ m N g t 9 9 6 t u d b b m b d p s +.,.W 1.E P P =.^ &.*.&.&.&.&.*.*.*.&.P P P E T ^ k.9 < 9 6 5 9 2 9 7 9 2 2 6 : 2 f : % % ",
"$ * p g 8 2 t t 9 p 9 6 t p t g f d d z +.,.W -.W I P I W W W %.Q W W T I P P P E Y ^ y.z 2 t 6 8 8 : 9 9 t 2 < % 9 9 6 % * % $ ",
"* & 6 2 2 : 9 p 6 t u 2 6 6 2 p t b t f Z #.>.W W -.Y P P P P I I P P P K L T Y I / k.l 6 ; 6 2 2 y : 6 % < % : 6 : % : + $ $ % ",
": * * < 9 < 9 6 * 6 2 8 9 6 t p p t 9 2 t S $.a.^ I &.=.E I P P P L K P T W P Y i.$.a : 9 6 t : * * 2 < d : : 2 : * & $ % % $ & ",
"2 ; % 6 2 6 9 6 9 t 2 * 6 , 2 t p f 6 9 t t p ` +.2.%.Y E W T T T T T Y U E ) #.G @ t 6 * & 9 4 $ : 9 6 : 2 6 2 : 2 & $ $ & % X ",
": 2 % ; 2 2 9 t f t 9 2 9 , 6 p 6 t t t t 9 6 9 s F { ( <.=.-.&.&.-.&.<._ ~ G w 2 # = : $ 2 % : @ * $ $ % * 2 & + < : % @ $ @ X ",
"% * * % : : * b t 9 9 2 u t 8 b t < 6 p 9 4 9 2 8 d 8 w l G !  . .] G h 2 d : 2 * $ * % # * * : 1 - % 2 * * 6 4 * $ $ = $ + o o ",
"$ @ : t 2 2 7 : < 7 2 8 8 6 9 5 f p 2 9 p 2 , 2 9 t 2 t t 2 : p d p f b : 2 : 2 p $ & & 4 p : 2 & t 9 * - & : 6 % @ + O $ % $ $ ",
"% $ % < 2 : < 2 * : 8 t 9 9 p : u p t 8 9 2 2 p d t t 9 5 2 # t u 6 p p f 7 6 7 p $ + # : % 6 < 2 6 6 : $ , & & % % % - $ % O O ",
": * % % % % $ % * * 6 u 9 u p 9 6 p 6 p u 9 5 9 d t n p 9 8 2 8 8 9 6 5 t $ 6 9 t 8 4 * 2 : ; % 6 9 4 - $ $ O % & + @ O # % $ O ",
"t : % % t % * $ 2 2 & $ 5 2 t : t 2 5 ; 2 2 t 2 m b 9 d t n 8 p % 8 t u t : 9 d b 7 9 6 : @ : + * * t 2 2 : $ % $ O + O * * $ X ",
"* < : t * % < 2 * : * $ 6 % % % : 8 % 2 9 * u : u b 9 ; u u n 2 9 2 2 p p : * $ 6 + & * t g t 2 2 + $ * % - & : # * + + * # % O ",
"# % * 2 2 * = @ $ $ $ & $ $ 6 2 % 2 2 2 t 6 8 6 f p d 9 6 & p 2 6 < < 9 t $ * + 2 * $ % $ t t 7 t 6 2 & # @ % $ $ $ @ + % $ $ O ",
"$ % * * @ $ @ $ $ % = & 2 $ % & $ $ 6 2 9 9 * p 9 9 9 t 8 p * : 2 t & = : $ * % * 5 @ * % & ; : 5 9 2 $ 9 + % * + $ $ $ $ @ @ X ",
"$ % o % $ * + X 5 % + + * $ @ : & * t 2 9 : p t d t 9 9 f = 8 $ < $ 6 $ # $ + # 6 + $ * * * # $ & % % $ # 6 6 * : 2 @ $ $ : $ $ ",
"2 & @ * % < * & @ % : % 4 9 : % * 2 7 : : 5 b d B p 9 : 6 ; + & : $ 6 : ; t $ + : % 6 % * : 2 * % * : % % % & 2 * 2 < 9 9 * O X ",
"% & $ % 1 9 * t % % $ % 2 8 9 6 < * 2 % + 6 p g b 6 6 ; * % * ; * & @ $ : + + & p d * 2 6 : 5 < 2 5 2 * : % & * + : 6 m p * @   ",
"% $ * @ t d t : @ $ $ : 2 t 6 8 $ O $ @ : 9 b p u 2 t 9 * * 2 & * * * # $ $ * % d A t 9 * * : : : % < : $ % $ & @ : 2 4 $ % ; $ ",
". o @ % % 9 9 6 & * * @ : < t 2 o @ + & % t M t 6 2 * = @ : % $ t : + : O : % * = M d * : % = < * % : ; : @ & % % - $ @ o O * $ ",
"o @ @ * : : @ @ < % % & * 6 9 6 & ; % : t 2 + ; * % : & 6 * + + $ $ o : % * $ 2 2 9 : & $ % 2 : 2 * 2 t % @ O $ 8 : + $ : + o X ",
"o X # * $ $ @ + $ @ : $ = 6 2 2 * 2 2 2 8 $ X @ = : * $ t t + @ < + o = < @ $ * & & % % % : % % * 2 # $ @ O + % $ % * $ o   X @ ",
"o X @ + $ @ $ @ o O % @ % % : ; & : $ * < $ X o $ ; @ & * $ + $ 6   @ % % O O @ $ O 9 * $ t : & ; ; % $ o $ O o X O % + O X o o "
};