/* XPM */
static char *d9a31479586f4ce7b1a54d5b369f0e00[] = {
/* columns rows colors chars-per-pixel */
"64 64 214 2 ",
"   c #1D1D1E",
".  c #3B0509",
"X  c #3F0B10",
"o  c #1F1F20",
"O  c #201F22",
"+  c #3C142D",
"@  c #232325",
"#  c #262629",
"$  c #28272A",
"%  c #2B2A2D",
"&  c #2E2D31",
"*  c #302F33",
"=  c #323235",
"-  c #363539",
";  c #38373C",
":  c #3A393E",
">  c #580309",
",  c #5B0915",
"<  c #590C1A",
"1  c #44171D",
"2  c #54151A",
"3  c #5C151F",
"4  c #6C0D0B",
"5  c #600512",
"6  c #661111",
"7  c #611A1F",
"8  c #771519",
"9  c #441D24",
"0  c #581923",
"q  c #5C1B23",
"w  c #411E35",
"e  c #641C22",
"r  c #761D26",
"t  c #721C30",
"y  c #5A272D",
"u  c #482A32",
"i  c #452938",
"p  c #572B36",
"a  c #593138",
"s  c #5E3439",
"d  c #66272D",
"f  c #75232A",
"g  c #632E34",
"h  c #6A2B36",
"j  c #7B2E36",
"k  c #67343F",
"l  c #693338",
"z  c #723436",
"x  c #77383A",
"c  c #052F51",
"v  c #162E50",
"b  c #1F3455",
"n  c #1C3C5B",
"m  c #352848",
"M  c #3E3D41",
"N  c #2F3751",
"B  c #2D3256",
"V  c #263959",
"C  c #043A69",
"Z  c #0C3B6B",
"A  c #163A65",
"S  c #043F7B",
"D  c #303F6A",
"F  c #452944",
"G  c #5E2C49",
"H  c #403F44",
"J  c #433F4C",
"K  c #5A3D47",
"L  c #4A3952",
"P  c #543A5A",
"I  c #653944",
"U  c #7C3444",
"Y  c #1F435F",
"T  c #384858",
"R  c #14426A",
"E  c #0C4273",
"W  c #03457B",
"Q  c #09457C",
"!  c #11467A",
"~  c #184A7A",
"^  c #185178",
"/  c #1D527D",
"(  c #27456B",
")  c #29476B",
"_  c #374667",
"`  c #224776",
"'  c #314E70",
"]  c #285478",
"[  c #355879",
"{  c #414045",
"}  c #434246",
"|  c #444347",
" . c #46454A",
".. c #49474B",
"X. c #48474C",
"o. c #47494F",
"O. c #4A494D",
"+. c #4A494E",
"@. c #51464B",
"#. c #564A4E",
"$. c #4E4D51",
"%. c #4D4C52",
"&. c #45465C",
"*. c #514F54",
"=. c #5C4D52",
"-. c #4B5159",
";. c #4C525B",
":. c #525156",
">. c #5A5257",
",. c #55545A",
"<. c #59565C",
"1. c #55585F",
"2. c #5A595E",
"3. c #654145",
"4. c #6B454A",
"5. c #674A4E",
"6. c #7D484B",
"7. c #634D52",
"8. c #6B4D52",
"9. c #794A57",
"0. c #665456",
"q. c #6D5357",
"w. c #62555A",
"e. c #6A545A",
"r. c #615A5F",
"t. c #745256",
"y. c #73565A",
"u. c #4C4162",
"i. c #484865",
"p. c #4E486C",
"a. c #445363",
"s. c #4E5864",
"d. c #4A5B6B",
"f. c #565563",
"g. c #5A5463",
"h. c #555B64",
"j. c #5C5B61",
"k. c #555D6B",
"l. c #5B5F6B",
"z. c #425C74",
"x. c #4A5C73",
"c. c #4F5478",
"v. c #425D7D",
"b. c #615D64",
"n. c #755863",
"m. c #5A626D",
"M. c #4C6378",
"N. c #566678",
"B. c #626165",
"V. c #63646C",
"C. c #69686D",
"Z. c #786266",
"A. c #626671",
"S. c #666A74",
"D. c #841C18",
"F. c #921F1C",
"G. c #A7271F",
"H. c #981E27",
"J. c #872323",
"K. c #942525",
"L. c #89312D",
"P. c #9A342E",
"I. c #8A2E38",
"U. c #912930",
"Y. c #833A3E",
"T. c #8E3A3B",
"R. c #963538",
"E. c #A22221",
"W. c #A72927",
"Q. c #B12C2B",
"!. c #A63835",
"~. c #B73C35",
"^. c #AB443B",
"/. c #C34C3F",
"(. c #853B44",
"). c #9C3D48",
"_. c #88494B",
"`. c #9C4A49",
"'. c #8A5A56",
"]. c #A44541",
"[. c #AA4941",
"{. c #BB4542",
"}. c #BB5042",
"|. c #966768",
" X c #8B6E71",
".X c #A06E6F",
"XX c #C95349",
"oX c #D75850",
"OX c #044B83",
"+X c #054886",
"@X c #0E4D83",
"#X c #104A82",
"$X c #045082",
"%X c #03548D",
"&X c #0B538D",
"*X c #045A8F",
"=X c #185787",
"-X c #045691",
";X c #095591",
":X c #045D94",
">X c #0A5B99",
",X c #135D97",
"<X c #295984",
"1X c #09649D",
"2X c #176496",
"3X c #246085",
"4X c #376584",
"5X c #256494",
"6X c #0865A5",
"7X c #0A6AA4",
"8X c #436881",
"9X c #5C6E83",
"0X c #437392",
"qX c #677587",
/* pixels */
"@ # $ @ @ $ # $ $ # % * $ # # % * : = = % & & % % @ % @ @ & - = & - M - - = : : M | M ; - % * = = = & % # & & $ % % $ $ # # @ @ ",
"@ # # @ @ # # $ % % % & # $ % $ % = & = = & % & & # * & % = M - * - : M = = : : : : : - = % % & % % % % $ % % & - * & % # @ @ @ ",
"% # # @ @ $ = & % % % % $ $ % # # % & & = = = : : & = - = ; O.: - = : M - - : : - = : : & # % % @ @ @ & % & & * - = & % $ @ @   ",
"@ @ @ @ % = : ; $ # # % % # # % = - - = = : M - M : ; : : M M = & = : | H = ; : - : { ; % & - = # @ # % % = * % & : ; & $ $ #   ",
"o   @ # = : - % # @ # & % # # & & & & = = - :.$.O.{ = M { H - & & = M : - - : {  .O.O.: = & - = & % % = = = ; % * M  ...= = % @ ",
"# @ o % ; - % o @ @ % * % % % & % % % = & = :.:.$.| ; M H H - & & - : : M - M X.$.$.X.M : - = - = % % = = = = & = :  .:. .: - & ",
"# $ % - = & $ # @ @ % - % = = = & = = = = ; ..O.| : : M : ; - = - ; = O.e.|  .$.$. . .: ; : ; - = % & & = = - = * : { $.| - - & ",
"# # - = & % # @ O # % = = = - % = : - - - { *.: = = { M : = ; = - - ; =.y 5.*.,.O.{  .: = : : = % $ * - : - : - - : { { : = & % ",
"& % % # # % % % # % & = : - * * = & - - @.0.:.M : - M M M - : = $ = { I , q >.O... . .H M M { : = = - : : - - - = = = - & % % & ",
"& % # @ % % & & & - - = = - * = = & = O.a t.r.{ { M { M : - : & # { 2.d 5 q =. . . .{ : : M M : - = ; : : = = = & = = - & % $ $ ",
"= & % % = = = = = : { - - : : - - - : 5.2 z q.M : M { { M : M ; = | <.l , k ..{ { { | M ; : M - - & - ; - = - ; - : M : = & & & ",
"M : - M : - - - - : - = = ; ; : M M H 8., 3 =.M - | H M { M ; : - ; M 3.3 e.H |  . .{ : : M ; = : - : M : : : : : M M ; : - = * ",
": : : M : M M M = & % & - M : - : H O.t.3 4.H M =.|..Xw. .O.| M : - : s d >.H  .{ M  .M { M M : : : ; M H M M { { | { H { H = - ",
"- - - : : M { { - * = = : H M : : H 0.z g #.{ O.s T.].'.O.{ O.{ M M @.7 d *.H { { M { M : : M : : M ; ; M M M { M | | M M M = = ",
"= = - : : M H M M H H : - : M M { O.6.r 4. ...*.n.Y.P._...; H : M | 7., h *.{ : : ; M H : H M ; ; H M : M M H { H | M - - - = & ",
"- - : M M M ; ; M M M H : : : : { t.J.8 q.{ { >.Z.9._. X| - M ,.s.N.&.+ I $.M : : ; { O. .{ H { M { : M M M | { M H M = = = = & ",
"& - M ; : - - - - - M M M M : ; O.z 8 7 w.{ { 7.s z Y.|.Z.Z.f.v.<X` A B g.O.{ { |  .$.$. . .X. . . .H H { M M H : : - - = = = * ",
"= : ; - : : - - - - : : M M M : *.a i L V.O.y.x 6 4 8 P.^.`.u./ ! R z.k.O. .H {  .O.O.O. .{ $.O.X.$. .{ H M : M - : : ; - ; - = ",
"= - ; : M M : : : M : = : M  . .*.i.b A v.n.`.J.K.D.W.~./.R.m A ( d.2.:.$.X.{ { | { O.O.{ {  .O.X.O...| : - = : ; - - - - M : - ",
"& = : M { M - M { { H M  . .O.$.X.,.) Z ( 9.^.~.!.P.{.oXXX(.N x.,.$. .$.O.O.O.{ O.{ O.O.M H {  .{ {  .{ = - - - - : - ; - : - = ",
"= - ; ; M M : { { M { | O.X.X.O. . .-.Y b I }.XX[.L.!.{.).P ( k.$.$.:.:.$.$.| | O. .O. .M {  .{ { | M ; = - - : M - = - : M = % ",
": : - : { | H  .H M {  .O.| |  . . .O.;.T i T.!.K.D.F.K.G ` ~ k.$.$.,.$.O.$. .O.$...$.O.{ { O.X.{ { M - - : ; : H M : M  .{ - & ",
"M { M M $.,. .$.{ H : H $.O.{ O. . .{ H $.N F t H.E.G.I.i.=X/ s.$.$.O.O.$.O.$.,.j.B.$.O. . .O.O.{ M M - : : M M ; M  .,.$.: - - ",
"M M M { $.,.$.:.{ : : {  .O.$.O.$. . . .o.T v F t E.W.I.D @X] ;.X.O. .$.$.O.$.:.j.V.,.$.{  . . .|  .| : : : M : - M O.:. .M : M ",
"- - : M { $.$.| M ; : { O.O.$.:.$.O.O.O.X.h.n n F U.Q.)._ E x.$.| O.X.*.:.*.$.:.,.2.,.O. .O.O.O.,.X.| { : : M M : {  .{ M H M M ",
"= = - : { | { - M M M  .O.O.$.:.:.$.$.| ..O.s.V B U W.R.u.( k.|  .$.$.X.O.$.O.$.:.:.$.O.X. .$.$.,.$. .{ { { M M | O.O.M M M : M ",
": : : : { M M - : M M { X. .O.:.:.O.X. .M M  .a.N k W.!.U P f.M {  .O.|  . .O.O.$.:.*.$.$.:.,.$.$.$.O. . . .{  .| { | M : : - ; ",
"- - H { H M { : M { | H {  .$.:.:.O.$.:.X.{  .,.J h !.].9.p.v.-.O.{ H |  .{ {  .:.:.,.:.2.,.$.O.O.X.X.O.|  . .O. .M M : M M : : ",
"= ; { | { H { M M { {  .| O.X.,.$.X.$.:.O. . .:.g.L g.c.<X,X5XN.:.$.{ X.$.O. .X.:.:.,.*.:.:.$.O.O.O.X. .{  . . .{ M : - : - - : ",
": M { { { { { { : { { O.{ $.O.$.| { {  .O.O.{ $.M.~ #X&X;X;X2X0XV.g.O. .$.$.O.O.$.$.,.$.$.:.O.:.:.O.O. . .|  .X. .M ; - & * - M ",
"H { | {  .| { M  .O. ...H  . . .{ { M X. .$. .$.8X=X+X+XOXOX,X2X4Xm.$.{ $.$.O.$. .H X.O.$.$.O.,.b.,.O.| $.$.X. .{ H M - : : : H ",
"{  .M M { | {  ...$.O.X.H | { M | { { X.X.X.H :.4X2X&XS C W ;X>X&X4Xj.$.:. .O.$. .{ O.$.*.$.O.$.<.:.$. .O.O. .{ : M { M M M : M ",
"{ { M ; M  . .O. . .X.O.| { { M M M { X. . . .1.3X1X>X@XZ C OX%X%X=XqX<.$. .$.O. .{ O.$.$.$.$.$.*.:.:.$.$.:.$. .: M { { M M : : ",
"M { { M H { { { M M  .O.$.O. . .M { | O.O.$.:.k.=X7X6X&X/ A C W %X@X9X2.:.*.:. . .O.$.O.O. .$.$.O.O.$.O.,.2.:.$.|  . .{ M M : : ",
"M M { { { M M M M {  .$.$.O.$.X. . . .*.*.,.2.h.=X7X6X;X<XM.c C OX@XqX:.,.2.*. . .X.$.$.:.*.$.$.$.$.$.O.:.2.,.O.X.X. .{ M M - : ",
"{ { { |  .{ H {  . .$.$.$.$.$. .{  .*.,.*.:.:.k.^ 1X7X-X/ S.a.A W ! qX$.$.:.$.X.O.$.$.$.*.$.:.$.$.O.X. .$.<.,.X.; X.X.H M M : : ",
"M { X. . . .X.X. .O.$.$.*.:.$.O.O.$.,.:.,.<.j.S.^ *X7X:X/ A.:.x.Z E v.1.$.:.$.O.| O.O.$.X.O.$.$.O.O. . .$.X.$.$.{ X. .H { M M : ",
"{  .$.X.{ O.$.| | $.$.X.$.:.O. .O.$.<.$.,.B.C.V.' $X1X:X/ A.g.l.' Z ) l.,.:.X. .O.| O.$.O.,.*.$.{ O.X. . .M  .$.$.O.{ { { ; ; - ",
"X.X.$.$.$.$.:.X. .O.X.X. .O.| {  .$.,.| O.:.$.O.M.E -X:X<Xm.,.,.k.b m K w.$.|  .$.O.<.<.<.,.$.X.O.O.O.$.$.X.O.$.*.$. .M H - - - ",
"X.X.O.O.$.:.j.<.$.O.X.$. . .O. .$.:.:.{ $.<.:.,.j.[ W %X<Xf.$.*.g.w > 8 6.,.$.*.:.,.V.B.<.O.| M { O.$.$.O.$.O. .$.O. .{  .M ; ; ",
"X.{ X.$.,.g.j.:.:.,.:.$.$.$.$. .X.$.$.$.,.g.b.B.2.N.~ $X<X<. .*.<.p > 4 j <.$.$.$.2.j.2.$.X.M M H O.O. . .X.O.| | O.$.:.O.{ : ; ",
"M : $.$.2.,.,.O.$.,.g.<.j.:.O.O.O.$.:.:.<.<.C.C.2.V.] OX] g. .:.,.=.2 > f b.$.$.,.,.:.$.| X.{  . .$.O.{ { { {  .{ $.:.2.,.$.{ ; ",
"= : <.j.,.$.O.X.X.$.*.:.2.<.<.<.:.*.*.$.:.:.:.j.2.g.[ &X/ m.O.$.*.X.>.s 0 3.*.:.,.,.$.O.| { {  . . . .{  . . .{ M | |  .$.H - = ",
"= : $.,.O.| X.O.X.$.O.X.$.$.$.,.,.,.:.:.<.,.:.<.:.O.d.! ! z.f.:.$.O.X.@.1 . K ,.O.$.O.O. .{  . . . .{  . .X.{ M : { { { : - = = ",
"- : { { { M ..$. .O.O.|  . .| $.$.,.$.:.g.g.<.:.,. .;.R Q R d.,.$. .| *.1 . u *.{ M  .| | M | { { O.{ { M M : M { M ; : & = = = ",
": : : M | {  . .H  .| {  .| X.$.$.$.O. .*.j.b.j.j.:.f.) Q E _ :.X.X.| *.1 X =. .M -  .{ { {  .H : M M {  .M : M M : - = = = = = ",
"M : - M { { X. . .O.{ M { H { $.$.:.X. .O.$.:.<.2.,.,.d.V m i *. .$.X.*.9 9 #.{ M = | { : : | M - : { { M M { M : M - = = = = # ",
"M M - : M H  .$.$.$. .{  .{  .$.O.O.O.O.$.O. .O.$.:.$.b.p < 0 =.O.O.{ $.>.*. .M : = : : = : : : = ; - - - : M : * : : - & * % # ",
"- - ; : M M H :.$.X. .{ O.X.X.*.$.|  .$.O.|  .{ X.$. .O.4.6 q =.$. . .O.M | H H : = - - = : ; : : : ; : ; : { M - = = - = % $ # ",
"* = :  .{ { { { { | {  . . .X.X.*.$. .O.O.{ H { O.O.| O.w.d q w.*.*.:.:.{ { M {  .- = - M  .M M :  .{ : : : M H - & % % & = & & ",
"- = - M M M M M : M | X.X.O.$.| $.$.O.X.O.{ { O.*.$.$.O.X.q.e 8.$.O.$.$.$.{ {  .O.; = = : : H M H  .| : - ; - ; - = = = = = % % ",
": - - - - - - - : : { O.O.$.$.X.X.$.X.$.O. .| O.,.*.,.$.X.,.l l *. . . .O.: { X.O.{ M : M : : : {  .{ : = = % = = & % % & = & $ ",
"{ M - ; M - - = : M : : { {  .{  .| H H { { X. .<.,.$.$.$.,.8.e =. .O.$.O.M | $.$. .{ H M : : = : : { M : : = = = % % $ = - * # ",
": M M { M - : : : : - - M ; ; ; M { M M  .H X.| :.<.O.{ O.$.q.e 3. .{ $.$.M : ; H - ; : | $.X.H M = - ; - ; - - = = % % = = = $ ",
"= - ; M M : - = = = = - - - M M ; M H {  . . . .*.:.:.X. ...6.r y ..M  . .- - & : - = - -  .X.|  .{ M - = & = = = = & % = * & $ ",
"= = - - = = & & = = - - : = - ; = - { {  . .{ O.$.O.O.O.*.t.T.f s ..: : : = = = : : = = = : M M { { M = : = = - * = * * = * % # ",
"= = % = = = % $ - - & & ; = = : - : | { | { $.$.:.$.X.O.r.t.9.8.| ; M - = = % & : = = - ; ; = = - ; - = = M M : : : = = = ; * % ",
": - & = - : - - = = - - M { M ; : M { M M { ,.,.j.*. .H { : - - : - M : : M * & : : : : : : M ; - ; : - - - : M ; M M  .{ : % @ ",
"- - * = M  .M { - = = - M  .| { M ; : - = { :.,.2.O.{ M : - - : ; - = = - = & = O.*.{ M H M M M M M M : - - - - & : | ,.O.: & @ ",
"= * - = | $.O.M = = = ; { X. .{ - % * & ; X.<.,.$.|  .| : : : ; : ; - * * = = - $.B.$. .: : : M : ; M : - = = = & : M { - = - & ",
"@ $ & = :  . .M - - - = M { X.H & & & = : X.,.$. .M M : - : - = M : & = & - - ; | 2.$.M : - : M : - : M - = = = - : = * % % = * ",
"# % & - : : = & ; - - - : {  .{ - ; - : | { - : : - : ; M : & % = = $ - - - - : {  .H ; = - M M M : M { - % % = M : & & = $ # # ",
"# # & = = = & % & & - = ; H H M : M M M { = # % - : - - { { & & - % # - : & * - - - : - = : : - : M - = & % $ * = = - & # o @ % ",
"# @ % % & & & % # $ = & = - : : ; : - ; M = # # = - = - : = % = : # % = = % % & & % M : = { M - : : - & % % # # # % = % # O # # "
};
