/* XPM */
static char *f3769ebd44004b99ae6327b91c36de8a[] = {
/* columns rows colors chars-per-pixel */
"64 64 220 2 ",
"   c #1D1D1E",
".  c #3F0A17",
"X  c #1F1F20",
"o  c #201F22",
"O  c #2E1E3C",
"+  c #232325",
"@  c #262629",
"#  c #28272A",
"$  c #2B2A2D",
"%  c #2E2D31",
"&  c #29273D",
"*  c #3B2035",
"=  c #302F33",
"-  c #323235",
";  c #3D3336",
":  c #363539",
">  c #38373C",
",  c #3A393E",
"<  c #490406",
"1  c #57070B",
"2  c #5D040B",
"3  c #570C14",
"4  c #48181D",
"5  c #5D1215",
"6  c #56151C",
"7  c #67090B",
"8  c #790C0F",
"9  c #610F12",
"0  c #700B11",
"q  c #681519",
"w  c #6B141B",
"e  c #77161A",
"r  c #4A1C22",
"t  c #5C1C27",
"y  c #781C23",
"u  c #482527",
"i  c #5B242D",
"p  c #592B2C",
"a  c #4C2C32",
"s  c #532130",
"d  c #46373C",
"f  c #55363C",
"g  c #5A363A",
"h  c #5A343C",
"j  c #6C2626",
"k  c #712629",
"l  c #692A36",
"z  c #702233",
"x  c #693439",
"c  c #623A3D",
"v  c #763738",
"b  c #04284D",
"n  c #032D55",
"m  c #052F5C",
"M  c #142D51",
"N  c #04335D",
"B  c #0A315B",
"V  c #173454",
"C  c #362A46",
"Z  c #3E3D41",
"A  c #30344A",
"S  c #252D54",
"D  c #2C3D53",
"F  c #253958",
"G  c #353759",
"H  c #033564",
"J  c #0D3B65",
"K  c #073B68",
"L  c #043A6C",
"P  c #043D71",
"I  c #083C75",
"U  c #273F64",
"Y  c #492B44",
"T  c #403F44",
"R  c #4B3A49",
"E  c #553B45",
"W  c #563B57",
"Q  c #673844",
"!  c #6A3D41",
"~  c #2E4157",
"^  c #364659",
"/  c #3C4C5E",
"(  c #16466C",
")  c #054275",
"_  c #05437A",
"`  c #0A4779",
"'  c #0A467A",
"]  c #134A74",
"[  c #174E7C",
"{  c #195279",
"}  c #2A4768",
"|  c #364E68",
" . c #3B5266",
".. c #254B75",
"X. c #284E70",
"o. c #354E71",
"O. c #285675",
"+. c #385C7A",
"@. c #414044",
"#. c #444347",
"$. c #4C4246",
"%. c #444348",
"&. c #45444A",
"*. c #48474B",
"=. c #48474C",
"-. c #4A494D",
";. c #4A494E",
":. c #524346",
">. c #53464B",
",. c #5B4449",
"<. c #5C4648",
"1. c #554A4D",
"2. c #4E4D51",
"3. c #4D4C52",
"4. c #424C5C",
"5. c #564755",
"6. c #504F54",
"7. c #4E5057",
"8. c #43505C",
"9. c #4B515A",
"0. c #525156",
"q. c #5E5356",
"w. c #55545A",
"e. c #58575D",
"r. c #5A595E",
"t. c #634445",
"y. c #67464A",
"u. c #734C4B",
"i. c #794949",
"p. c #664857",
"a. c #7E4453",
"s. c #635155",
"d. c #6A5053",
"f. c #7A5252",
"g. c #445463",
"h. c #415468",
"j. c #555A63",
"k. c #5C5C62",
"l. c #545E6A",
"z. c #405570",
"x. c #525F70",
"c. c #605F65",
"v. c #5A626B",
"b. c #476176",
"n. c #546371",
"m. c #616065",
"M. c #646369",
"N. c #6A696E",
"B. c #666A73",
"V. c #881818",
"C. c #9C1817",
"Z. c #991D1C",
"A. c #A11E1C",
"S. c #99231F",
"D. c #A4221E",
"F. c #921C21",
"G. c #8C2223",
"H. c #86272A",
"J. c #912124",
"K. c #9A2726",
"L. c #942A26",
"P. c #872B33",
"I. c #912733",
"U. c #8C3436",
"Y. c #993633",
"T. c #A82625",
"R. c #A62A25",
"E. c #AB2B25",
"W. c #A52E2B",
"Q. c #A7322A",
"!. c #B3342B",
"~. c #A72E30",
"^. c #A33B3C",
"/. c #B33A34",
"(. c #C73D34",
"). c #9A453A",
"_. c #A4433B",
"`. c #AF453A",
"'. c #BA4336",
"]. c #BC443B",
"[. c #B6493B",
"{. c #C2493B",
"}. c #D0503F",
"|. c #834646",
" X c #9C4444",
".X c #914E51",
"XX c #B94440",
"oX c #A75A4D",
"OX c #BB624F",
"+X c #CA4B44",
"@X c #C85948",
"#X c #CE624F",
"$X c #D26354",
"%X c #D86450",
"&X c #064B84",
"*X c #0A4B85",
"=X c #044D8A",
"-X c #05528D",
";X c #095389",
":X c #125382",
">X c #105F89",
",X c #1D5D8C",
"<X c #055593",
"1X c #095797",
"2X c #065A95",
"3X c #0A5993",
"4X c #065D9A",
"5X c #135F95",
"6X c #1B6185",
"7X c #06619C",
"8X c #0B639B",
"9X c #0A699E",
"0X c #186696",
"qX c #21638F",
"wX c #3D6983",
"eX c #0A65A4",
"rX c #096AA3",
"tX c #086AA8",
"yX c #0B73AD",
"uX c #1471A7",
/* pixels */
"+ @ # + + # @ # # @ $ = # @ @ $ = , - - $ % % $ $ + $ + + % : - % : Z : : - , , Z %.Z > : $ = - - - % $ @ % % # $ $ # # @ @ + + ",
"+ @ @ + + @ @ # $ $ $ % @ # $ # $ - % - - % $ % % @ = % $ - Z : = : , Z - - , , , , , : - $ $ % $ $ $ $ # $ $ % : = % $ @ + + + ",
"$ @ @ + + # - % $ $ $ $ # # $ @ @ $ % % - - - , , % - : - > -., : - , Z : : , , : - , , % @ $ $ + + + % $ % % = : - % $ # + +   ",
"+ + + + $ - , > # @ @ $ $ @ @ $ - : : - - , Z : Z , > , , Z Z - % - , #.T - > , : , @.> $ % : - @ + @ $ $ - = $ % , > % # # @   ",
"X   + @ - , : $ @ + @ % $ @ @ % % % % - - : 0.2.-.@.- Z @.T : % % - Z , : : , @.&.-.-., - % : - % $ $ - - - > $ = Z &.*.- - $ + ",
"@ + X $ > : $ X + + $ = $ $ $ % $ $ $ - % - 0.0.2.#.> Z T T : % % : , : , : Z =.2.2.=.Z , : - : - $ $ - - - - % - , &.0.&., : % ",
"@ # $ : - % # @ + + $ : $ - - - % - - - - > *.-.#., , Z , > : - : > - : Z : &.2.2.&.&., > , > : - $ % % - - : - = , @.2.#.: : % ",
"@ @ : - % $ @ + o @ $ - - - : $ - , : : : , *., - - @.Z , - > - : : > Z Z , -.w.-.@.&., - , , - $ # = : , : , : : , @.@., - % $ ",
"% $ $ @ @ $ $ $ @ $ % - , : = = - % : - : Z @.Z , , :.$.Z : , - # - Z , Z %.2.-.*.&.&.T Z T @., - - : , , : : : - - - : % $ $ % ",
"% $ @ + $ $ % % % : : - - : = - - % - , Z @.@.T *.|.`._.y.: , % @ @.6.-.&.*.-.&.&.&.@., , Z T , : - > , , - - - % - - : % $ # # ",
"- % $ $ - - - - - , @.: : , , : : : > , , Z > : c G.!./.^.$.Z > - #.0.2.=.=.@.@.@.@.%.Z > , Z : : % : > : - : > : , Z , - % % % ",
"Z , : Z , : : : : , : - - > > , Z Z , Z Z %.: , i q k ~.W.<.> , : > , Z @.&.Z %.&.&.@., , T , : , : , Z , , , , , Z Z > , : - = ",
", , , Z , Z Z Z - % $ % : Z , : , T &.&.@.&., Z f r $.l H.s.#.Z , > : : , &.T &.@.Z &.T $.f i i $., > Z T Z Z @.@.%.@.T @.T - : ",
": : : , , Z %.@.: = - - , T Z , , Z =.-.@.@.@.Z $.4 $.-.x i.f.t.u.f.i.R , @.@.>.f d E x q 2 2 3 g Z > > Z Z Z @.Z %.%.Z Z Z - - ",
"- - : , , Z T Z Z T T , : , Z Z @.@.Z @.@.@.*.*.c < 4 a q Y.]./.@X$X+XP.R 7.R Q G.e 5 < 2 2 3 6 E T Z , Z Z T @.T %.Z : : : - % ",
": : , Z Z Z > > Z Z Z T , , , , Z Z Z Z Z #.<..XL.7 2 < 0 Z.E.'.{.(.I.G qX0X,XY q 9 6 4 6 i E 1.@.@., Z Z Z %.@.Z T Z - - - - % ",
"% : Z > , : : : : : Z Z Z Z , > , Z @.Z 1.! _./.S.V.V.8 G.R.'.+X!.H.S ;X0X0X[ A 4 r 1.6.$.*.=.&.&.&.T T @.Z Z T , , : : - - - = ",
"- , > : , , : : : : , , Z Z Z , Z &.2.q.oX[.Q.R.A.Z.L.V.W.].$X%X!.Q / /  .g.9.0.6.6.-.-.&.@.2.-.=.2.&.@.T Z , Z : , , > : > : - ",
"- : > , Z Z , , , Z , - , Z &.&.@.#.-.|.@X@X{.].+XXX[._.).oX#X}.^.5.0.0.2.=.@.@.%.@.-.-.@.@.*.2.=.-.*.%., : - , > : : : : Z , : ",
"% - , Z @.Z : Z @.@.T Z &.&.-.2.&.@.$.U.[.'.!.'.$X$XOXoXv ).{.(.Q / &.2.-.-.-.@.-.@.-.-.Z T @.&.@.@.&.@.- : : : : , : > : , : - ",
"- : > > Z Z , @.@.Z @.%.-.=.=.-.&.#.:.q L.P.t H.'.{.].Y.j L.D.F.F  .0.0.2.2.%.%.-.*.-.&.Z @.&.@.@.%.Z > - : : , Z : - : , Z - $ ",
", , : , @.%.T &.T Z @.&.-.%.%.&.&.&.h 3 * U } C x W.T.V.V.T.T.l [ h.w.2.-.2.&.-.2.*.2.-.@.@.-.=.@.@.Z : : , > , T Z , Z &.@.: % ",
"Z @.Z Z 2.w.&.2.@.T , T 2.-.@.-.&.*.i C :X6Xv.V B C y R.R.C.V.Y :Xg.-.-.2.-.2.w.k.m.2.-.&.&.-.-.@.Z Z : , , Z Z > Z &.w.2., : : ",
"Z Z Z @.2.w.2.0.@., , @.&.-.2.-.2.,.s } [ b.k.~ N ( C V.K.D.L.G ] 9.&.2.2.-.2.0.k.M.w.2.@.&.&.&.%.&.%., , , Z , : Z -.0.&.Z , Z ",
": : , Z @.2.2.#.Z > , @.-.-.2.0.w.l p.a.y.e.r.j.V K J l W.T.^.} ( 7.=.6.0.6.2.0.w.r.w.-.&.-.-.-.w.=.%.@., , Z Z , @.&.@.Z T Z Z ",
"- - : , @.%.@.: Z Z Z &.-.-.2.0.w.c e Z.K.i.2.2.9.B ` R W.T.I...X.2.2.=.-.2.-.2.0.0.2.-.=.&.2.2.w.2.&.@.@.@.Z Z %.-.-.Z Z Z , Z ",
", , , , @.Z Z : , Z Z @.=.&.-.0.0.-.g 7 8 G.y.2.2.D } R ~.E.Y.W >.-.-.%.&.&.-.-.2.0.6.2.2.0.w.2.2.2.-.&.&.&.@.&.%.@.%.Z , , : > ",
": : T @.T Z @., Z %.%.T @.&.2.0.6.-.0.s.t 0 H.d.2.R z J.!.!.!.Z.v &.T %.%.@.@.&.0.0.w.0.r.w.2.-.-.=.=.-.%.&.&.-.&.Z Z , Z Z , , ",
"- > @.%.@.T @.Z Z @.@.&.%.-.=.w.2.=.2.6.1.k e v j.` ..5..X X|.W o.7.@.=.2.-.&.=.0.0.w.6.0.0.2.-.-.-.=.&.@.&.&.&.@.Z , : , : : , ",
", Z @.%.%.%.%.@., @.@.-.@.2.-.2.%.T @.&.y.e 1 ! | 2X2X3X0XqX5X1X,Xl.-.&.2.2.-.-.2.2.w.2.2.0.-.0.0.-.-.&.&.%.&.=.&.Z > : % = : Z ",
"T @.%.@.&.%.@.Z &.-.&.*.T &.&.&.@.@.T =.! q g 0.{ rX7X=X<X1X<X4X0Xl.2.@.2.2.-.2.&.T =.-.2.2.-.w.c.w.-.%.2.2.=.&.@.T Z : , , , T ",
"@.&.Z , @.%.@.&.*.2.-.=.T %.%.Z %.@.@.=.Q c #.8.>XyXeX=X&X*X=XeXuXwXj.2.0.&.-.2.&.@.-.2.6.2.-.2.e.0.2.&.-.-.&.@., Z @.Z Z Z , Z ",
"@.@.Z > Z &.&.-.&.&.=.-.%.@.@.Z Z Z @.=.p.>.=.| 8XyXtX<XL H &X2XrX9X0Xb.7.&.2.-.&.@.-.2.2.-.2.2.6.0.0.2.2.0.2.&., Z @.@.Z Z , , ",
"Z @.@.Z T @.@.@.Z Z &.-.2.-.&.&.Z @.%.-.6.6.0.O.8XyXyX1X` n ) =X4XrX7X5X+.0.0.&.&.-.-.-.-.&.2.2.-.-.2.-.w.r.0.2.%.&.&.@.Z Z , , ",
"Z Z @.@.@.Z Z Z Z @.&.2.2.-.2.=.&.&.&.6.6.w.j.O.2XtXyX7X;XV H ) &X8X7X2X3Xn.6.&.&.=.2.2.0.6.2.2.2.2.2.-.0.r.w.-.=.=.&.@.Z Z : , ",
"@.@.@.%.&.@.T @.&.&.2.2.2.2.2.&.%.&.6.w.6.0.w.{ 2X4XtXeX*Xz.b H _ -X2X<X<X+.2.=.-.2.6.2.6.2.0.2.2.-.=.&.2.e.w.=.> =.=.T Z Z , , ",
"Z %.&.&.&.&.=.=.&.-.2.2.6.0.2.-.-.2.w.0.w.e.v.] 2X<XeXeX_ x.~ b H ) &X-X-X[ 7.-.%.-.-.2.=.-.2.2.-.-.&.&.2.=.2.2.@.=.&.T @.Z Z , ",
"%.&.2.&.@.-.2.%.#.-.2.&.2.0.-.&.-.2.e.2.w.m.B.( <X<X4X4X` l.k.D b N P &X<X:X4.&.-.%.-.2.-.w.6.2.@.-.=.&.&.Z &.2.2.-.%.@.@.> > : ",
"=.=.2.2.2.2.0.=.&.-.=.=.&.-.%.@.&.2.0.%.-.0.2.} ` =X<X2X..k.e.e.4.V n P &X;X| &.2.-.e.e.e.w.2.=.-.-.-.2.2.=.-.2.6.2.&.Z T : : : ",
"=.=.-.-.2.0.k.e.2.-.=.2.&.&.-.&.2.0.0.%.2.e.0.4.K ` =X*X .2.2.6.2.0.^ B _ -X,Xe.0.w.M.M.e.-.%.Z @.-.2.2.-.2.-.&.2.-.&.@.&.Z > > ",
"=.%.=.2.w.r.k.0.0.w.0.2.2.2.2.&.=.2.2.2.w.k.c.M.F _ 1X*X/ 2.&.0.0.-.w.4.J _ &Xo.7.r.k.r.2.=.Z Z T -.-.&.&.=.-.%.%.-.2.0.-.@., > ",
"Z , 2.2.r.w.w.-.2.w.k.e.k.0.-.-.-.2.0.0.e.e.N.N.g._ <X*X^ 2.&.0.6.=.0.2.^ H I ` h.w.0.2.%.=.@.&.&.2.-.%.@.@.@.&.@.2.0.r.w.2.@.> ",
"- , e.k.w.2.-.=.=.2.6.0.r.e.e.e.0.6.6.2.0.0.0.k.k.L <X*X4.-.-.2.2.&.-.@.D m L &XO.e.2.-.%.@.@.&.&.&.&.@.&.&.&.@.Z %.%.&.2.T : - ",
"- , 2.w.-.%.=.-.=.2.-.=.2.2.2.w.w.w.0.0.e.w.0.e.k.J 3X` 4.&.2.0.2.-.=.%.D N L &X} 2.-.-.&.@.&.&.&.&.@.&.&.=.@.Z , @.@.@., : - - ",
": , @.@.@.Z *.2.&.-.-.%.&.&.%.2.2.w.2.0.k.k.e.0.4.n _ P ^ T -.0.2.&.&.-.7.M M S h T &.%.%.Z #.@.@.-.@.@.Z Z , Z @.Z > , % - - - ",
", , , Z %.@.&.&.T &.%.@.&.%.&.2.2.2.-.&.6.k.c.k.F N L L } =.2.-.=.=.%.-.0.d . 2 k d &.@.@.@.&.T , Z Z @.&.Z , Z Z , : - - - - - ",
"Z , : Z @.%.&.&.&.-.@.Z %.T @.-.2.0.=.&.-.2.0.r.^ N ) L ~ =.-.=.&.2.=.-.-.%.u 1 j ; %.@., , #.Z : , @.@.Z Z @.Z , Z : - - - - @ ",
"Z Z : , Z T &.2.2.2.&.@.&.@.&.2.-.-.-.-.-.-.&.-.w.& S O R 2.0.2.-.-.@.-.&.Z $.< q ; , , - , , , - > : : : , Z , = , , : % = $ @ ",
": : > , Z Z T 0.2.=.&.@.-.=.=.6.2.%.&.2.-.#.&.@.-.f 6 3 >.6.6.2.2.&.&.-.Z #.#.u 5 d : : - , > , , , > , > , @.Z : - - : - $ # @ ",
"= - , &.@.@.@.@.@.%.@.&.&.&.=.=.6.2.&.-.-.@.T @.-.>.6 3 >.%.@.2.6.6.0.0.@.@.Z >.1 f : : Z &.Z Z , &.@., , , Z T : % $ $ % - % % ",
": - : Z Z Z Z Z , Z %.=.=.-.2.%.2.2.-.=.-.@.@.-.6.6.p 5 R @., &.2.-.2.2.2.%.@.w.1 j - - , , T Z T &.#., : > : > : - - - - - $ $ ",
", : : : : : : : , , @.-.-.2.2.=.=.2.=.2.-.&.%.-.w.0.c q E &.@.&.&.&.&.&.-., @.>.1 V.<., Z , , , @.&.@., - - $ - - % $ $ % - % # ",
"@.Z : > Z : : - , Z , , @.@.&.@.&.%.T T @.@.=.&.e.e.h e h w.2.-.Z %.-.2.-.Z %.:.< V.U.,.Z , , - , , @.Z , , - - - $ $ # - : = @ ",
", Z Z @.Z : , , , , : : Z > > > Z @.Z Z &.T =.%.0.e.v K.! 2.0.&.@.@.@.2.2.Z , , 4 e /. Xs.2.=.T Z - : > : > : : - - $ $ - - - # ",
"- : > Z Z , : - - - - : : : Z Z > Z T @.&.&.&.&.6.s. XXXv T -.@.@.@.Z &.&.: : % T 6 Y.`.P.6.=.%.&.@.Z : - % - - - - % $ - = % # ",
"- - : : - - % % - - : : , - : > - : @.@.&.&.@.-.2.,.v v t.&.T Z Z @., , , - - - , d p p f Z Z Z @.%.Z - , - - : = - = = - = $ @ ",
"- - $ - - - $ # : : % % > - - > : , %.@.%.@.2.2.0.2.=.=.2.T Z : , > Z : - - $ % , - - > , > - - : > : - - Z Z , , , - - - > = $ ",
", : % - : , : : - - : : Z @.Z > , Z @.Z Z %.w.w.k.6.&.T @., - : , : Z , , Z = % , , , , , , Z > : > , : : : , Z > Z Z &.@., $ + ",
": : = - Z &.Z @.: - - : Z &.%.@.Z > , : - @.0.w.r.-.@.Z , : : , > : - - : - % - -.6.@.Z T Z Z Z Z Z Z , : : : : % , %.w.-., % + ",
"- = : - #.2.-.Z - - - > @.=.&.@.: $ = % > =.e.w.2.%.&.%., , , > , > : = = - - : 2.m.2.&., , , Z , > Z , : - - - % , Z @.: - : % ",
"+ # % - , &.&.Z : : : - Z @.=.T % % % - , =.w.2.&.Z Z , : , : - Z , % - % : : > #.r.2.Z , : , Z , : , Z : - - - : , - = $ $ - = ",
"@ $ % : , , - % > : : : , @.&.@.: > : , %.@.: , , : , > Z , % $ - - # : : : : , @.&.T > - : Z Z Z , Z %.: $ $ - Z , % % - # @ @ ",
"@ @ % - - - % $ % % : - > T T Z , Z Z Z @.- @ $ : , : : @.@.% % : $ @ : , % = : : : , : - , , : , Z : - % $ # = - - : % @ X + $ ",
"@ + $ $ % % % $ @ # - % - : , , > , : > Z - @ @ - : - : , - $ - , @ $ - - $ $ % % $ Z , - @.Z : , , : % $ $ @ @ @ $ - $ @ o @ @ "
};