/* XPM */
static char *_7e9784bdebd4cae832621057525309f[] = {
/* columns rows colors chars-per-pixel */
"64 64 245 2 ",
"   c #1C1C1D",
".  c #1E1E20",
"X  c #232325",
"o  c #272629",
"O  c #28272A",
"+  c #2A2A2D",
"@  c #2E2D31",
"#  c #302F33",
"$  c #3A2F34",
"%  c #323235",
"&  c #383337",
"*  c #363539",
"=  c #38373B",
"-  c #3A393E",
";  c #44363D",
":  c #3E3D41",
">  c #403F44",
",  c #493945",
"<  c #523C48",
"1  c #663D56",
"2  c #6D3B55",
"3  c #753C68",
"4  c #72396D",
"5  c #424146",
"6  c #4A4146",
"7  c #454449",
"8  c #4A464C",
"9  c #4A494E",
"0  c #55454B",
"q  c #4D4C51",
"w  c #594754",
"e  c #514D54",
"r  c #535156",
"t  c #56545A",
"y  c #5A585C",
"u  c #6B4C53",
"i  c #654758",
"p  c #754757",
"a  c #5E5D62",
"s  c #694565",
"d  c #754B65",
"f  c #72556D",
"g  c #656369",
"h  c #6F6F73",
"j  c #E93D0E",
"k  c #DF4B18",
"l  c #E84C07",
"z  c #EA5809",
"x  c #EB441B",
"c  c #EB5817",
"v  c #EB6608",
"b  c #EC6C0B",
"n  c #ED7606",
"m  c #ED730B",
"M  c #ED7B0B",
"N  c #F07809",
"B  c #EC6718",
"V  c #F16F11",
"C  c #ED7616",
"Z  c #EA5528",
"A  c #EC5B37",
"S  c #EB6728",
"D  c #ED7928",
"F  c #F0722F",
"G  c #EC683D",
"H  c #EC7937",
"J  c #8E385E",
"K  c #923E7B",
"L  c #894E71",
"P  c #A1546E",
"I  c #996777",
"U  c #EC5454",
"Y  c #EC714C",
"T  c #EC5373",
"R  c #C16A7E",
"E  c #EC6E6D",
"W  c #EE830B",
"Q  c #EE8909",
"!  c #F1880A",
"~  c #EE930A",
"^  c #EF990B",
"/  c #F1980A",
"(  c #EC8715",
")  c #F08615",
"_  c #EF9817",
"`  c #F19715",
"'  c #EFA70A",
"]  c #EEAF0E",
"[  c #F2A807",
"{  c #F2A30B",
"}  c #F1B406",
"|  c #F2BC06",
" . c #F2B40A",
".. c #F3BC0B",
"X. c #F2A916",
"o. c #F2B815",
"O. c #EF8E33",
"+. c #F2B32A",
"@. c #F3C505",
"#. c #F3CC05",
"$. c #F4C40B",
"%. c #F4CC0B",
"&. c #F4D206",
"*. c #F3DC05",
"=. c #F5D30B",
"-. c #F5DB0B",
";. c #F4C817",
":. c #F5D816",
">. c #F6E30C",
",. c #F8E70D",
"<. c #F7E515",
"1. c #F4C628",
"2. c #F5D725",
"3. c #F4C939",
"4. c #F5D635",
"5. c #F6E92D",
"6. c #F8E839",
"7. c #EC8451",
"8. c #F3B94B",
"9. c #EF896E",
"0. c #F2A96A",
"q. c #F4D14B",
"w. c #F4D756",
"e. c #F7E946",
"r. c #F8F14B",
"t. c #F7E957",
"y. c #F8F15A",
"u. c #F7C663",
"i. c #F6DC68",
"p. c #F5D97B",
"a. c #F8E967",
"s. c #F8F266",
"d. c #F7E779",
"f. c #FAF073",
"g. c #923B89",
"h. c #A83A93",
"j. c #B338AB",
"k. c #E8338A",
"l. c #CA31B5",
"z. c #EB3EB7",
"x. c #984A8A",
"c. c #875382",
"v. c #925385",
"b. c #AB518F",
"n. c #B4648D",
"m. c #A66498",
"M. c #B747A9",
"N. c #B54CAC",
"B. c #C95F93",
"V. c #ED518F",
"C. c #EF6E8D",
"Z. c #C74FAE",
"A. c #C948B7",
"S. c #D54BBC",
"D. c #EC4DB0",
"F. c #D66CAF",
"G. c #D666B9",
"H. c #EE72B0",
"J. c #F279BC",
"K. c #BF3EC1",
"L. c #D815D4",
"P. c #E913CD",
"I. c #E81BD8",
"U. c #CE36C9",
"Y. c #D738C4",
"T. c #DA2BD4",
"R. c #DC35D4",
"E. c #E928C9",
"W. c #EB37CB",
"Q. c #E828D7",
"!. c #EB2BDC",
"~. c #E838D7",
"^. c #EC34DC",
"/. c #EC3BDC",
"(. c #F137D1",
"). c #DB15E3",
"_. c #E819E6",
"`. c #E715F2",
"'. c #DD2BE5",
"]. c #DA37E3",
"[. c #EB2CE2",
"{. c #E928E6",
"}. c #E437E6",
"|. c #EB34E3",
" X c #EC3CE3",
".X c #ED31EB",
"XX c #EC33EC",
"oX c #EB3BEA",
"OX c #EB38F2",
"+X c #B943C1",
"@X c #D44DCE",
"#X c #D755C8",
"$X c #EC4AC9",
"%X c #ED59C9",
"&X c #F159C9",
"*X c #EA47D4",
"=X c #EB43DB",
"-X c #ED4BDB",
";X c #F149DA",
":X c #EC59D3",
">X c #EE53DE",
",X c #ED5CDB",
"<X c #F158D9",
"1X c #DA6CCD",
"2X c #E965C6",
"3X c #F26BC8",
"4X c #F378C9",
"5X c #EE64D8",
"6X c #F167D9",
"7X c #EE74D1",
"8X c #F275D7",
"9X c #DC48E2",
"0X c #EC44E2",
"qX c #E849E4",
"wX c #ED43EB",
"eX c #ED4BEC",
"rX c #F148E8",
"tX c #EE54E3",
"yX c #EC59E7",
"uX c #EC53EC",
"iX c #F157E7",
"pX c #ED48F1",
"aX c #F247F1",
"sX c #EE58F2",
"dX c #F055F3",
"fX c #EE65E7",
"gX c #F168E7",
"hX c #EF71EF",
"jX c #F376E6",
"kX c #EE8A84",
"lX c #F1968C",
"zX c #EB9F97",
"xX c #F28CB2",
"cX c #F3A2B4",
"vX c #F6DD88",
"bX c #F6D591",
"nX c #F8E788",
"mX c #F8E798",
"MX c #F6D8AC",
"NX c #F8E8A6",
"BX c #F8E1B4",
"VX c #F18ECA",
"CX c #F385D6",
"ZX c #F4A3C6",
"AX c #F286EA",
/* pixels */
"X o + X X @ X @ O o + * O O o @ % : @ - O % % O @ . @ X X % - % @ - > * * % 5 : > 9 5 = = + % * % - % @ o % # O + O O + + + X X ",
"X o + o X X O o @ % @ # o @ @ O O % + * * @ O % % X = % O = 5 % # : = 9 + % - - - : - * & o + @ @ + + @ O @ @ @ : & # + O X X + ",
"% O O X o O = % + @ @ @ O + + O X + % + * * % 7 : @ % : % - y * - @ > 5 * * > - * % - : % X @ + X . X % o % # % = % % # # X X   ",
"X X X X @ - 7 5 o X X @ + X o % * 5 - % % > : O : - > - : > : % @ - - r 9 @ : - & : 7 - O * : * X X X @ o - @ + @ 5 - o + + O   ",
".   X X % 5 = + X o o = @ X O % @ @ @ - % % a y q 9 O 5 7 7 * % @ % 7 * * * - 7 9 r r = % + - % % @ @ - * % 5 o % 5 9 t o - @ X ",
"+ X   % 5 = @   X X @ % + % + * O + X - + + f c.c.s < w 0 8 , ; ; 0 w 0 0 , 8 e t r 9 : > - % - % + + % & & % # % - 9 y q 5 - @ ",
"O + @ 5 % @ O + X X O 9 O * = * + = % * = 4 A.@X@Xj.h.M.b.b.b.b.n.B.R B.n.n.n.v.m.c.d < - > - - : + # @ * % = % @ : : t 8 % : % ",
"o X : % @ + + X . O + & % * - O * > * : L S.$X-X:X*X~.~.*X:X5X,X6X8XJ.3XH.2XJ.xX2X#XG.n.p 6 - % X O % - : * : * - - 7 7 - = @ + ",
"% + + X X @ @ % X + % * 8 * @ % * + 8 4 Y.$X%X4X4X4X5X:X<XiX-X-X;X$X$X>X:X6X8X7X3X8X7XxXxXI u > * * - : : * * * * * % = + + % % ",
"% @ o X @ + # + % - * & % * @ * % # f @X0X5X7X>X8X6X,X,X8XjXgX8X8X3X&X<X;X*X-XtX>XiXAXCXVXH.n.L < = - : : % * & @ % @ : # + o o ",
"% @ + + * % * * # : q = = 5 : % - s @X XuXgXgXuXtX6X>XrXfXgXfXjX8X3X3X8X4X3X5X>X>XsXhXfX:X2XH.F.N.d ; - = % * 5 * > 7 : % % @ % ",
"5 > - 8 : = % = - 5 * % % - * 7 s K.aXrXgXiXfXhXhXjXAX8XjXjX,XH.3X,X;X-X<X,X6XjXCXAXAXjX8XJ.J.xX4XG.d 7 : : : % - 7 - * 5 * % @ ",
"- : - 7 * 5 5 > # @ @ @ , g.M.N.R.|.0XjXhXuXyXfXiX,XjXCXVXxX9.O.7.C.J.7X8X6X6XfXjXjXAXjXCXVXCX6X:X$Xx.7 7 : > 7 7 8 7 5 7 5 % = ",
"= - * : : : q 7 & + * ; h.R.eXsXoX0XjXjXiXiXfX,X:X7XVXzX9.G C ^ ( D 7.kXxX4X4X7X8XjXgXgX8XCX6X6X:X*XN.< 5 5 > 7 : 8 9 : 5 5 % * ",
"% * * > - 5 5 5 : 7 0 x.:XqXsXdXeX6XjX6XiXjXCXH.C.lXlXO.c b ! ....W c C O.E H.xXZXZXVXCXAXgXyX5X6X0X@Xf : : > 7 5 9 : * - * * @ ",
"- * - > 7 : * * 8 5 3 #XAXfX X!.-X,XtX5XCXxXE Y H H c z n m v / { W W v ( ' ( 9.cXZXVX8XjXhXfX5XfXqXtXm.7 : q 7 : 5 5 % % % % @ ",
"+ * 7 & - * * * % = g.hXAXyX/.-XtX0XgX8XcX9.Y F B v b n v b `  .^ m b n M ) ( O.zXcXZX7XyXsXfXiXiXeX X@Xy : - 7 : - * * % % * # ",
"* : - = > - - * - , M.hXhXyX5X8XfXtXjXZXlXH c c m n b N /  .$.|  .{ W M m m C Z H 0.cXVX5X-X,XtXpXiXwX XL > : 5 * : : - & : = * ",
"& - = - 5 5 : : = 2 #XwXqX<X8X,XtX6XVXlXF S ) n b V / $...{ | | .. .[ [ { m b M B C O.9.H.$X*X X{.0X|._.l.; @ 5 - * * = % 7 > - ",
"+ * : > 8 : & 5 0 h.^.P.(.:XiX6X2XC.Y D C ! b C ) ..-.@.| $.-.>.,.%... .o.{ ! n Q C ( Q O.C.2X-X!.[.[._.T.1 - * & > * - * - - % ",
"* - - * > > - 8 K W.Q.E.<X6X%XC.E A C M m b M ^ $.=.$.#.&.:.:.5.5.-.=.$...@.@.[ ! W M b b ( 0.xX>X_.{._._.M., : 7 * % * - 5 % O ",
"- : * - 7 7 , J Y.|.(.&X<X5X9.D D M m C ) ^ | | o.%.&.=.:.>.5.a.p.w.:.=.%.@.@.#...~ M n m b S 9.J.0XXXOX`.R.K = 7 : = > q 8 % % ",
"> 7 5 : t a 3 S.wX X<X6X|.:XT M { B B ^ } @.}  .%.&.=.;.<.6.r.r.s.nXa.2.&.=.&.%.=.=.[ ! b M B D 0.tXOXOX`._.j.s * 5 9 a y % - - ",
"5 : > > a v.Z.}.dXfXjXrX0X3XT M W ^ o.o...o.$.=.-.2.2.6.r.r.6.q.w.t.y.e.5.-.-.&.&.#.&.| ` m { M E iXsXpX`.`.{.j., 7 9 y 5 5 - 7 ",
"* % : 7 s Z.R.oXsXjXrX|.rX6XU ` W / :.;.;.:.>.<.5.e.r.r.t.t.a.p.i.w.a.y.r.6.5.:.=.=.#...../ M z E fXhXeX`._.OX].j.3 0 : : 7 : : ",
"@ @ % > v.@X/.*XjX-X^. XtX6XU ~ / { %.;.:.<.<.6.y.r.e.w.i.i.nXd.d.d.d.a.t.r.6.:.-.>.@.| ../ v z Y gXhXwX{.{.OX}.].j.p > : : - 5 ",
"5 : : * c.U.}.tXiX0X/.0XsX3XU W Q { %.%.2.>.,.6.r.4.MXvXnXmXmXnXvXnXd.i.w.t.e.2.&.>.@.} | / b l H J.tXpXpX.X{.}.^.Y.L 5 * - - * ",
"* * 7 8 4 U.pXuXoXoX[.[.~.xXS W n / %.@.:.>.,.e.r.e.bXp.p.mXvXmXNXmXmXnXp.d.r.i.2.>.@.[  .~ b l S C.tXpXaXOX{.}.~.S.p = 5 5 : - ",
"% - 7 8 3 U.uXfX X X|.Q.$XkXc ! b ~  . .$.=.>.6.y.f.p.nXmXmXmXNXNXNXmXnXnXnXy.MX4.<.$.[ { N m z S 7.5X|..XpXXX|.~.Z.u = 5 * = : ",
"- > 7 7 1 j.}.dXwX[.|.^.2X9.c Q v ! [ [ ..&.-.6.y.y.nXmXmXmXBXMXBXNXNXmXnXNXs.mX4.2.$.} { n m z Z A H.=X_.uX{.{.qXb.< - O % * 5 ",
"5 7 9 8 w h.R.wXiXXX|.;XH.Y c W z W [ { ..%.=.6.s.a.nXmXmXmXBXBXBXNXNXNXmXNXs.t.:.-.$.$...N b l k Z C.,X_.[.{._.qXx.6 % 5 > : 7 ",
"5 q : - w x.R.OXdXwXXX;XC.Y x b l m ' ~ o.%.-.6.y.a.p.nXmXNXNXMXBXNXNXNXNXnXs.t.:.-.%.@.$.! b l c G C.*XI._.{._.I.P 0 5 > 5 - : ",
"5 5 > * 8 x.qXdXpXpXoX=XC.G c b l b ^ ~ o.&.-.6.y.vXbXnXNXmXmXmXNXNXNXmXMXmXs.a.:.-.%.$.;.! b l S U D.*XQ.I.!._.L.K 6 7 - 5 : - ",
"- 7 9 - 0 x.9XsXaXuXaXwXD.Y ( m l v ~ / o.=.>.6.y.d.p.vXvXmXmXNXNXmXnXp.MXmXs.a.:.=.2.@.%.~ b z S T ~.=X!.Q.^.!.L.h.w 5 > > - - ",
"5 : 5 8 8 x.@XqXoXeXwXoX$XE ( ) z b / [ [ %.,.e.t.y.s.s.nXnXnXmXvXmXnXnXd.y.t.i.:.&.1.@.$.n v z Y <XwXwX;X0X0X*XR.h.w 7 : : % : ",
"5 5 5 7 e v.#XyXwXwXdXwX$XE M Q z v ~ [ [ %.-.2.4.q.t.s.a.i.p.vXmXf.f.s.t.q.u.w.=.:.8...| n b z E tXdXeXpXeXeXqX*XM.i 5 - 7 = : ",
": 7 8 7 q c.2X8XqX0XfXeX*XV.B M v v Q  .....=.>.-.2.8.w.t.y.d.vXnXs.y.q.bX3.;.:.=.:.1... .M z z T !.|.0X0XeXuXqX*XM.s : 9 5 7 - ",
"7 7 r 8 : d F.5XuX0XtXtXE.V.c C m m Q o.-.X._ ..*.>.:.3.8.q.t.s.s.e.3.3.4.=.&.%.%.#.%.%.} W z z V.P._.wX X|.=X=XW.Z.s 7 5 * - * ",
"7 7 q e e u n.3X-X X=XiXQ.k.c z m m ! } #...+.O.X.&.*.:.2.u.q.e.4.3.2.<.=.;.1.1.$.} } $.{ v c c D.I._._.{.tX=XQ.].b.i : 7 * % * ",
"8 q 9 9 r t I F.,X0X}.tX=Xk.S b ) b v W [ }  .+.+.X.%.-.2.4.1.2.2.<.>.>.:.;.3.1...$.| o._ z B A D.Q.P._.|.*XW.*XZ.L 8 5 9 5 * - ",
"q 5 8 q y g g L F.yX0X/.:XT C W C v b M `  .| .. .X.X.-.,.<.>.<.>.>.>.>.2.;.$.$.$.@.$.^ m W C U $XP.P.!.W.W./.#Xd r e y 9 5 - - ",
"5 % r 7 g y y 0 I 1XqX^.>XD.U z m C C v M ` X...;.$. .o.:.<.,.<.>.2.2.%.#.#.$.o.;.o.) c c W ( 7.$XI.^.;X~.=X#XL 5 t t g a t 9 * ",
"% % g g y q 9 9 u F.yX^.qXwXE.V.G M m C ) ~ ) X...$... .;.4.:.:.+.1.;.&.&.%...[ _ ) V v z j U H.*X/.tXtX,X2Xv.7 5 7 : 5 y : * & ",
"% - r y 8 5 q q 0 v.@XoXeXpXOXqX%XU C M ) _ ! ^ ` X.$...$.$.$.;.o.&.&.#.#.} Q b b b b z c E H.W.^.=X=X0X5Xn.0 > * 9 9 7 * - & % ",
"- = 7 5 5 : 9 t 7 p M.'.pXsXpXOXoX/.k.G V M M ) M Q _ +.$.$.$.=.@.#.&.@.{ M V M v l c B kX3X%XQ.^.Q.Q.^.R 0 = : 7 : * : + % % * ",
": - - > q > 9 7 - 0 L T.{.eXeXXXaXaX|.W.U B m v B z ! _ 0.+.%.-.....{ ! W Q W z x Z Y C.:X0X^.|.}.{.^.Z.p : : 5 : - = % * & % = ",
"5 : * 7 > 7 9 7 8 e 2 l.).!.rXXXrXeXpX0X&XC.Y B b C B n ( O.8.;.{ M M ~ ~ n v A E C.V.$X X|. X^.oX}.Y.L ; 5 7 5 : 5 = % % = * X ",
": 5 * : 7 5 8 q y q w h.).{.tXoXoXwXdXaXrX6XV.A S C C W W B O.) V m W M C C Y C.J.D.z.!.oXtX0X[.I.!.j.< * - 5 = + > : * @ % @ X ",
"* - - * : : - a q 9 0 J L.).=XeX.X{.OXXXoXeX:XV.T Y ) ) M W ( ) W n B H E C.D.:X,X$XQ.[.fX,XQ.I.~.Y.3 7 = - 7 7 - % * : % + o o ",
"% @ : q 7 7 7 : > 7 5 p l.).}.dX{.{.{.`._.[.^.(.$X%XkXO.Z v ] M c H kX4X6X;XQ.|.rX X[.tXfXwX_.[.~.j.w - - = : 8 * @ + O % * % % ",
"* % * > 5 : > 5 - : 8 w b.].'.oX|.|.{.{._.{.[.!.^. X!.D.T A D G C.J.,XjXhXtX;X-X-XqX-X>XqXsX}. XU.g.8 : % > = = * * * - % * O O ",
": - * * = = % * - - 7 e s +X].~.Q.!.XX X^. X/./.^.!.[.Q.E.V.kXH.W.~.^.tX-X/. XqX0X0X,X/.[.eX=X*XN.w 7 - % % O * = + @ O # * % O ",
"q : * * q = = % 5 5 = % 7 3 h.l.Y.Q.{.^.^.^.(.^.^.^. X(.(.(./.E.I.XX{.{.[.|.{. X0XiX0X[./.4XF.b.i : q 5 5 : % * % O + O - - % X ",
"- > : q - = > 5 - : - % 7 * = ; 1 x.A.*X X0X=XoXoXQ.I.P.E.E.(.(.(./.^.0X X XeXoXsXiX X~.Z.I i 7 7 + % - * - = : # - + + - # * O ",
"# * - 5 5 - : @ % % % = % % 8 7 = 6 u I G.5X5XuXqX[.!.!.[.I.P.P.E.W.W.*X=X-X-XqXuXqXR.M.1 e q 7 q 7 5 = # # * % % % @ + * % % O ",
"% & - - @ % # % % * - = 5 % * = % % 8 6 f n.F.#X#XS.S.#XS.S.l.l.l.Y.E./.Q.Q.*X=XqX9XM.1 = = : : 7 9 5 % 8 + & - + % % % % @ @ X ",
"% * o * % - + X 7 * + + - % @ : = ; q 5 9 7 f f L d L d d < w ; w 1 x.j.U.T.T.*X9XN.1 - - - # % = * * % # 7 7 - : 5 @ % % : % % ",
"5 = @ - * > - = @ * : * 5 9 : * - > 8 : : 7 a y g r 9 > 8 : + = : % 7 7 w L x.N.N.i 8 = - : 5 - * - : * * * = 5 - 7 > 9 9 - O X ",
"* = % * 5 9 - q * * % * 5 8 9 7 > - 5 = + 7 r y a 7 7 : - * - : - = @ % : @ $ < f y - 5 7 : 7 > 5 7 5 - : & = - + : 7 g r - @   ",
"& % - @ q t q : @ % % : 5 q 7 8 % O % @ : 9 a t r 5 q 9 - - 5 = - - - # % % - * t h q 9 - - : : : * > : % * % = @ : 5 5 % * : % ",
". o @ * * 9 9 7 = - - @ : > q 5 o @ + = * q g q 7 5 - - @ : * % q : + : O : * - - g t - : * - > - * : : : @ = * * - % @ o O - % ",
"o @ @ - : : @ @ > * & = - 7 9 7 = : * : q 5 + : - * : = 7 - + + % % o : * - % 5 5 9 : = % * 5 : 5 - 5 q * @ O % 8 : + % : + o X ",
"o X # - % % @ + % @ : % - 7 5 5 - 5 5 5 8 % X @ - : - % q q + @ : + o - > @ % - = = * * & : * * - 5 # % @ O + * % * - % o   X @ ",
"o X @ + % @ % @ o O & @ * * : : = : % - > % X o % : @ = - % + % 7   @ * * O O @ % O 9 - % q : = : : * % o % O o X O & + O X o o "
};