/* XPM */
static char *c0b1a98b07384947a138d1d3235e95cb[] = {
/* columns rows colors chars-per-pixel */
"64 64 61 1 ",
"  c #1C1C1D",
". c #1E1E20",
"X c #232325",
"o c #272629",
"O c #28272A",
"+ c #2B2A2D",
"@ c #2E2D31",
"# c #302F33",
"$ c #323235",
"% c #363539",
"& c #38373B",
"* c #39393C",
"= c #3B3B3F",
"- c #3C3B3F",
"; c #3D3C3E",
": c #3C3B40",
"> c #3F3F42",
", c #3F3E43",
"< c #403F43",
"1 c #403F44",
"2 c #404042",
"3 c #434345",
"4 c #434247",
"5 c #444347",
"6 c #444447",
"7 c #444348",
"8 c #47474A",
"9 c #47464C",
"0 c #48474C",
"q c #48484B",
"w c #49484D",
"e c #4B4B4F",
"r c #4C4C4E",
"t c #4D4B50",
"y c #4E4D51",
"u c #4E4D52",
"i c #504F53",
"p c #504F54",
"a c #525156",
"s c #535356",
"d c #545356",
"f c #555457",
"g c #555459",
"h c #57575C",
"j c #58575C",
"k c #59585B",
"l c #5A595E",
"z c #5E5D61",
"x c #5D5C62",
"c c #5E5D62",
"v c #605D61",
"b c #605F65",
"n c #626166",
"m c #65646A",
"M c #68676D",
"N c #6A696E",
"B c #6D6C72",
"V c #706F76",
"C c #737277",
"Z c #747378",
"A c #7D7C83",
/* pixels */
"Xo+XX@X@Oo+%OOo@$>@*O$$O@.@XX$*$@*1%%$3:1w3&&+$%$*$@o$#O+OO+++XX",
"Xo+oXXOo@$@#o@@OO$+%$@O$$X&$O&3$#>&w+$***>*%%o+@@++@O@@@>%@+oXX+",
"$OoXoO&$+@@@O++OX+$+%%$6>@$>$*h%*@>3%%1*%$;>$X@+X.X$o$#$&$$@+XX ",
"XXXX@*82oXX@+Xo$%3*$$3>o>*1*>1>$@**iw@:*%>8*O%>%XXX@o*@+@3*oO+O ",
". XX$3&+Xoo&@XO$@@@*$$zkwrO387%$@$7%%%&9wss&$+*$$@@*%$3o$3wfo*@X",
"+X $2&@ XX@$+$+%O+X*+Ovsd8*333&@+*>&<&3wssw:3-$*$++$%%$#$;wly2*@",
"O+@3$@O+XXOwO%&%+&$%$>8y8:%3%**%*>+&8@yys5w&*>**:+#@%$&$@>>g8$>$",
"oX>$@++X.O+%$%*O%<%*%>p%$@w>3@>@;&*33%pz03y*@2-$XO$*>%>%**88&%@+",
"$++XX+@$X+$%q%@$%+3#%>>1*%3>3&5&X$>$<wgwwww8339>%%*>>%%%%%#&++$$",
"$@oX@+#+$;%$$%@$$+$>30w3w>8<-$3+Xigy0wy8087**31>%$*>>$%%@$@:#+oo",
"$@++%$%%#>y&&3>$&*->%-%#->80>>3>+yjswy;37>t<*%5$&@%*&$%1%<7>$$@$",
"51*0>&$&*3$$$*%736&3*s$3$>$<8*$3%%%>3w>0yy3-%w%@8%>7>>>$;8*%3%$@",
"*>-8%33<@@@+&32$*3w88w*3%&-*wp83>**%>w>y3*y*w>3*:>&<8>18703385$&",
"&*%>::t8$+%$38>**>pd338;*%$>83g313%>&w330>8>*-5**>%%3317:0w>33$%",
"$%%1*333>88>%>>580>>83y>1$**7$8&<8:8*78**%<3%03%%8>>>>153w>%*%%@",
"*%*18>%%03>0:>*-1*>3*83ww:gw:%@s1j@7:y**2%3sy><w28&<3:t8>33$$$$@",
"+%8%-%%%$%1:>>>%>33*t>><3*3%8:388*w>3y8w8wgy8wtw0w33t:*8>-%%$$%#",
"%>*%>**%*%:>133:30dys80www3>w3y*>0sw30>38itww>swws8331>3%>:*%:&%",
"%&&*33>>%>>+>*t857y3w3w8l5>w8yw83pzglw>582yw35wswsw0>%@5*%%&$81*",
"+%:>0>%33w3<ywygw6>w8l78yy3w8py0801s9yp3d>ys*7383>w8+**%%1%-%**$",
"%**%<<*83<38pwww78w3ws8wM03tw3wwstzhtg18sww3:w93803%$:%>8%$%*3$O",
"*>%*78283*ww038800w33psgMysyy08lyslwyg>yy<gy81yy18-****%9>&1yq$$",
"183>gz:g>8%>gy>s8w718ypMj8swgnwwdtwty0gjMB8t8twy8*<%>:18%3wzg$**",
"3>11llsl3**y>ws0g8tw>znwpd8Mydgy8s8dytwsnBgg<t8w:yw***7%$3wl33*7",
"%$>3*ss3>%>3pwsztwwy8szlyw>lt0ss3pwglsygszz88yywM787**>3*8w>>8>>",
"@@$>w83$3>>tyytslyj>s8y8ww3y18830dy8ytwwjs0yw3yylsw1w7*>wgy>>>&3",
"3>>$w*8$>3-3y3tdg87w&-2dw;t0t88$88i388yy8jstsgnwygt8t88w3103%**%",
"%%783>t:39w>>tyjstglw38y80wlyw0wy>>w83>7zyldbzwyp8wy3w8yt11&33>*",
"$*88833>77700y7zywsgtwwylw0spwpdgy3thp0wljgysssw8yw71w003*&&3%&:",
"*3733878%81s>gwg3338yy3tsp*ws0ysjM08sttydtzwph0lgwy0w30wt1&*O$%3",
"37w8888*syww17w813:p3j83sd>sw8lgygs%sgws3*8wpy8lVl93gpww831$31>7",
"3y:&081t8s0t>w8&y73tty*st78t3thwzgssz>ys03swgy0ylds8wt83*30113*>",
"531%1w8y9wwt3333>>3w780pyhswysylszhzy3st83wspystdddyyjsw%138*3>*",
"*8w*7333*>8ylt8t>78ttyjys8sy8ynztsdbgpz80pt00*gt08h8zzsp0wy31<**",
"3>383>:*330yywst007gszb13wpsyllgtbMygnp8w8dyjgtysystszhwwt88>>$>",
"3338t718w8ys0yp330dlyppwpwzszsypwlgypdywpgppsyjspw80ynzw+dt3*7&>",
">808w9ttwtpsdhswyszdgzzBbjzbzzwyygwyydyt>yty8wytyt8ws3ys3t9>w38*",
"99s0>yp33sy3phw8ttnyzMAlBNzMzznjgzgysl70y1wy8nyg*yw8t%8spt373%*%",
"99yppyh87tw08s183gz>8s>>pgsggzghsslhyp>7gwnlzzs0gwtsswyyhs8>7%%%",
"0twwsdMzyt9s8wt0sdj>gzslgs8sytssy0gytssgssBMhw8:>yys8pt8yww3w3%*",
"y30yhnnshzsywtg38yyplzmNlzwlyy3gz7dg8ytwwMzzyt**3wy88wy35pplw3**",
"3$s8nhl8ghnjBs8ywyldbsCZgMM8>g>zs7lypysyzsgw3y8t8st738>w3dgMzgw%",
"$$nMlyww7tpgzznzgsswsstmzgwsty0ps>w*810gzlty731w87w3w9w338>3k>%%",
"$*sl03tt0sw8ysyljgggzjpzs0%My8gdiyw1y*zj3gyyw3t800>wwy31%ww8%*%$",
"*&833>wd8yp3883syzthmzjyj8%zw>tly59yl7l03&w78:833i>8%1%>8>%>+$$%",
">**1w1w8*830w8tsstw3tMBbmygwywsw8t3ypws83%y>w8y>**31g>>3>*&$%%$&",
"3:%838t8wy3*8<3ysg80tyszzztzs9w09stwy1738@y8*&w6$>08>383>3&$$&%X",
">3%:33wyhyw3w<8s8yyyyw8wysyhhylswy>sw*t*3#->$3%>@*$$%&1&+1:%@$@X",
"%**%>>*ztww3py0zy18sw5010g35sggyy39y%y>3*$*%#**>2;%3**85*$$*$+oo",
"$@>y339>193008w7js3ws3<3wy3yy3>sgdhz>3>3s$&&5s>3&yw*;&>8%@+O$%$$",
"%$%13>13*>0twws>psy0w33shtyw73#yp8ssh989s$+#>%81388>$<&&%%%;$%OO",
">*%%%%$%**8pwpdw8s8dpw7wgybsw0300w87y$8wt05*3>:%8w5;$$O%&+@O#%$O",
"t>%%t%*$33&$73y>y37:33t3nzwgyb0s%0ypt>wgz9w8>@>+**y33>$%$O+O**$X",
"*1>t*%13*>*$8%%%>0%3w*p>pzw:ppb3w33dd>*$8+&*yly33+$*%;&>#*++*#%O",
"#%*33*-@$$$&$$83%333y808hdgw8&d3811wt$*+3*$%$yt9t83&#@%$$$@+%$$O",
"$%**@$@$$%-&3$%&$$93wt:swwwy0s*>3t&->$*%*7@*%&:>7w3$w+%*+$$$$@@X",
"$%o%$*+X7%++*$@>&*t3w>sygywwh-0$1$8$#$+#8+$***#$&%%$#88*>3@$$>$$",
"3&@*%1*&@%>%50>%*39>>7zgNsw>8:+&>$7>:y$+>%8%*>3*%*>%%%&3*31ww*OX",
"%&$%2w*t%%$%10w81*3%+8slz88:*%*:*&@$>++&dg*38>71373*>%&*+>8ns*@ ",
"%$*@ygy>@$$>3y80$O$@>wzdp3yw**3&***#$$*%fByw**>>>%1>$%$&@>35$%:$",
".o@%%ww8&**@>1y3o@+&%yMy83*-@>%$y>+>O>%*-Mg*>%-1*%>:>@&%%;$@oO*$",
"o@@*>>@@1%%&*8w8&:%>t3+:*%>&8*++$$o>%*$33w>&$%3>3*3t%@O$q>+$>+oX",
"oX#*$$@+$@>$-833*3330$X@->&$yt+@1+o-1@$*&&%%%>%%*3#$@O+%$%*$o X@",
"oX@+$@$@oO%@%%>:&>$*1$Xo$:@&*$+$8 @%%OO@$Ow*$y>&::%$o$OoXO%+OXoo"
};