/* XPM */
static char *c2fb9d2a42b54b33b0710d40a8913acf[] = {
/* columns rows colors chars-per-pixel */
"64 64 236 2 ",
"   c #0B090D",
".  c #1C090F",
"X  c #0C0C15",
"o  c #0D0F19",
"O  c #120D16",
"+  c #0F111D",
"@  c #11121D",
"#  c #1E131E",
"$  c #1C1C1D",
"%  c #280609",
"&  c #320404",
"*  c #370608",
"=  c #280E14",
"-  c #320D14",
";  c #28111A",
":  c #391319",
">  c #0F1321",
",  c #121524",
"<  c #1D1D21",
"1  c #131728",
"2  c #14192B",
"3  c #1A1C2C",
"4  c #151D33",
"5  c #191E32",
"6  c #171F38",
"7  c #271927",
"8  c #381C29",
"9  c #1B2135",
"0  c #17203A",
"q  c #1B233C",
"w  c #232325",
"e  c #272629",
"r  c #28272A",
"t  c #2B2A2D",
"y  c #2E2D31",
"u  c #27273A",
"i  c #242A3C",
"p  c #342A32",
"a  c #302F33",
"s  c #372A38",
"d  c #323235",
"f  c #383435",
"g  c #363539",
"h  c #38373B",
"j  c #3A393D",
"k  c #3A393E",
"l  c #440506",
"z  c #4B0809",
"x  c #4B0A0B",
"c  c #560707",
"v  c #540A0B",
"b  c #5C0B0C",
"n  c #450C10",
"m  c #570F13",
"M  c #49151A",
"N  c #591317",
"B  c #630707",
"V  c #630A0B",
"C  c #690B0C",
"Z  c #750B0C",
"A  c #680F11",
"S  c #700F10",
"D  c #691517",
"F  c #781415",
"G  c #471D26",
"H  c #591B21",
"J  c #741F21",
"K  c #492529",
"L  c #56262A",
"P  c #462933",
"I  c #552E35",
"U  c #47353A",
"Y  c #59363A",
"T  c #67272A",
"R  c #792426",
"E  c #732D31",
"W  c #683638",
"Q  c #76393C",
"!  c #1D2743",
"~  c #1A2544",
"^  c #1D2A4A",
"/  c #252C48",
"(  c #2A334C",
")  c #3E3D41",
"_  c #363949",
"`  c #212F54",
"'  c #243156",
"]  c #2B3855",
"[  c #23335B",
"{  c #353D55",
"}  c #293C67",
"|  c #413F44",
" . c #473C44",
".. c #543B42",
"X. c #493F5C",
"o. c #693D45",
"O. c #733C44",
"+. c #3E414F",
"@. c #3B4359",
"#. c #384766",
"$. c #354A72",
"%. c #354A74",
"&. c #424146",
"*. c #4B4246",
"=. c #45454A",
"-. c #46454A",
";. c #49474C",
":. c #47484F",
">. c #4A494E",
",. c #55464A",
"<. c #4D4C51",
"1. c #494B58",
"2. c #514F54",
"3. c #584B54",
"4. c #525156",
"5. c #5C5256",
"6. c #55545A",
"7. c #59565B",
"8. c #5A595D",
"9. c #67464A",
"0. c #784749",
"q. c #664C52",
"w. c #734E53",
"e. c #66565A",
"r. c #795659",
"t. c #434D65",
"y. c #4A5368",
"u. c #565964",
"i. c #5D5C62",
"p. c #4F5A76",
"a. c #665B66",
"s. c #5D6676",
"d. c #636166",
"f. c #65646A",
"g. c #6A676C",
"h. c #776469",
"j. c #676A77",
"k. c #7A6D72",
"l. c #68707C",
"z. c #78757A",
"x. c #870D0D",
"c. c #950E0E",
"v. c #85181A",
"b. c #991516",
"n. c #A50E0F",
"m. c #A51616",
"M. c #B81616",
"N. c #941F21",
"B. c #852527",
"V. c #9C292B",
"C. c #863234",
"Z. c #973234",
"A. c #B22B2B",
"S. c #A6383A",
"D. c #CC1B1A",
"F. c #E41F1E",
"G. c #CA2A2A",
"H. c #D72424",
"J. c #CA3B3B",
"K. c #D13031",
"L. c #E92928",
"P. c #E73C3C",
"I. c #F53C3C",
"U. c #8C3C49",
"Y. c #B93E40",
"T. c #874649",
"R. c #8F4A4D",
"E. c #875658",
"W. c #975355",
"Q. c #B74647",
"!. c #AE5053",
"~. c #865D62",
"^. c #A65F62",
"/. c #89676A",
"(. c #966768",
"). c #876D71",
"_. c #867479",
"`. c #967779",
"'. c #AC696C",
"]. c #A87475",
"[. c #BA7576",
"{. c #C94343",
"}. c #D64848",
"|. c #C75658",
" X c #D45858",
".X c #E7494A",
"XX c #F64849",
"oX c #E45555",
"OX c #D66969",
"+X c #C87273",
"@X c #E36D6D",
"#X c #E47576",
"$X c #365287",
"%X c #395A93",
"&X c #3D609E",
"*X c #435B85",
"=X c #5B6A83",
"-X c #4F6A98",
";X c #616C85",
":X c #6D758A",
">X c #7B7B83",
",X c #677A9A",
"<X c #4D6FA3",
"1X c #617AA1",
"2X c #867D84",
"3X c #C37880",
"4X c #7A8698",
"5X c #728CB2",
"6X c #7598C5",
"7X c #878488",
"8X c #96898C",
"9X c #878A92",
"0X c #978F92",
"qX c #8D9096",
"wX c #9C969A",
"eX c #A88789",
"rX c #AB878D",
"tX c #A69699",
"yX c #8B95A9",
"uX c #A59AA3",
"iX c #A5A2A5",
"pX c #B6ACAE",
"aX c #A9ACB5",
"sX c #B9B3B5",
"dX c #D58888",
"fX c #CD9394",
"gX c #ED8584",
"hX c #E89A9A",
"jX c #C6A4A5",
"kX c #F0B4B4",
"lX c #8FAACA",
"zX c #98B3D3",
"xX c #A6BBD1",
"cX c #CABFC1",
"vX c #ADC0D7",
"bX c #BACBDD",
/* pixels */
"w e t w w y w y r e t g r r e y d ) y j r d d r y < y w w d j d y j | g g d &.) | >.&.h h t d g d j d y e d a r t r r t t t w w ",
"w e t e w w r e y d y a e y y r r d t g f y r d d w h d r h &.d a ) h >.t d j j j ) j g g e t y y t t y r y y t ) g y t e w w t ",
"d r e w e r h d t y y y r t t r w t d t g g d -.) y d ) d j 7.g j y ) &.g g | j g d j ) d w y t w < w d e f a d h d d y t w w $ ",
"w w w w y j -.&.e w w y t w e d g &.j d f &.) e ) j | j ) | ) d y j j 2.>.y ) j g ) -.j r g ) g w w w y e j y t y &.j e r t r $ ",
"< $ w w f &.h t w e e h y w r d y y y j d d i.7.>.>.r &.-.-.g d y d -.g g g h ;.>.4.4.h d t j d f y y j g d &.e d &.>.6.e j y w ",
"t w $ d &.h y $ w w y d t d t g r t w j t r a.4.4.-.j &.&.&.h y t j ) h | h &.>.4.4.>.) &.j d j d t t d g g d a d j >.8.<.&.j y ",
"r t y &.d y r t w w r >.r g h g t h d g d ) -.<.-.) g &.g j j g j | t h -.y <.<.4.&.>.j j ) j j ) t a y g d h d y ) ) 6.-.d ) d ",
"e w ) f y t t w < r t g f g j r g | g j g ) 2.g d y >.) &.y ) a ) j ) &.&.g 2.i.;.&.<.j y &.j d w r d j ) g ) g j j -.-.h g y t ",
"d t t w w t y d w t d g ;.g y d g t &.a g ) ) | j g &.| &.j -.j w f &.d &.>.6.>.>.>.>.-.&.&.;.) g g j ) ) g g g g g a h t t d d ",
"d y e w y t a t d j g d d g y f d t d ) &.>.>.&.>.) -.| j d &.a r 5.8.2.>.>.<.;.;.-.-.j j &.| ) g d j ) ) d g g y d y ) a t e e ",
"d y t t g d g g a ) <.h h &.) d h j j ) g j g d j ) -.;.| | *.*.U e.a.7.2.2.| &.-.) <.| j g &.f h y g j h d g &.g | -.) d d y d ",
"&.| j ;.) h d h j &.f d d j g -.&.-.h &.j 4.d -.d ) d &.-.| h 2.e.].+XOX^.q.| ;.<.<.&.j g >.g y -.g ) -.) ) ) d j -.j g &.g d y ",
"j ) j -.g &.&.| y y y t h &.&.d j &.>.-.-.>.j &.g j j j >.4.2.r.dXkXgXoXP.I.S.3.&.j <.j >.) &.j ) ) h | -.) | -.-.;.&.&.-.&.d h ",
"h j g ) ) ) <.-.d t g d &.-.) j j ) 4.6.&.&.-.j j j g &.;.-.e.+XOXdX@XP.L.I.P.T.;.) -.) j j &.j j ) g g &.&.| -.) ;.>.) &.&.d g ",
"d g g | j &.&.&.) -.-.) g ) ) &.-.>.&.2.7.;.4.&.>.*.>.;.>.j 3.oXJ.Q.}.L.L.I.XXR.| g | &.g ;.&.g g -.) ) ) ) | &.&.>.) g j g g 7.",
"j g j | -.) g g ;.&.) ;.) ) j | 5.).fXhXhXrXrXpXsXrXdX#X+XW.o.}.A.b.A.D.H.XXXXW.&.g &.4.<.) | >.&.-.h | &.) <.-.) &.&.d d d 8.z.",
"t g -.g j g g g d g | ) ) >.r.[.#XOX XOX#X[.^.dXhXhXhX#X@X#X#X|.T F x.M.H..X}.W.;.>.7.<.-.>.<.>.;.>.&.&.<.) j -.) j g g j 6.i.g ",
"g ) j g ) j j g j g ) ) q.'.@XJ.N.D N E C.U.OXgX X{.Q.Q. XOX+X|.Y = C M.L.XXJ.,.>.2.<.>.>.) 4.>.>.4.-.&.&.| ) &.g ) ) j z.d.) g ",
"g j h j &.&.) ) g ) ) /.OXJ.b.v 7 u u #.,XyX3X}.K.G.A.b.b.v.o.|.~.7X= c.F.XXQ f.>.&.<.>.&.&.>.4.>.4.>.;.) g y &.j g j z.4.-.| j ",
"t g ) ) ;.) g &.-.e.[. XB.T K 5 / t.s._ _ y.p.Q.v.S V b F H v.J.E.9XiXW M.Z.7X9X4.) <.4.j -.&.-.&.) >.-.t j j g g >.z.i.g j j d ",
"g j j g | ) j -.r.|.S.T ..U h _ 1.7.<.&._ +.t.a.T.T K K M D m.J.S.Y k.q.m.R rXe.4.>.>.&.) >.;.&.-.>.&.g d ) g ) 6.z.6.j j &.d r ",
"j ) g j -.-.>.).[.C.Y U *.| ;.;.>.;.>.&.&.6.u.u.h.Q W ~.E.v.b.A.Y.D l x b.K.{.!.5.&.6.<.-.| <.<.| -.j j j j j >.qXi.j | <.;.d d ",
"| -.&.) 6.i.e.jX_...,.) 6.<.) 4.-.>.-.| -.<.2.g.6.`.T.D r.R Z v.Z.v.c x x.G.}.Q._.z.>.<.-.>.>.<.-.j | g ) ) 6.7X-.-.>.i.6.f j j ",
"&.) | | 8.E.jXtXI x U <.) >.4.;.6.-.<.>.) i.d.>.2.h.W.E.E.R C c v B.V c b.H.U.U.|.2Xi.8.| >.-.>.) <.>.j j <.2X>.d &.>.8.&.&.j -.",
"g d ) &.U E.).I x M U &.4.>.4.i.<.>.>.<.-.4.i.8.<.k.].R.E.0.T x v b S V c.m.v.D.P.+Xg.>.;.<.<.>.g.-.-.>.z.7X>.&.j -.>.) ) -.) ) ",
"y y d ) ,.T K 8 M M | <.<.<.<.4.8.<.7.) 4.-.<.-.>.k.+XR.r._.).T V V T.E S n.M.D.P.oX~.6.>.&.<.<.8.4.>.z.7X6.j ) >.6.<.) ) ) j &.",
"&.) ) d ;.: L d K K j &.<.&.<.4.6.-.-.>.h j &.6.>.qXcX/.).wXpX`.R.eXsXeXF n.n.M.H.G.!.4.4.6.d.>.<.8.7X7X<.-.-.>.&.| ;.&.g j j g ",
"g g -.-.| K Y j K U >.) &.<.<.7.4.<.6.8.>.&.-.<.-.9XaXR w.wXsXeX(.T.D T.x.c.n.M.D.M.S.8.a.i.>.<.8.>Xz.4.&.>.-.<.<.| | h &.&.) j ",
"d j -.-.-.| U j  .&.-.;.;.<.-.i.<.>.4.6.<.>.>.<.7.4XuXR /.pXpX`.E.(.0.b x.x.c.b.b.b.C.4.4.4.4.6.z.g.>.-.) >.;.;.&.j h h &.g h ) ",
"j &.-.&.&.-.-.-.g -.| 4.) 6.>.6.&.&.&.-.<.<.&.<.i.s.2Xv.(.pX].(.E.T _.T x.Z x.x.x.x.0.<.<.7.8.qXg.>.<.;.>.&.;.>.<.&.h j r d g &.",
"&.-.>.-.-.-.;.j 4.<.>.>.| -.>.-.| &.) 2.&.7.-.| l.#.>Xv.0.tXQ E./.W % G C B Z Z Z R ;.>.2.i.wXz.z.i.>.&.6.2.>.>.-.&.| d &.| ) -.",
"&.<.) j ;.-.&.<.-.4.;.<.) >.-.h <.-.&.<.<.<.j 5.a./ j.F v R A r.~.8X_ P b c C C D *.i.i.>XaXyXiXaX9Xl.1.>.<.-.&.j &.;.&.| &.j ) ",
"&.&.| g &.>.-.<.-.>.>.<.&.&.&.&.) | &.>.-.-.,.~.o.5 i J v V A r.a.:X%.P c c b m 3.=X,XyX4X5X6XzXbXbXxXyXi.8.6.>.g | &.-.j &.) j ",
"j -.>.j -.&.&.&.j ) -.<.8.<.-.>.) -.-.<.<.4.!.U.N # 1 n x v m w.{ ,X` M V Z N ( #.$.=X;X} -X6XzXvXbXbXzX5Xi.6.4.;.>.<.&.| | j j ",
"&.) &.-.&.) ) j &.&.;.<.<.>.4.>.;.;.-.8.e.^.N.v * % @ - x x m 9.y.#.u F A M ` [ 0 1.1.9 ^ [ %.*X*X5X,X%.&X:X7.>.>.>.-.-.) ) d ) ",
"&.&.&.-.<.-.&.-.>.-.<.4.>.<.2.&.;.e./.].|.A.C * % & % = x l b I p./ G G : 8 [ ( &.2.o 1 5 ] *X*X%.#.~ } 6X4Xi.>.t 6.>.&.j -.h ) ",
") -.;.-.>.;.<.<.;.>.2.4.6.7.6.r.'.'.].T.T N % % % . & % & l v s #.s Z x n / #.1.e o , 5 [ } [ ` ~ 1 4 %.5X<.2.6.&.<.;.) >.&.-.j ",
";.;.4.;.) <.2.&.&.2.<.&.4.h./.rXyXyX-X' 5 1 @ o o o O & % % * 8 / R c l s p.g.u 1 1 5 ' [ ~ 4 1 > + 0 ,Xj.g -.4.2.<.&.-.&.g j g ",
";.;.<.2.2.<.6.-.&.<.>.6.>XlXzXlX-X%.` ~ 2 , @ o o o o . * l x 8 _ D c m X.9Xy , 5 9 ` [ ~ 1 > + , i =X:X6.>.<.<.7.4.-.) -.g g g ",
";.<.>.>.4.6.g.i.<.6.l.lXzXlX1X%.` ^ ^ 6 1 1 1 , + + + @ = = 7 3.R.C x C.).g 5 0 0 ! ` 0 1 o o 1 ] ,X:Xi.-.2.<.-.<.>.>.&.>.&.g j ",
"<.&.;.<.7.d.d.4.i.4XlXzX5X$X' 0 0 6 2 1 2 5 2 , 1 1 , 1 2 2 a.S.F b T !.P 2 0 0 ! ' 4 , + o 1 #.,Xl.6.-.-.>.<.&.&.2.2.8.>.&.j j ",
"&.d 4.-.d.7.8.-.4XzXlX<X} 0 4 0 2 1 2 5 q 9 1 5 3 i +.i i 1.V.x.c C.(.F s u _ :.y.' 1 , + 1 $.;X;.4.<.-.&.-.) >.&.6.6.g.i.6.>.g ",
"d d d.g.8.<.>.l.lX6X*X` ~ ~ ~ 2 1 3 q ( ( q q _ _ 4.>.4.<.E.v.v W 0.S C.>.| ;.6.{ 4 1 > 9 t.y.>.-.-.>.&.>.;.>.&.&.-.) &.7.) g g ",
"d j 4.8.;.&.s.5X<X%X} [ ^ 4 1 3 i ( #.#.@.{ +.7.4.;.g g.a.Z.v Y T C Z.*.2.*.d.t.^ 2 , / t.:.<.-.;.;.) >.>.<.&.| g >.>.-.g j g d ",
"j h -.&.&.<.1X$X$X%.^ 2 , , q ( ] #.#.y.u.u.7.<.7.-.g g.~.D r.K b b.o.,.T.a.#.] 4 @ ( :.-.) -.&.&.2.) -.g | g ) -.) g ) t d d g ",
") j j | <.s.*X} ~ 1 + @ , 9 ( ( @.@.<.&.<.g.j.a.f.<.6.d.(./.= * F N.&.e.1./ ` 5 1 ] 1.) >.-.<.) j j &.| 6.) ) &.) j h d g g d h ",
"&.) g -.:.*X[ 4 o o + @ 3 / { 1.6.8.-.>.<.<.4.i.i.i.<.0X`.: & v B.q.2.q.s u 3 3 ( d <.-.j h >.-.d ) >.-.) &.-.&.) &.h d d h g w ",
") &.g ) +.! > X X o , 3 i { e.E.^.W.5.<.<.>.-.>.<.6.i.tXK & l D 0.2.9.I 7 # # i &.a j ) d &.g ) y j d d g j &.h t | ) g y d y w ",
"g j j g j ,       @ 3 u _ _ U F R B.o.4.>.&.>.&.;.f.iX,.& * v T.4.`.eX)...; ) 8.0Xh j g a j j ) &.j g &.j j -.&.j d f j f t e e ",
"d y ) <.&.d @   O 3 u d _ d 7 P x m U >.4.&.| &.8.z.wXl & * E e.].B.n P q.;.>.d.8.d h h &.4.) &.h <.>.j j h ) -.g y t r d g d d ",
"g d g | &.) g y d d _ | s 8 ; : K U <.;.>.-.;.d.2X2XT & & G U E.T.m : = r.k.4.>.4.d t a ) g -.| &.-.-.) d | h h g g g j d g r r ",
") j g g g g d g j ) ;.2...: : G | 2.-.6.e.E.`.'.tXQ l & : *.Y 0.L - = L 9.d -.>.<.;.&.j &.) ) g -.>.&.j d d r g h t y r a g d r ",
"<.) g g <.g j d &.&.h &.P M N | <.&.-.) ,.).9.`.9.l & : e.8XO.9.: - : O.2.) >.7.i.;.>.-.) y ) t j j <.&.&.) d g f r t r j j d w ",
"j | ) <.j g | &.j ) j ;.8 m N *.| ;.g &.e.rXz.d.U - : 9.g._./.I - : P 5.6.) j d -.t h j <.8.<.&.&.t d j g j h ) a j t t j a g r ",
"a g j &.&.j j y d d d ..: n Y -.g &.&.-.h.tXiX2X7.,.h.0X7.h L : K  .&.>.<.d j t &.j d g d <.<.;.<.-.&.h a y g d f d y t g d d r ",
"d g j j y d y d d g j U P P h h d d -.&.6.7XwXz.z.8X8XtX<.4.p U  .<.h j ) d j g j -.y j g h ) ) -.>.&.d >.t g j t d d d d y y w ",
"d g e g d j t w -.g t t j d y ) h j <.&.>.) 6.h._.7X>.<.7.j ;.d | d -.d a d t a -.t f j j j a d h g g d a -.-.j ) &.y d f ) d d ",
"&.h y j g | j h y g ) g &.>.) g j &.;.) ) -.i.6.g.4.>.) -.) t h ) d -.) ) <.d t ) g -.g j ) &.j g j ) g g g h &.j &.| >.>.j r w ",
"g h d g &.>.j <.g g d g &.;.>.-.| j &.g t -.4.8.i.-.-.j j g j ) j h y d ) t t h 4.6.j &.-.) -.| &.-.&.j ) g h j t ) -.d.4.j y $ ",
"g d j y <.6.<.) y d d ) &.<.-.;.f r d y ) >.i.6.2.&.<.>.j j &.h j j j a d d j g 6.j.<.>.j j ) ) ) g | ) d g d h y ) &.&.d g ) d ",
"< e y g g >.>.-.h j j y ) | <.&.e y t h g <.g.<.-.&.j j y ) g f <.) t ) r ) g j j g.6.j ) g j | j g ) ) ) y h g g j f y e r j d ",
"e y y j ) ) y y | g g h j -.>.-.h ) g ) <.&.t ) j g ) h -.j t t d d e ) g j d &.&.>.) h d g &.) &.j &.<.g y r d ;.) t d ) t e w ",
"e w a j d d y t d y ) d j -.&.&.j &.&.&.;.d w y j ) j d <.<.t y | t e j | y d j h h g h g ) g g j &.a d y r t g f g j d e $ w y ",
"e w y t d y d y e r g y g g ) ) h ) d j | d w e d ) y h j d t d -.$ y g g r r y d r >.j d <.) h ) ) g d e d r e w r g t r w e e "
};