/* XPM */
static char *ed2935a049c74b0594ae7e9e1ae63edc[] = {
/* columns rows colors chars-per-pixel */
"64 64 238 2 ",
"   c #0A090D",
".  c #0D0D15",
"X  c #0D0F1A",
"o  c #120D16",
"O  c #0F111D",
"+  c #11121D",
"@  c #1A121A",
"#  c #1C1C1D",
"$  c #280609",
"%  c #340405",
"&  c #3B0708",
"*  c #290D15",
"=  c #350D14",
"-  c #2B111A",
";  c #38151A",
":  c #0F1221",
">  c #121423",
",  c #1D1E21",
"<  c #181825",
"1  c #131729",
"2  c #141A2D",
"3  c #1A1C2C",
"4  c #161D34",
"5  c #181F35",
"6  c #2A1A2A",
"7  c #351A26",
"8  c #2D1F31",
"9  c #1A2237",
"0  c #1B233C",
"q  c #232325",
"w  c #272629",
"e  c #28272A",
"r  c #2B2A2D",
"t  c #38262B",
"y  c #2E2D31",
"u  c #272738",
"i  c #302F33",
"p  c #372836",
"a  c #323235",
"s  c #393335",
"d  c #38373B",
"f  c #3A393D",
"g  c #3A393E",
"h  c #480708",
"j  c #530707",
"k  c #580707",
"l  c #540A0B",
"z  c #5B090A",
"x  c #4E0F13",
"c  c #491619",
"v  c #571315",
"b  c #630A0C",
"n  c #6B0B0C",
"m  c #7A0C0C",
"M  c #690E12",
"N  c #671617",
"B  c #771414",
"V  c #481B24",
"C  c #561D23",
"Z  c #6A1F22",
"A  c #4B2124",
"S  c #47252A",
"D  c #58282B",
"F  c #462A33",
"G  c #582F34",
"H  c #463337",
"J  c #593539",
"K  c #6A2325",
"L  c #742226",
"P  c #6C3739",
"I  c #7A3738",
"U  c #1B2543",
"Y  c #1D2847",
"T  c #1E2D52",
"R  c #242C43",
"E  c #272D4D",
"W  c #372641",
"Q  c #29314A",
"!  c #3E3D41",
"~  c #383949",
"^  c #232F52",
"/  c #213156",
"(  c #2E3A55",
")  c #22335B",
"_  c #353E56",
"`  c #263965",
"'  c #403F43",
"]  c #4B3A43",
"[  c #563C43",
"{  c #693D45",
"}  c #703E47",
"|  c #3D404E",
" . c #3A4155",
".. c #3B445C",
"X. c #394866",
"o. c #304772",
"O. c #344975",
"+. c #424146",
"@. c #4A4145",
"#. c #45454A",
"$. c #48474C",
"%. c #4A494E",
"&. c #564549",
"*. c #4D4C52",
"=. c #434759",
"-. c #514F54",
";. c #594B54",
":. c #4F515A",
">. c #525156",
",. c #595256",
"<. c #55545A",
"1. c #59565B",
"2. c #5A595E",
"3. c #68474B",
"4. c #774649",
"5. c #664F53",
"6. c #754C54",
"7. c #67555A",
"8. c #77555A",
"9. c #4E4D6E",
"0. c #4C5467",
"q. c #555967",
"w. c #5D5C62",
"e. c #495978",
"r. c #625E63",
"t. c #695C63",
"y. c #735C69",
"u. c #5E6071",
"i. c #626166",
"p. c #65646A",
"a. c #6A666B",
"s. c #6B676B",
"d. c #766669",
"f. c #656877",
"g. c #6D6C72",
"h. c #716E73",
"j. c #7C6873",
"k. c #6C747E",
"l. c #787479",
"z. c #880D0D",
"x. c #980F0F",
"c. c #861516",
"v. c #9A1717",
"b. c #A10E0F",
"n. c #A61414",
"m. c #B81716",
"M. c #881F20",
"N. c #852628",
"B. c #952425",
"V. c #942F31",
"C. c #843A3B",
"Z. c #993536",
"A. c #A62526",
"S. c #BA2323",
"D. c #A23233",
"F. c #B93839",
"G. c #C31919",
"H. c #DB1B1A",
"J. c #D42626",
"K. c #D3393A",
"L. c #ED302F",
"P. c #E33838",
"I. c #893E41",
"U. c #8C3D49",
"Y. c #B13F47",
"T. c #CB3F40",
"R. c #874548",
"E. c #954A4D",
"W. c #914E54",
"Q. c #88585A",
"!. c #97595C",
"~. c #A44447",
"^. c #B8494B",
"/. c #BA575B",
"(. c #8E5E62",
"). c #AF5E61",
"_. c #886669",
"`. c #976263",
"'. c #896D73",
"]. c #86767A",
"[. c #997476",
"{. c #A76567",
"}. c #B46F70",
"|. c #B67779",
" X c #C94647",
".X c #D64748",
"XX c #C65858",
"oX c #D95C5C",
"OX c #E64848",
"+X c #F74C4C",
"@X c #E65A5B",
"#X c #D36C6D",
"$X c #D6797B",
"%X c #E56A6A",
"&X c #E67575",
"*X c #33538B",
"=X c #445C87",
"-X c #596988",
";X c #4D6895",
":X c #606D84",
">X c #697488",
",X c #767C89",
"<X c #61789C",
"1X c #4A70AA",
"2X c #627CA6",
"3X c #877D81",
"4X c #937C86",
"5X c #AD7E82",
"6X c #7B8495",
"7X c #6981A6",
"8X c #7292BD",
"9X c #7599C5",
"0X c #89878B",
"qX c #868D97",
"wX c #958D91",
"eX c #938E94",
"rX c #9B969A",
"tX c #A58486",
"yX c #B78889",
"uX c #A98992",
"iX c #A39597",
"pX c #B89798",
"aX c #9499A3",
"sX c #8799B6",
"dX c #96A7BD",
"fX c #A7A2A4",
"gX c #B3A2A5",
"hX c #B6B3B6",
"jX c #D28B8C",
"kX c #E68686",
"lX c #ED9090",
"zX c #D2AEAF",
"xX c #EBACAC",
"cX c #88A8CD",
"vX c #93B0D1",
"bX c #A4B3C8",
"nX c #AAC1D9",
"mX c #BACDDE",
/* pixels */
"q w r q q y q y e w r d e e w y a ! y f e a a e y , y q q a f a y f ' d d a +.! ' %.+.d d r a d a f a y w a i e r e e r r r q q ",
"q w r w q q e w y a y i w y y e e a r d a y e a a q d a e d +.a i ! d %.r a f f f ! f d a w r y y r r y e y y y ! a y r w q q r ",
"a e w q w e d a r y y y e r r e q r a r d d a #.! y a ! a f 1.d f y ! +.d d ' f d a f ! a q y r q , q a w a i a d a a y r q q # ",
"q q q q y f #.+.w q q y r q w a d +.f a a +.! w ! f ' f ! ' ! a y f f -.%.y ! f a ! #.f e d ! d q q q y w f y r y +.f w e r e # ",
", # q q a +.d r q w w d y q e a y y y f a a w.1.%.%.e +.#.#.d a y a #.d d d d $.%.>.>.d a r f a a y y f d a +.w a +.%.<.w f y q ",
"r q # a +.d y # q q y a r a r d e r q f r e r.>.>.#.f +.+.#.f i r f ! d ' d +.%.>.>.%.! +.f a f a r r a a a a i a f %.2.*.+.f y ",
"e r y +.a y e r q q e %.e d d d r d a d a ! #.*.#.! d +.d ' f d ! ' r d #.y *.*.>.+.%.f f ! f f ! r i y d a d a y ! ! <.#.a ! a ",
"w q ! a y r r q , e r a a d f e d ' d f d ! -.d a i *.+.#.s +.a ' f f +.+.d -.w.$.+.*.f y +.f a q e a f ! d ! d f f #.#.d d y r ",
"a r r q q r y a q r a d $.d y a d r +.i d ! ! ' f d +.+.&.&.;.@.r s ' a ' %.<.%.%.%.%.#.+.+.$.! d d f ! ! d d d d d i d r r a a ",
"a y w q y r i r a f d a a d y a a r a ! +.%.%.+.%.' 3.E.).{.[.5.s ,.1.%.$.%.*.#.$.#.#.f f +.' ! d a f ! ! a d a y a y ! i r w w ",
"a y r r d a d d i ! *.d d +.! a d f f ! d f d a f I.OXOX@XkXxXjX3.1.2.>.%.*.! +.#.! *.' f d +.a d y d f d a d +.d ' #.! a a y a ",
"+.' f $.! d a d f +.a a a f d #.+.#.d +.f >.a +.P K.P.L.P.&XjXkX}.@.f ' +.*.' %.*.*.+.f d %.d r #.d ! #.! ! ! a f #.f d +.d a y ",
">.! f #.d +.+.' y y y r d +.+.a f +.%.#.#.%.f +.R.P.P.L.L..XXX X@X&.' ' %.1.%.1.%.! >.*.7.#.+.d ! ! d ' #.' ' #.#.$.+.+.#.+.a d ",
"h.w.d ! ! ! *.#.a r d a +.#.! f f ! -.>.+.+.#.H E.+X+XJ.H.S.B.A. XW.E.{.}.|.tXiX3X'.[.yXyX5X'.7.' ! d d +.+.' #.! $.%.! +.+.a d ",
"f p.1.' f +.+.+.! #.#.! d ! ! +.#.$.! ! #.+.-.' W.OXOXJ.m.z.c.K ^.%X&X%X&XlXxXxXlX}.|.kXkX&X$X$X5Xd.' ! ! ! ' +.+.%.! d f d d y ",
"f d h.h.#.! d d $.+.! $.! ! f f +.f ! +.f $.+.*.&.Y.+XL.m.m = t ^.kXkX&XXX/.oX%XlX%X~.F.A.B c.S..X&X{.*.+.! *.#.! +.+.a a a a y ",
"r d $.s.s.+.d d a d ' ! ! ! ! d ! +.+.f *.! ! +.i.R.+XH.b.c <._./.Q.B.v.v.A.S.S..X$X'.f.=.u 8 ; b A. X/._.+.f #.! f d d a a d i ",
"d ! f d i.h.#.d f d ! ! ' +.+.! +.$.>.*.>.#.$.$.0X0XZ.J.L 3XrXQ. XN.C B n n B B.^.f.e.X. .:.0.R 6 V I Z.XX{.5.#.d ! ! f a ! d d ",
"a f d f #.i.0X+.d ! ! r ! f *.#.+.#.*.+.%.+.%.#.r.0XJ v.5.rX*.Z..Xn.N ; = c N V.8.X._ ~ +.%.<.q. .p F F P F.#X7.f d d d a #.' f ",
"r d f ! $.! i.eX*.%.+.' *.%.*.<.%.#.! %.#.2.#.$.Q..XP.m.j % b F.T.A.c.C.'.5.J s.:Xq.w.>.f #.+.#.#.#.1.&.H F V.{.' +.d f d f f a ",
"d f f d ' ' f w.,X2.+.#.-.%.%.%.#.#.%.+.%.<.%.7./..XJ.x.j j B Z.B.B B Q.I I Q.$.>.%.%.+.! %.$.+.#.%.+.d d &.G '.zX8.f d f +.a e ",
"f ! d f #.#.+.#.<.l.w.%.$.+.#.#.$.$.%.+.+.<.r.).Y.U.J.n.k z N.v z n N Q.R.C._.*.*.' <.*.#.' *.*.! #.f f f H c H iXpX4.+.*.$.a a ",
"' #.+.! <.w.! <.! >.0X1.<.*.! >.#.%.#.' %.2.[.K.G.c.A.n.b N b j j z I Q.C.!.eX1.p.g.$.*.#.*.%.*.#.f ! d ! H c h J ].!.7.<.a f f ",
"+.! ' ' 2.2.>.2.+.f >.rXs.*.>.$.<.#.*.%.+.d.@XP.J.m.b.B L L z z Z 8._.8._.yX3X>.i.g.<.<.' *.#.%.! *.%.f f f A l ; ; 3.7.+.+.f #.",
"d a ! +.f >.>.+.! d ! #.0Xl.<.w.*.%.%.*.*.W.F.J.G.m.b.m _.tX`.C.`.fXrX'.Q.pXrX<.>.w.w.#.#.*.*.%.p.#.#.#.f f F A f G c H ! #.! ! ",
"y y a ! %.#.+.a +.! ! *.<.h.0X<.2.*.2.! <.~.m.G.m.m.b.z.C.I C.I [.hXfX'.R.gXaX%.1.>.$.*.%.+.*.*.2.>.%.' %.#.H A %.D A f ! ! f +.",
"+.! ! a %.f #.a ! +.f +.*.+.g.rX<.#.#.%.f N.b.b.x.z.z.m z K Q.4X5XhXhX4XL pXaX*.#.1.>.*.>.<.i.%.*.<.*.#.*.#.#.@.+.' $.+.d f f d ",
"d d #.#.+.! *.! +.$.%.! ' *.*.p.0X2.<.2.%.{ c.z.x.z.z.z.N ].6.4.(.yXhX[.M.'.>X*.w.*.2.>.r.w.%.*.-.#.%.*.+.%.#.*.*.' ' d +.+.! f ",
"a f #.#.#.+.+.! #.#.#.%.$.*.$.i.g.0Xg.1.*.%.L m m m n n C t D '.!.I iXQ.B y.X.>X2.1.<.*.>.>.>.%.#.*.%.#.' %.$.$.+.f d d +.d d ! ",
"f +.#.+.+.#.#.#.d #.' >.| w.6XqXqXqXhXg.*.*.] M n n z z V u ].`.Q.N N.N B j.U u.2.*.w.%.-.1.$.2.<.%.*.$.%.+.$.%.*.+.d f e a d +.",
"+.#.%.#.#.#.#.f >.*.%.*.f.bXmXmXnXvX9XbXdXqXk.] b b k j F e.aX6.8.N n j N ~ 4 { 4.! #.%.-.*.#.2.h.2.$.+.<.-.%.%.#.+.' a +.' ! #.",
"+.*.! f $.#.+.*.#.>.*.:XvXmXmXnXcX9X;Xo.-X-Xe.X.W v b k c E -X..8.N z l x 3 < C R.E.,.%.<.*.$.*.2.>.>.#.%.*.#.+.f +.$.+.' +.f ! ",
"+.+.' d +.%.#.*.$.%.q.1X=X7XsXdX<X=Xo.T R  .q.9 / E V b B 8 X.e.3.v j h = + $ & v A.!.t.>.*.>.*.>.>.>.*.*.1.<.%.d ' +.#.f +.! f ",
"f #.%.f #.+.+.+.f ! >X9Xo.Y O.=X=X;X( 2 1 + d p.U ) 7 7 7 8 U e.[ v h h * $ % $ % n A.XX|._.1.*.$.#.1.#.w.w.<.-.$.%.*.+.' ' f f ",
"+.! +.#.+.! ! f +.+.<.9XO.5 2 Y ) ` o.X.2 > . y :.` E h j m 8 X.] l h % $ % $ $ % % b c.^.$XjX_.7.-.>.*.>.w.1.%.%.%.#.#.! ! a ! ",
"+.+.+.#.*.#.+.#.%.#.*.f.;XY : > 2 4 Y ) ^ 2 1 + a q.e.p h z L E p h & $ % $ X o o o > 3 Q e.4XuX5Xj.1.%.*.i.w.%.r >.%.+.f #.d ! ",
"! #.$.#.%.$.*.*.%.*.-.<.>X-X0 X O : 2 U / ^ 9 3 > i >X9.v j M ~ 7 h h % $ X X X X O > 2 U ) O.<XsXbXsX,X2.+.*.<.+.*.$.! %.+.#.f ",
"$.$.>.$.! *.-.+.+.>.*.+.1.6X7X( + X X 1 0 / U 0 0 9 3 ].N.h z I.<.< * $ X X X O > 1 > 1 4 T U / O.2XvXbXbXq.#.-.-.*.+.#.+.d f d ",
"$.$.*.-.-.*.<.#.#.*.%.$.#.1.>X<X_ 1 X X > 5 / 0 0 0 4 t ).Z k B E.;.4 1 1 > 1 > > 2 3 1 1 2 0 5 U ) =X8XvXvX6X<.1.>.#.! #.d a d ",
"$.*.%.%.>.>.p.w.*.*.$.<.#.%.*.q.-XX.1 O > 1 T ..~ Q u p N.4.I z c.~.#.u u u u 3 2 1 5 9 4 1 1 4 4 0 Y O.7XcXvX,X*.%.%.+.%.+.d f ",
"*.+.$.*.1.i.i.>.1.w.<.*.%.*.<.+.*.q.e.9 O 1 5 ( q.1.$.>.C.B P 6.j c.`.<.+.%.#.~ u 0 9 R Q 9 3 1 1 0 Y Y / ;X9XcXf.-.-.2.%.+.f f ",
"+.a >.#.i.1.2.#.<.1.i.1.g.>.#.*.%.*.2.0.0 O 4 T ..p.p.#.! V.z D J h Z.t.-.*.>.*.2._ _ X.X.X.R 9 1 > 4 ) ` ) *X1XcXp.<.p.w.<.%.d ",
"a a i.s.2.*.%.%.#.*.*.<.w.w.i.w.<.>.>.*.=.R > 4 ( 0.j.6.;.4.v.z &.J N Q.*.' $.<.w.2.*.=.X.X.X.( R 3 > 1 9 ` o.*X*X<X$.+.1.! d a ",
"a f >.2.$.+.*.*.%.>.%.#.*.>.*.2.1.<.<.<.w.0.Q 1 9 ^ _ ;.5.%.D.c.& H 3.!.h.f w.1.+.<.*.*.*.| =...( Q 3 > + 1 4 / ` =X:X%.d f a a ",
"f d #.+.+.! %.>.#.*.-.+.#.#.+.>.*.w.*.1.p.w.1._ < 3 u u 3.@.&.B.j % ; '.wX$.2.$.+.d %.#.#.! #.+.| _ R 3 + + X X 4 ` ;X=.r a a d ",
"! ! f ' %.' %.#.f #.+.$.%.#.*.>.>.*.%.+.*.p.g.i.#.@ @ u G 3.>.4.B h % c gX<.>.#.+.a *.! %.$.Q._.&.%. .u 3 + X . . : Y ~ d a a d ",
"+.! d #.+.#.%.#.%.*.+.f #.' +.*.>.<.#.%.*.*.>.3Xg.~ @ t 5.!.d.;.} l & % 3.eX-.+.#.y *.#.f H D.D.Z.{ _ ~ u 3 +       + y a d d q ",
"! +.d ! +.+.%.*.1.*.%.+.%.' #.>.#.*.*.*.*.%.#.2.s.w.H &.&.G I._.7.P & % & wXl.>.+.i f ! a ] v l A 6 a ~ u w 3 o   X e d y a y q ",
"d f f d ! ! f w.*.%.%.+.-.*.$.w.*.' #.>.%.+.%.+.%.p.l.8.- - z Z.Q.&.C $ % C 0Xw.#.a f d i f F A ; - 7 p ! ~ i i y y a f a r w w ",
"a y ! *.+.+.$.! ' $.+.$.$.#.%.#.1.>.+.%.>.+.' +.%.*.+.5.A * = A I.8.,.; % h I rXuX'.7.' +.>.! @.V = ; J ' d ! #.d y r e a d a a ",
"d a d ' +.! ' +.f ! $.*.%.%.>.! -.>.*.$.%.+.+.>.1.*.*.,.} ; = ; 6.} ].5.= % h 6.[._.`.[ ! d #.' ] v c F +.! d d d d d f a d e e ",
"! f d a d d a d f f #.-.%.-.>.%.#.>.#.>.-.%.#.%.<.*.r.>.5.H ; = D _.].7.&.& % S 7.h.tX&.+.! ! d $.v x 7 @.a e d d r y e i d a e ",
"*.! d d *.d f a +.+.d a #.+.*.! *.+.#.! +.+.*.+.i.w.%.<.*.r.] S = c ;.p.iX].7.i.rXfXgX'.! y ! r f G x ; ] ! a d a e r e f f a q ",
"f ' ! *.f d ' +.f ! f a #.d a d ! $.d +.%.f -.! -.w.%.! -.-.r.' &.] +.<.wX].].l.l.3XwX;.*.2.*.+.+.y A 7 H f d ! i f r r f i d e ",
"i d f +.+.f f y a a a d a a #.+.d +.+.+.*.#.$.#.1.>.<.%.#.d >.+.#.+.' %.t.7.3Xh.s.s.#.d a *.*.$.*.#.' f i y d a a a y r d a a e ",
"a a f f y a y a a d f d +.a d d a a #.+.%.%.f >.%.%.%.*.$.>.f ! +.*.d f ' a +.f ! #.y f d d ! ! #.%.+.a %.r a f r a a a a y y q ",
"a d w d a f r q #.d r r f a y ! d f *.+.%.! <.*.<.*.%.%.1.f $.a ' a #.a i a r i #.r a f f f i a d d d a i #.#.f ! +.y a a ! a a ",
"+.d y f d ' f d y d ! d +.%.! d f +.$.! ! #.w.<.s.>.%.! #.! r d ! a #.! ! *.a r ! d #.d f ! +.f d f ! d d d d +.f +.' %.%.f e q ",
"d d a d +.%.f *.d d a d +.$.%.#.' f +.d r #.>.2.w.#.#.f f d f ! f d y a ! r r d >.<.f +.#.! #.' +.#.+.f ! a d f r ! #.i.>.f y # ",
"a a f y *.<.*.! y a a ! +.*.#.$.a e a y ! %.w.>.-.+.*.%.f f +.d f f f i a a f d <.g.*.%.f f ! ! ! d ' ! a d a d y ! +.+.a d ! a ",
", w y d d %.%.#.d f f y ! ' *.+.w y r d d *.p.*.#.+.f f y ! d a *.! r ! e ! d f f p.<.f ! d f ' f d ! ! ! y d d d f a y w e f a ",
"w y y f ! ! y y ' d a d f #.%.#.d ! d ! *.+.r ! f d ! d #.f r r a a w ! d f a +.+.%.! d a d +.! +.f +.*.d y e a $.! r a ! r w q ",
"w q y f a a y r a y ! a f #.+.+.f +.+.+.$.a q y f ! f a *.*.r y ' r w f ' y a f d d d d a ! d d f +.i a y e r d a d f a w # q y ",
"w q y r a y a y w e a y d d ! ! d ! a f ' a q w a ! y d f a r a #.# y d d e e y a e %.f a *.! d ! ! d a w a e w q e a r e q w w "
};