/* XPM */
static char *_8d5b09287f34af7be69f324e7663be0[] = {
/* columns rows colors chars-per-pixel */
"64 64 237 2 ",
"   c #06060B",
".  c #00040C",
"X  c #170609",
"o  c #000711",
"O  c #010914",
"+  c #0B0E15",
"@  c #010D1A",
"#  c #110D17",
"$  c #05111C",
"%  c #0C121C",
"&  c #13111D",
"*  c #1C1C1D",
"=  c #2C0605",
"-  c #290808",
";  c #350504",
":  c #3E0B0C",
">  c #2F0E11",
",  c #2C1517",
"<  c #37151B",
"1  c #021324",
"2  c #02162A",
"3  c #061A2C",
"4  c #151421",
"5  c #1E1E20",
"6  c #041C32",
"7  c #251A26",
"8  c #331D27",
"9  c #1E222B",
"0  c #06243C",
"q  c #1A2234",
"w  c #232325",
"e  c #2F2023",
"r  c #262629",
"t  c #28272A",
"y  c #2B2A2D",
"u  c #392427",
"i  c #282636",
"p  c #2E2D31",
"a  c #302F33",
"s  c #3B2E33",
"d  c #2C313A",
"f  c #323235",
"g  c #3B3135",
"h  c #363539",
"j  c #38373B",
"k  c #3A393E",
"l  c #470706",
"z  c #430B0A",
"x  c #4A0C0D",
"c  c #5B0505",
"v  c #550A0B",
"b  c #59090A",
"n  c #450F11",
"m  c #530E11",
"M  c #5B0E11",
"N  c #471719",
"B  c #561417",
"V  c #66090B",
"C  c #760B0F",
"Z  c #650F12",
"A  c #730F13",
"S  c #631316",
"D  c #691519",
"F  c #6C151A",
"G  c #721115",
"H  c #73151B",
"J  c #7A161B",
"K  c #73191E",
"L  c #441A22",
"P  c #581F24",
"I  c #671D22",
"U  c #751E24",
"Y  c #47262A",
"T  c #53262B",
"R  c #59262B",
"E  c #472D34",
"W  c #562D35",
"Q  c #453539",
"!  c #4C363B",
"~  c #553338",
"^  c #652228",
"/  c #792329",
"(  c #662A30",
")  c #7C2B32",
"_  c #752C38",
"`  c #67343A",
"'  c #77353C",
"]  c #092B46",
"[  c #082B47",
"{  c #122F49",
"}  c #07314D",
"|  c #0C3555",
" . c #093859",
".. c #163B58",
"X. c #2C3745",
"o. c #3E3D41",
"O. c #35384A",
"+. c #093E62",
"@. c #403F44",
"#. c #4C3E43",
"$. c #593C44",
"%. c #563C51",
"&. c #763D43",
"*. c #7B3E45",
"=. c #16405D",
"-. c #314454",
";. c #0A4468",
":. c #154667",
">. c #064C75",
",. c #1D4F73",
"<. c #09527C",
"1. c #1C537A",
"2. c #254E67",
"3. c #3C5369",
"4. c #215578",
"5. c #335673",
"6. c #424146",
"7. c #4A4146",
"8. c #46454A",
"9. c #48474C",
"0. c #4A494E",
"q. c #53454A",
"w. c #594449",
"e. c #414955",
"r. c #4D4C52",
"t. c #504F54",
"y. c #584F56",
"u. c #4D5159",
"i. c #525156",
"p. c #55545A",
"a. c #59565C",
"s. c #5A595E",
"d. c #62454C",
"f. c #6C444A",
"g. c #764248",
"h. c #6C4F58",
"j. c #714D52",
"k. c #4A5063",
"l. c #535867",
"z. c #5D5C62",
"x. c #625D65",
"c. c #6D506B",
"v. c #48627B",
"b. c #54677A",
"n. c #626166",
"m. c #65646A",
"M. c #69686E",
"N. c #6C6B72",
"B. c #747075",
"V. c #910A0F",
"C. c #880F14",
"Z. c #85151B",
"A. c #8C151B",
"S. c #97151C",
"D. c #A5141A",
"F. c #B5141B",
"G. c #891D23",
"H. c #951C23",
"J. c #9C1D24",
"K. c #A91B23",
"L. c #B51E25",
"P. c #84232A",
"I. c #8C2229",
"U. c #95252C",
"Y. c #99232A",
"T. c #9C242C",
"R. c #872C33",
"E. c #942D34",
"W. c #9C2C35",
"Q. c #863037",
"!. c #8C343C",
"~. c #98353B",
"^. c #A42027",
"/. c #A4242C",
"(. c #AD242C",
"). c #B3242C",
"_. c #B9252C",
"`. c #A42B33",
"'. c #AD2C34",
"]. c #A42F38",
"[. c #B42B33",
"{. c #B62A33",
"}. c #BB2D34",
"|. c #A5373E",
" X c #AA343C",
".X c #B43139",
"XX c #BA343B",
"oX c #C1181F",
"OX c #C91C24",
"+X c #C9262C",
"@X c #D6272C",
"#X c #C32E35",
"$X c #CA2D33",
"%X c #D32D32",
"&X c #C4343A",
"*X c #C5363B",
"=X c #CB353B",
"-X c #D63639",
";X c #E22D2F",
":X c #8A3C41",
">X c #963B41",
",X c #A73D43",
"<X c #B33D42",
"1X c #BB3E43",
"2X c #C63D42",
"3X c #D43F42",
"4X c #85454D",
"5X c #994249",
"6X c #A9454A",
"7X c #B54449",
"8X c #AE4D51",
"9X c #B35457",
"0X c #8C5866",
"qX c #836676",
"wX c #A4777E",
"eX c #CA4549",
"rX c #CD4F54",
"tX c #C35C61",
"yX c #095784",
"uX c #185A85",
"iX c #235B81",
"pX c #18608D",
"aX c #0C6294",
"sX c #116393",
"dX c #1B6795",
"fX c #2E648A",
"gX c #246A97",
"hX c #39729C",
"jX c #2974A4",
"kX c #387CAB",
"lX c #5B738A",
"zX c #4D7290",
"xX c #4B7EA5",
"cX c #508BB7",
"vX c #6B86A0",
"bX c #8F8289",
"nX c #B6B7BD",
/* pixels */
"w r y w w p w p t r y h t t r p f o.p k t f f t p 5 p w w f k f p k @.h h f 6.o.@.0.6.j j y f h f k f p r f a t y t t y y y w w ",
"w r y r w w t r p f p a r p p t t f y h f p t f f w j f t j 6.f a o.j 0.y f k k k o.k h h r y p p y y p t p p p o.h p y r w w y ",
"f t r w r t j f y p p p t y y t w y f y h h f 8.o.p f o.f k a.h k p o.6.h h @.k h f k o.f w p y w 5 w f r f a f j f f p y w w * ",
"w w w w p k 8.6.r w w p y w r f h 6.k f f 6.o.r o.k @.k o.@.o.f p k k t.0.p o.k h o.8.k t h o.h w w w p r k p y p 6.k r t y t * ",
"5 * w w f 6.j y w r r j p w t f p p p k f f z.a.0.0.y 6.8.8.h g a f 8.h h h j 9.0.i.i.j f y k f f p p k h f 6.r f 6.0.p.r k p w ",
"y w * f 6.j p * w w p f y f y h t y w k y t x.i.i.8.k 6.6.$.` Q.) j.#.j @.j 6.0.i.i.0.o.6.k f k f y y f h h f a f k 0.s.r.6.k p ",
"t y p 6.f p t y w w t 0.t h j h y j f h f o.8.r.8.o.h 6.E R. XOX@XrX!.#.8.p r.r.i.6.0.k k o.k k o.y a p h f j f p o.o.p.8.f o.f ",
"r w o.f p y y w 5 t y h f h k t h @.h k h o.t.h f p 0.Q T C.U S._.XX$X>X7.h t.z.9.6.r.k p 6.k f w t f k o.h o.h k k 8.8.j h p y ",
"f y y w w y p f w y f h 9.h p f h y 6.a h o.o.@.k h 6.E M Z G.F.#X@X7X.Xw.0.p.0.0.0.0.8.6.6.9.o.h h k o.o.h h h h h a j y y f f ",
"f p r w p y a y f k h f f h p f f y f o.6.0.0.6.0.o.8.Y v J J.{.=X-X2X.Xf.0.r.9.9.8.8.k k 6.@.o.h f k o.o.f h h p f p o.a y r r ",
"f p y y h f h h a o.r.j j 6.o.f j k k o.h k h f k #./ F M K L.XX&X-X2X Xg.r.o.6.8.o.r.@.k h 6.f j p h k j f h 6.h @.8.o.f f p f ",
"6.@.k 9.o.j f j k 6.f f f k h 8.6.8.j 6.k i.f 6.f N m n > C.|.}.$XtX%Xj.d.0.o.9.r.r.6.k h 0.h p 8.h o.8.o.o.o.f k 8.k h 6.h f p ",
"k o.k 8.h 6.6.@.p p p y j 6.6.f k 6.0.8.8.0.k 6.u v F G ~ $.U.`. X#XbXwX&.t.o.r.6.k r.k 0.o.6.k o.o.j @.8.o.@.8.8.9.6.6.8.6.f j ",
"j k h o.o.o.r.8.f y h f 6.8.o.k k o.t.p.6.6.8.k u M V.A.W bXqX:X!.0XnX0X6X:X#.6.9.o.8.o.k k 6.k k o.h h 6.6.@.8.o.9.0.o.6.6.f h ",
"f h h @.k 6.6.6.o.8.8.o.h o.o.6.8.9.o.o.8.6.r.o.u m C.A.B a.z.) <Xj.B.5X6X8X X` j h @.6.h 9.6.h h 8.o.o.o.o.@.6.6.0.o.h k h h p ",
"k h k @.8.o.h h 9.6.o.9.o.o.k k 6.k o.6.k 8.6.8.e z C.I M Z U R.7X6X{.`.6X<X7X8Xf.h 6.i.r.o.@.0.6.8.j @.6.o.r.8.o.6.6.f f f f p ",
"y h 8.h k h h h f h @.o.o.o.o.h o.6.6.k r.@.E u 4 & v S M m D U P.).].~.{.+X<X&X7X&.p.r.8.0.r.0.9.0.6.6.r.o.k 8.o.k h h f f h a ",
"h o.k h o.k k h k h o.o.@.6.6.o.6.9.i.r.t.! 7 4 2 1 > V Z : A U Z.E./.!.}.OX}.&X&X<Xf.0.0.o.i.0.0.i.8.6.6.@.o.6.h o.o.k h o.j h ",
"h k j k 6.6.o.o.h o.o.y o.k r.8.6.8.r.@.W S 3  .0 @   x m b : G S.P.I U._.'._.}.%X7X6Xz.6.6.0.i.0.i.0.9.o.h p 6.k h h j f 8.@.k ",
"y h o.o.9.o.h 6.6.0.6.@.r.0.r.p.0.6.@.R J A.$.+.2 . + n c v c > - n K W.}..X(.}.&X<X<Xx.o.8.6.8.6.o.0.8.y k k h h @.h k h k k f ",
"h k k h @.@.k 8.6.@.6.8.t.0.0.r.#.` / H.J.K.S.< % 9 6.Y v v l v l Z Z.H.T.'.K.^.+X5X$XqXe.0.9.6.8.0.6.h f o.h o.8.h f h k 6.f t ",
"k o.h k 8.8.6.8.6.k 0.0.9.#.' !.!.`./.T.A.G x Y r.9.i.7.x : - c l M S K C.T.Y.S.$X7X}.c.l.@.r.r.@.8.k k k k k h 9.o.j @.r.9.f f ",
"@.8.6.o.p.z.o.p.o.8.h o.! U H.W.K.G.K M < s 9.m.p.8.i.0.Y ; - x ; x v Z A A.Z.V.XX-X{.c.v.r.0.r.8.k @.h o.o.@.8.h 6.0.z.p.f k k ",
"6.o.@.@.s.s.i.s.6.k k R / G.J.I D B Y @.o.z.n.0.t.i.8.M.8., X X ; c V M G V.Z.H.&X=X+Xl.5.r.8.9.o.r.0.k k k 8.h f 6.0.s.6.6.k 8.",
"h f o.6.k i.i.6.o.h o.R I.Y.H B W 9.0.r.8.i.z.s.r.0.@.s.r.y X X = c v V H A.S.T.@X$X}.k.3.r.r.0.m.8.8.8.k k o.6.k 8.0.o.o.8.o.o.",
"p p f o.0.8.6.f 6.o.o.#.U / ^ ! a.r.a.o.i.8.r.8.0.0.6.r.@.f = - - l z l G H.F.L.-X-X<X%.e.6.r.r.s.i.0.@.0.8.k o.0.p.r.o.o.o.k 6.",
"6.o.o.f 0.k 8.f o.6.k 6.! ^ $.p.p.8.8.0.j k 6.i.0.k r.9.r.6.# = = = = l C !.{..XeX;XW.$.t.p.n.0.r.p.r.8.r.8.8.0.6.@.9.6.h k k h ",
"h h 8.8.6.o.r.o.6.9.0.o.@.r.r.a.i.r.p.s.0.6.8.r.-.-.=.2.2.2.1 - ; = ; : G D.}.oX&X@XR.y.x.z.0.r.t.8.0.r.6.0.8.r.r.@.@.j 6.6.o.k ",
"f k 8.8.8.6.6.o.8.8.8.9.9.r.8.z.r.0.i.p.r.9.O.2.4.1.<.>.>.>.;.7 z : z z M S.L.(.}.$X' r.i.i.i.0.8.r.0.8.@.0.9.9.6.k j j 6.h j o.",
"k 6.8.6.6.8.8.8.h 8.@.i.o.p.0.p.6.6.6.8.r.X.3 ;.pX4.:. .+. .;...n N c n x / S.D.OXOXd.r.t.a.9.s.p.0.r.9.0.6.9.0.r.6.j k t f h 6.",
"6.8.0.8.8.8.8.k i.r.0.0.@.8.0.8.@.6.o.r.d 1 } kXkXfX:.[ 6 6  .1.E C I D c Q.S.) `./.3.k.t.r.8.s.B.s.9.6.p.t.0.0.8.6.@.f 6.@.o.8.",
"6.r.o.k 9.8.6.r.8.i.9.r.o.0.8.j r.8.6.o.$ 6 uXcXkXiX=.0 @ @ | uXO.D _ ^ M >XU.U.(.L.fXb.a.r.9.r.s.i.i.8.0.r.8.6.k 6.9.6.@.6.k o.",
"6.6.@.h 6.0.8.r.8.0.0.r.6.6.6.6.o.o.d @ 3 ;.sXgX1.:.[ 1 o 1  .uX{ i W Y S E.).1X1X_ uXxXlXl.i.r.i.i.i.r.r.a.i.0.h @.6.8.k 6.o.k ",
"k 8.0.k 8.6.6.6.k o.8.r.s.r.8.0.o.o.$ 1 ;.<.>.;.| [ 2 O o 6 :.uX[ { ..q K L.@XrX9XO.} uXkXcXvXl.9.8.a.8.z.z.i.t.9.0.r.6.@.@.k k ",
"6.o.6.8.6.o.o.k 6.6.9.r.r.0.i.0.9.9 1 ;.yXyX;.| [ 1 . . O 0  .>.[ 6 [ 7 S.,X$X-X X .[ [ } <.jXcXlXu.i.r.i.z.a.0.0.0.8.8.o.o.f o.",
"6.6.6.8.r.8.6.8.0.8.r.i.0.r.t.6.g 4  .yXyXyX;...X.% . . O 6 [ | 6 2 2 7 U.(.%XeX%.+.+.} 3 0 >.sXjXxXl.r.t.n.z.0.y i.0.6.k 8.j o.",
"o.8.9.8.0.9.r.r.0.r.t.i.i.a.i.9.P W yXsXsXyX:.b.z.r.o.i 9 3 1 1 @ @ @ , U.L.2X Xi [ } 0 2 2 } <.aXdXhXlXi.6.r.i.6.r.9.o.0.6.8.k ",
"9.9.i.9.o.r.t.6.6.i.r.6.i.a.0.g Z._.0XgXsXuX4.s.N.M.z.n.z.z.z.r.d X.@ < E..XeXP.& $ 1 1 @ @ 2 } yXsXuXhXlXh 8.i.t.r.6.8.6.h k h ",
"9.9.r.t.t.r.p.8.8.r.0.9.8.i.o.B Y.$X;XrX0X5.-.o.t.p.i.p.p.z.p.a.i.i.t.L H.&X$XY O O O O . . O 1 | yXsXpXjXzXp.r.a.i.8.o.8.h h h ",
"9.r.0.0.i.i.m.z.r.r.9.i.8.0.Q D _.%XeX;X-X4Xi.s.p.i.8.i.r.r.i.i.r.9.j S S.rX`.7 O @ O O . . . O 6 +.<.yXuXgXzXu.r.0.0.6.0.6.h k ",
"r.6.9.r.a.n.n.i.a.z.i.r.0.r.T I.#X%X-X=X Xj.m.M.s.z.0.s.r.r.6.p.z.X.S G.}.3XW.o.r @ O O o . . . @ 0  .>.aXdXgXzXk.t.t.s.0.6.k k ",
"6.f i.8.n.a.s.8.p.a.n.a.N.r.I OX%XeX-X{.4Xi.B.B.p.m.m.8.o.p.o.z.6.8 J ).-X=Xd.r.z.i.d + . . . . o @ 1 [ >.sXjXgXkXb.p.m.z.p.0.h ",
"f f n.M.s.r.0.0.8.r.r.p.z.$.P.XX-X%X'.' t.i.r.m.z.p.0.i.r.r.9.r.g H Y.+XeX{.q.p.z.h.q.$.P X   . . O @ @ 3 } >.gXkXhXe.6.a.o.h h ",
"f k i.s.9.6.r.r.0.i.0.8.0.R '.-XeX'.' p.z.a.t.z.i.9.h m.r.8.p.q.I H.).=X=X' z.p.$.I.) A.A.H l = - . . . . O $ 0 ,.iX3.8.h k h f ",
"k j 8.6.6.o.0.i.8.r.i.6.! I.&XrX}.*.0.a.m.z.a.r.a.8.h z.0.o.0.w.F ~.@X%X].7.s.9.B K J K G V l l l X . o . . . . O 0 O.o.y f f h ",
"o.k k @.0.@.0.8.k 8.6.9.` ~.-X}.&.q.0.6.r.m.N.x.m.r.p.0.t.0.t.T J.OX=X<X&.0.i.8.N V H F m , , e , > + % % @ o .   y j f h h f j ",
"6.o.h 8.6.8.0.8.0.r.6.s P.&X<XW.d.p.8.0.r.r.i.z.z.z.r.z.i.9.#.H `.$X&XW.y.@.8.6.s v A Z.I.}.8Xf.a o.0.8.o.6.6.o.k 6.j f f j h w ",
"o.6.h o.6.6.0.r.a.r.9.P `.2X.Xg.8.r.r.r.r.0.8.0.r.i.r.a.a.0.I /.#X&X Xf.0.k r.k @.u N S Y.+X2X8XE k f f h k 6.j y @.o.h p f p w ",
"h k k h o.o.k z.0.9.! ^ 1X2XE.s.r.@.8.i.0.6.0.6.9.p.6.6.i.T I.}.&X Xd.0.h r.o.6.k f j s F T.).{.6X:Xj 6.k k 8.6.k f f k f y r r ",
"f p o.r.6.6.9.o.@.6.R W.-X&Xg.8.s.i.6.0.i.6.@.6.0.r.6.r.! / ).2X1Xh.a.z.o.6.o.6.i.f j j 7.D U G C.XXg.k k j o.8.h p y t f h f f ",
"h f h @.6.o.@.6.k E P.}.XXXXf.o.i.i.r.9.0.6.6.i.p.0.r.9.Y P..X1Xg.9.i.i.a.9.8.9.i.f y a o.h 8.@.Q w.9.o.f @.j j h h h k f h t t ",
"o.k h h h h f h h T R..X}.}.*.0.8.i.8.i.t.0.8.0.p.r.x.Q B U..X~.q.0.8.8.r.f 8.0.r.9.6.k 6.o.o.h 8.0.6.k f f y h j y p t a h f t ",
"r.o.j h r.h k f T U.+X;X X`.f.o.r.6.8.o.6.6.r.6.n.z.#.: I /. X!.E 9.r.t.r.o.0.p.z.9.0.8.o.p o.y k k r.6.6.o.f h f t y t k k f w ",
"k @.@.r.k h @.W T.'.XX}._.Y.~ h o.9.h 6.0.k t.o.t.s.S N / (. X5Xd.6.6.i.i.o.k f 8.y j k r.s.r.6.6.y f k h k j o.a k y y k a h t ",
"a h k 6.6.k W Y.'.XX$X.X) ( q.6.h 6.6.6.r.8.9.9.d.) K P.) >X&.Q.!.w.@.0.r.f k y 6.k f h f r.r.9.r.8.6.j a p h f f f p y h f f t ",
"f h k k p a K F.&X@X_.` #.f h j f f 8.6.0.0.k y.R P /._ R.4Xs ) ) ~.#.k o.f k h k 8.p k h j o.o.8.0.6.f 0.y h k y f f f f p p w ",
"f h r h f k e N &.~ y y k f p o.j k r.6.0.o.i.r.p.' |.#.:X! 9.T !.! R.f a f y a 8.y f k k k a f j h h f a 8.8.k o.6.p f f o.f f ",
"6.j p k h @.k j p h o.h 6.0.o.h k 6.9.o.o.8.z.p.M.w.9.Q ` Q y f W a 8.o.o.r.f y o.h 8.h k o.6.k h k o.h h h j 6.k 6.@.0.0.k t w ",
"h j f h 6.0.k r.h h f h 6.9.0.8.@.k 6.h y 8.i.s.z.8.8.o.k h k o.k j p f o.y y j p.p.k 6.8.o.8.@.6.8.6.k o.h j k y o.8.n.i.k p * ",
"h f k p r.p.r.o.a f f o.6.r.8.9.f t f p o.0.z.i.t.6.r.0.k k 6.j k k k a f f k h p.B.r.0.k k o.o.o.h @.o.f h f j p o.6.6.f h o.f ",
"5 r p h h 0.0.8.j k k p o.@.r.6.r p y j h r.m.r.8.6.k k p o.h f r.o.y o.t o.h k k m.p.k o.h k @.k h o.o.o.p j h h k f p r t k f ",
"r p p k o.o.p p @.h h j k 8.0.8.j o.h o.r.6.y o.k h o.j 8.k y y f f r o.h k f 6.6.0.o.j f h 6.o.6.k 6.r.h p t f 9.o.y f o.y r w ",
"r w a k f f p y f p o.f k 8.6.6.k 6.6.6.9.f w p k o.k f r.r.y p @.y r k @.p f k j j h h h o.h h k 6.a f p t y h f h k f r * w p ",
"r w p y f p f p r t h p h h o.o.j o.f k @.f w r f o.p j k f y f 8.* p h h t t p f t 0.k f r.o.j o.o.h f r f t r w t h y t w r r "
};