
/* XPM */
static char *c3460f93894642ce9b78abd44d255124[] = {
/* columns rows colors chars-per-pixel */
"64 64 230 2 ",
"   c #1C1C1D",
".  c #2B0606",
"X  c #370809",
"o  c #2A0A10",
"O  c #381618",
"+  c #1E1E20",
"@  c #060F32",
"#  c #081439",
"$  c #111A37",
"%  c #261A26",
"&  c #381624",
"*  c #231B39",
"=  c #321F3D",
"-  c #12203E",
";  c #232325",
":  c #2C2325",
">  c #272629",
",  c #28272A",
"<  c #2A2A2D",
"1  c #3B272B",
"2  c #332B2E",
"3  c #2E2D31",
"4  c #27273B",
"5  c #302F33",
"6  c #2D3139",
"7  c #323235",
"8  c #3C3336",
"9  c #363539",
"0  c #38373B",
"q  c #3A393E",
"w  c #4B0808",
"e  c #59080A",
"r  c #590F11",
"t  c #48181B",
"y  c #561619",
"u  c #5C1A1C",
"i  c #640B0C",
"p  c #6E0B0E",
"a  c #750C0D",
"s  c #680F12",
"d  c #720E10",
"f  c #7B0E11",
"g  c #691618",
"h  c #7A1315",
"j  c #761519",
"k  c #73211D",
"l  c #491D22",
"z  c #541E24",
"x  c #5C1E33",
"c  c #671E21",
"v  c #7D1E22",
"b  c #482629",
"n  c #4D2B2D",
"m  c #552425",
"M  c #592629",
"N  c #442D31",
"B  c #492D31",
"V  c #582C35",
"C  c #43363A",
"Z  c #493538",
"A  c #573437",
"S  c #53393C",
"D  c #692527",
"F  c #792329",
"G  c #682432",
"H  c #762B30",
"J  c #693538",
"K  c #041B43",
"L  c #0A1E44",
"P  c #07204B",
"I  c #0B234C",
"U  c #16284A",
"Y  c #1A314E",
"T  c #092955",
"R  c #152B55",
"E  c #1A3657",
"W  c #232B43",
"Q  c #2C2945",
"!  c #2B3849",
"~  c #343847",
"^  c #3E3D41",
"/  c #273954",
"(  c #3B3558",
")  c #0A3766",
"_  c #0B3D6C",
"`  c #143A66",
"'  c #283E64",
"]  c #373D64",
"[  c #5A2B40",
"{  c #403F44",
"}  c #4B3E44",
"|  c #5C3847",
" . c #49395C",
".. c #543651",
"X. c #712C45",
"o. c #453E63",
"O. c #3C424B",
"+. c #29425B",
"@. c #374757",
"#. c #13466E",
"$. c #064274",
"%. c #0C4374",
"&. c #04477B",
"*. c #0A4A7A",
"=. c #164A7A",
"-. c #18547B",
";. c #374867",
":. c #2B526C",
">. c #2F4E72",
",. c #3E4F79",
"<. c #265575",
"1. c #424146",
"2. c #45454A",
"3. c #46464A",
"4. c #4A454A",
"5. c #48474C",
"6. c #4A494E",
"7. c #54454A",
"8. c #444A56",
"9. c #4D4C52",
"0. c #454B5B",
"q. c #504F54",
"w. c #5C4E52",
"e. c #42525F",
"r. c #525156",
"t. c #55545A",
"y. c #58575C",
"u. c #5A595E",
"i. c #694547",
"p. c #684D52",
"a. c #645559",
"s. c #7B5F5F",
"d. c #494369",
"f. c #445667",
"g. c #555962",
"h. c #5D5C62",
"j. c #4F5070",
"k. c #614765",
"l. c #605F64",
"z. c #626166",
"x. c #65646A",
"c. c #69666C",
"v. c #69686D",
"b. c #6D6C72",
"n. c #756F75",
"m. c #737277",
"M. c #830E12",
"N. c #8C1314",
"B. c #871518",
"V. c #931316",
"C. c #9B1316",
"Z. c #921519",
"A. c #9A171C",
"S. c #931C1B",
"D. c #9D1A1B",
"F. c #A41619",
"G. c #A7171A",
"H. c #AB1A1C",
"J. c #B4161B",
"K. c #B41B1D",
"L. c #BC1B1D",
"P. c #AA261E",
"I. c #B9221E",
"U. c #8A1B26",
"Y. c #9B1B21",
"T. c #A41C20",
"R. c #AF1B21",
"E. c #B61C23",
"W. c #862425",
"Q. c #982028",
"!. c #8D2F3B",
"~. c #A82526",
"^. c #BA2625",
"/. c #B43435",
"(. c #C41A1E",
"). c #CB1B1E",
"_. c #D31A1F",
"`. c #C31C21",
"'. c #CB1C21",
"]. c #D21D21",
"[. c #E01D22",
"{. c #CC2624",
"}. c #DB2222",
"|. c #D82823",
" X c #D93429",
".X c #C63A3A",
"XX c #E22B25",
"oX c #E4392B",
"OX c #DF4136",
"+X c #E94630",
"@X c #B25A58",
"#X c #865968",
"$X c #054C82",
"%X c #094D82",
"&X c #05538B",
"*X c #095689",
"=X c #145D85",
"-X c #045B94",
";X c #045B96",
":X c #295686",
">X c #315384",
",X c #116089",
"<X c #07679B",
"1X c #03639C",
"2X c #186890",
"3X c #2E6583",
"4X c #0264A2",
"5X c #026AA4",
"6X c #096AA0",
"7X c #006BAA",
"8X c #0172AD",
"9X c #0875A9",
"0X c #157BAA",
"qX c #0075B3",
"wX c #0079B6",
"eX c #007CBA",
"rX c #2E76A2",
"tX c #475C85",
"yX c #4D6B8E",
"uX c #777385",
"iX c #0081BC",
"pX c #1087B9",
"aX c #368EB6",
"sX c #0085C2",
"dX c #0089C5",
"fX c #008ECA",
"gX c #0491CC",
"hX c #009AD4",
"jX c #009ED8",
"kX c #03AAE1",
/* pixels */
"; > < ; ; 3 ; 3 , > < 9 , , > 3 7 ^ 3 0 , 7 7 , 3 + 3 ; ; 7 0 7 3 0 { 9 9 7 1.^ { 6.1.0 0 < 7 9 7 0 7 3 > 7 5 , < , , < < < ; ; ",
"; > < > ; ; , > 3 7 3 5 > 3 3 , , 7 < 9 7 3 , 7 7 ; 0 7 , 0 1.7 5 ^ 0 6.< 7 0 0 0 ^ 0 9 C n 1 3 3 < < 3 , 3 3 3 ^ 9 3 < > ; ; < ",
"7 , > ; > , 0 7 < 3 3 3 , < < , ; < 7 < 9 9 7 3.^ 3 7 ^ 7 0 y.9 0 3 ^ 1.9 9 { 0 9 7 q } W./.F 2 ; + ; 7 > 7 5 7 0 7 7 3 < ; ;   ",
"; ; ; ; 3 0 3.1.> ; ; 3 < ; > 7 9 1.0 7 7 1.^ > ^ 0 { 0 ^ { ^ 7 3 0 0 q.6.3 ^ 0 9 ^ 3.Z h {.Y.1 ; ; ; 3 > 0 3 < 3 1.0 > , < ,   ",
"+   ; ; 7 1.0 < ; > > 0 3 ; , 7 3 3 3 0 7 7 h.y.6.6., 1.3.3.9 7 3 7 3.9 9 9 0 3.6.r.r.0 r J.T.b 7 3 3 0 9 7 1.> 7 1.6.t.> 0 3 ; ",
"< ;   7 1.0 3   ; ; 3 7 < 7 < 9 , < ; 0 < , l.r.r.3.0 1.1.1.0 3 < 0 ^ 0 { 0 1.6.r.r.6.^ g M.L.D 7 < < 7 9 9 7 5 7 q 6.u.9.1.0 3 ",
", < 3 1.7 3 , < ; ; , 6., 9 0 9 < 0 7 9 7 ^ 5.9.3.^ 9 1.9 0 0 9 0 ^ < 0 3.3 9.9.r.1.6.} B.e J.v q < 5 3 9 7 0 7 3 ^ ^ t.3.7 ^ 7 ",
"> ; ^ 7 3 < < ; + , < 9 7 9 0 > D /.n 0 9 ^ r.9 7 3 6.^ 1.3 ^ 3 q 0 0 1.1.9 q.h.5.1.9.Z ~.p C.A.: , 7 0 ^ 9 ^ 9 0 0 3.3.0 9 3 < ",
"7 < < ; ; < 3 7 ; < 7 9 5.9 5 O h {.!.5 9 ^ ^ { 0 9 1.^ 1.0 1.0 ; 7 ^ 7 { 6.t.6.6.6.6.3.F a f L.D 0 q ^ ^ 9 9 9 9 9 5 0 < < 7 7 ",
"7 3 > ; 3 < 5 < 7 q 9 7 7 7 l f d `.W.^ 1.6.6.1.6.^ 3.{ q 7 1.< ; q.t.9.5.6.9.3.5.3.3.0 8 y i ^.B.N q ^ ^ 7 9 9 3 7 3 ^ 5 < > > ",
"7 3 < < 9 7 9 9 5 ^ 9.0 8 z A.H.M.K.D ^ 9 q 9 7 q ^ 3.5.^ ^ 1.^ < 9.y.r.6.9.q 1.3.^ 9.^ 0 5 m !.V 1 9 0 0 7 9 1.9 { 3.^ 7 7 3 7 ",
"1.{ 0 5.^ 0 7 0 0 1.7 7 n S.`.D.f K.D 1.0 r.7 1.7 ^ 7 { 3.0 7 1.9 9 9 ^ 1.6.^ 5.9.9.1.0 9 6.~ %X5X) ! 3.^ ^ ^ 7 q 3.0 9 1.9 7 3 ",
"0 ^ q 3.9 1.1.{ 3 3 3 < n H.].w M.F.A 3.3.6.0 1.9 0 q 0 6.q.3.1.^ 0 0 9 ^ 6.^ 9.1.0 9.0 6.^ / 1XhXiX#.O.3.^ { 3.3.5.1.1.3.1.7 0 ",
"0 0 9 ^ ^ ^ 9.3.7 < 9 7 A K.V.. N.T.w.r.1.1.3.q 0 9 7 ^ 3.1.t.1.{ 1.9 ^ 0 6.1.1.5.^ 3.^ 0 q @.<XkXjX*X! 1.1.{ 3.^ 5.6.^ 1.1.7 9 ",
"7 9 9 { 0 1.1.1.^ 3.3.^ b Z.r O F.T.C ^ 3.1.9.^ { 7 0 0 3.7 3.0 { 3.^ 3.0 3.3.0 0 9 { 1.0 5.~ -XjXjX1X+.^ ^ { 1.1.6.^ 9 0 9 9 3 ",
"0 9 0 { 3.^ 9 9 5.1.^ 5.C m 1 O T.~.C 1.0 3.1.6.6.^ t.9.^ 9 3 t.^ g.6 3.^ 9.0 0 1.9 1.r.9.^ ~ -.sXdX-XY ^ ^ 9.3.^ 1.1.7 7 7 7 3 ",
"< 9 3.9 q 9 9 9 7 9 { ^ ^ ^ ^ &  ...{ 0 9.^ ^ { 1.0 O./ -.2X,X<.#.<XwX<X-.>.@.@.@.;.f.e.3.6.3.E -X5X&XY 9.^ 0 3.^ q 9 9 7 7 9 5 ",
"9 ^ 0 9 ^ 0 0 9 0 9 ^ ^ { 1.! R 1X-X>.9.r.3.5.6.6.3./ *.eXjXdX-X1XjXjXeX&X&X-X<X6X9X0X0X2X:.f.! T *X&XE 1.1.^ 1.9 ^ ^ 0 9 ^ 0 9 ",
"9 0 0 0 1.1.^ ^ 9 ^ ^ < ^ 0 E _ iXiX-.1.6.1.6.3.e./ U $XeXfXwX-X7XgXfX5X*.5XwXeXfXfXdXsXwX5X5X9X&.<X4X-.^ 9 3 1.0 9 9 0 7 3.{ 0 ",
"< 9 ^ ^ 5.^ 9 1.1.6.1.1.9.6.E %.hXfX,X6.3.u.@.<.*.%.` _ 7X7X1X&X-XwXwX%X%.&X5XeXsXdXgXgXfXfXfXgXdXeX4X_ < 0 0 9 9 { 9 q 9 0 0 7 ",
"9 0 0 9 { { 0 3.1.{ 1.3.r.6.Y ) fXiX*X1.8.3X9XqXqX-X) $X-X$X7X1X%.4X4X_ I T T ) $.$X&X&X-X4X7XqXqX4X-X$X! ^ 9 ^ 3.9 7 9 0 1.7 , ",
"0 ^ 9 0 3.3.1.3.1.0 6.6.6.1.- I wX5X#.O.=XeXfXsX7X$XT =.]  .tXtX( d.,.R W 4 @ @ @ # L T _ $.&.$.) I P I ~ 0 0 9 3.^ 0 { 9.5.7 7 ",
"{ 3.1.^ t.h.^ t.^ 3.9 ^ t.9.$ # -X&XU *.iXfXsX4X_ K @ U.A.E.R.{.T.E.E.z 3.3.t.0.f.;.U I K K K I U 4 ! 6 ^ ^ { 3.9 1.6.h.t.9 0 0 ",
"1.^ { { u.u.r.u.1.0 0 9.^ 6.W I %X) $.8XsXqX&X) # $ % Z.U.Q.Y.^.~.E.B.y 4.9.6.r.z.b.t.t.^ 9.3.6.^ 9.6.0 0 0 3.9 7 1.6.u.1.1.0 3.",
"9 7 ^ 1.0 r.r.1.^ 9 ^ 1.r.6.O.I $.&.8XeX8X-X_ L W O.% = =.=.R >.:X>X( l a.r.9.t.r.h.h.3.3.9.9.6.c.3.3.3.0 0 ^ 1.0 3.6.^ ^ 3.^ ^ ",
"3 3 7 ^ 6.3.1.7 1.^ ^ 9.9.9.8.$.5X8XeXwX-X) K W 3.9.$ Q ;./  .-X:X9X1XW 6.9.6.6.y.r.5.9.6.1.9.9.u.r.6.{ 6.3.0 ^ 6.t.9.^ ^ ^ 0 1.",
"1.^ ^ 7 6.0 3.7 ^ 1.q 1.9.1.9.%.8X-X&X_ L $ O.r.6.~ * >XY.p  XX.>XdX1XU 3.3.9.9.3.y.r.9.r.t.z.6.9.t.9.3.9.3.3.6.1.{ 5.1.9 0 0 9 ",
"9 9 3.3.1.^ 9.^ 1.3.6.^ { 9.9.+.I L U W ~ { 3.9./ ` ,./.V.F.OXX.,.yXqXU ^ 1.^ 3.h.9.u.t.l.h.6.9.q.3.6.9.1.6.3.9.9.{ { 0 1.1.^ 0 ",
"7 0 3.3.3.1.1.^ 3.3.3.5.5.9.3.g.Q 4 9.t.9.6.9./ ` ;.j.!.f E.@Xo.d.aXsX` 8.q.5.6.u.y.t.9.r.r.r.6.3.9.6.3.{ 6.5.5.1.0 0 0 1.9 0 ^ ",
"0 1.3.1.1.3.3.3.9 3.{ r.^ t.6.t.1.{ 1.3.9.9.W R %X:XyX0XU >.@Xo.:XgXeX*.8.9.9.9.t.9.h.6.q.y.5.u.t.6.9.5.6.1.5.6.9.1.0 0 , 7 9 1.",
"1.3.6.3.3.3.3.0 r.9.6.6.{ 3.6.3.{ 1.^ q.{ a.x | ..k.uX2XI -XpX' =.wXeX$X0.t.6.r.1.0 3.6.q.9.3.u.m.u.3.1.t.q.6.6.3.1.{ 7 1.{ ^ 3.",
"1.9.^ 0 5.3.1.9.3.r.5.9.^ 6.3.0 9.3.1.9.| W.E.K.S.R.oXN.F./.#X] ] yXrX_ 8.^ 9.r.5.1.t.6.t.9.5.9.u.t.r.3.6.9.3.1.0 1.5.1.{ 1.0 ^ ",
"1.1.{ 9 1.6.3.9.3.6.6.9.1.1.1.1.^ ^ 1.4.j L.|.{.S.S.I.S.K. X{.V.{.oX.Xx ~ 1.r.9.3.1.6.r.q.9.r.9.t.t.t.9.9.y.t.6.9 { 1.3.0 1.^ 0 ",
"0 3.6.0 3.1.1.1.0 ^ 3.9.u.9.3.6.^ 3.3.7.Z.).}.I.D.(.].L.I.{.F.F.|. X|.f Z q.h.3.5.q.9.5.5.0 t.9.5.3.y.3.h.h.t.q.5.6.9.1.{ { 0 0 ",
"1.^ 1.3.1.^ ^ 0 1.1.5.9.9.6.r.6.5.5.3.p.V.L.].B.L.}.+XXXK.K.).F.).}.J.i A z.q.3.6.3.t.9.y.t.6.9.t.9.r.9.r.h.y.6.6.6.3.3.^ ^ 7 ^ ",
"1.1.1.3.9.3.1.3.6.3.9.r.6.9.q.1.1.5.t.p.V.K.S.f (.}. X|.).H.V.f M.K.F.e m r.9.6.q.t.q.q.t.9.y.r.q.6.3.5.9.z.h.6.< t.6.1.0 3.0 ^ ",
"^ 3.5.3.6.3.9.9.6.9.q.r.t.y.t.6.9.r.h.w.j H.h p (.[.[._.(.M.e e a ^.|.C.t r.9.9.^ 9.9.9.3.6.9.9.9.9.3.6.r.1.9.t.1.9.3.^ 6.1.3.0 ",
"3.3.r.5.^ 9.q.1.1.r.9.1.r.y.6.3.9.9.z.9.m e g w C.].).].D.s . N. X+XXXF.m t.3.5.9.{ 6.9.3.z.9.t.0 9.6.3.6.9 3.r.q.9.1.3.1.9 0 9 ",
"3.3.9.q.q.9.t.3.3.9.6.5.3.r.{ 3.1.t.h.^ C O . 1 g V.F.W.M i.N j `.].).N.m q.^ 3.t.6.z.u.h.h.r.5.t.6.6.t.t.6.9.9.y.r.3.^ 3.9 9 9 ",
"5.9.6.6.r.t.x.h.9.9.3.t.3.6.9.5.r.t.y.^ t.7.o i.p.g y n.s.} 9.~ F A.H.d m r.r.t.r.r.b.v.y.6.3.^ ^ 9.9.r.3.q.9.3.9.6.6.1.6.1.9 0 ",
"9.1.5.9.y.z.z.r.y.h.t.9.6.9.t.1.3.9.9.q.u.h.a.O S k W.c.J 4.1.@.* s i i z 9.9.6.6.v.h.h.9.9.0 0 1.6.9.3.3.6.9.1.1.q.q.u.6.1.0 0 ",
"1.7 r.3.z.y.u.3.t.y.z.y.b.r.3.9.6.9.u.t.l.r.m.u w w S.f m y.^ f.$.o i ~.M 9.r.9.h.r.t.6.1.9.3.9.3.t.9.3.1.3.^ 6.1.t.t.x.h.t.6.9 ",
"7 7 z.v.u.9.6.6.3.9.9.t.h.h.z.h.t.r.r.6.r.r.9.S e w w t 4.9.6.:.8XG I.P.m { 5.t.h.u.9.9.3.1.{ 6.3.3.6.1.6.3.6.1.1.3.^ 1.y.^ 9 9 ",
"7 0 r.u.5.1.9.9.6.r.6.3.9.r.9.u.y.t.t.t.h.y.q.u.M i & & } 3.y.<.5XF ).V.S 0 h.y.1.t.9.9.6.1.9.3.5.5.^ 6.6.9.1.{ 9 6.6.3.9 0 9 7 ",
"0 0 3.1.1.^ 6.t.3.9.q.1.3.3.1.r.9.h.9.y.x.h.y.9.t.m h B.j N 6.:.*.j ).v w.3.u.5.1.0 6.3.3.^ 3.1.1.q.^ 3.9 { 9 ^ 3.^ 9 ^ < 7 7 9 ",
"^ 0 0 { 6.{ 6.3.0 3.1.5.6.3.9.r.r.9.6.1.9.c.b.l.x.7.h H.H.g 7.+.Q Z.H.c w.6.r.3.1.9 9.^ 6.3.9.^ 0 0 1.{ t.^ ^ 1.^ 0 0 7 9 9 7 0 ",
"1.^ 9 3.1.3.6.3.6.9.1.0 3.{ 1.9.r.t.3.6.9.9.r.h.h.h.g N.D.V S +.d.h P.F q.{ 3.1.3.3 9.3.0 0 6.3.7 ^ 6.3.^ 1.3.1.^ 1.0 7 7 0 9 ; ",
"^ 1.9 ^ 1.1.6.9.y.9.6.1.6.{ 3.r.3.9.9.9.9.6.3.6.9.t.l r F J g.<.[ i B.D 6.0 9.0 1.5 q ^ 7 1.9 ^ 3 0 7 7 9 0 1.0 < { ^ 9 3 7 3 ; ",
"9 0 0 9 ^ ^ 0 h.9.6.6.1.q.9.5.h.9.{ 3.r.6.1.6.1.5.t.{ X A u g.Y y a h n 9 9.^ 1.0 7 0 9 5 0 0 ^ 1.q 9 1.0 0 3.1.0 7 7 q 7 < > > ",
"7 3 ^ 9.1.1.3.^ { 3.1.5.5.3.6.3.y.r.1.6.r.1.{ 1.6.9.1.4.4.C ! 4 D.N.g a.^ 1.^ 1.r.7 0 0 1.r.^ 1.0 9.6.0 q 0 ^ 3.9 3 < , 7 9 7 7 ",
"9 7 9 { 1.^ { 1.0 ^ 5.9.9.6.r.^ q.r.9.5.6.1.1.r.t.6.9.6.3.1.% G D.I.u t.y.3.3.5.r.7 < 5 ^ 9 3.{ 1.3.3.^ 7 { 0 0 9 9 9 q 7 9 , , ",
"^ 0 9 9 9 9 7 9 0 0 3.q.6.q.t.6.3.r.3.t.q.6.3.6.t.9.l.r.6.5.c T.^.N.Z 3.9.7 3.6.9.5.1.0 1.^ ^ 9 3.6.1.q 7 7 , 9 0 < 3 , 5 9 7 , ",
"9.^ 9 9 9.9 0 7 1.1.0 7 3.1.9.^ 9.1.3.^ 1.1.9.1.z.h.6.t.9.a.F.L.K.u 9.q.9.^ 6.t.h.3.6.3.^ 3 ^ < 0 0 9.1.1.{ 7 9 7 , < , 0 0 7 ; ",
"0 { ^ 9.0 9 { 1.0 ^ 0 7 3.9 9 9 ^ 5.9 1.6.0 q.^ q.h.6.^ q.i.).).h Z 1.t.t.^ 0 7 3.< 0 0 9.u.9.1.1.< 7 0 9 q 0 ^ 7 0 < < 0 5 9 , ",
"5 9 0 1.1.0 q 3 7 7 7 0 7 7 3.1.9 1.1.1.9.3.5.3.y.t.t.6.5.D (.F.M { { 6.9.7 0 < 1.0 7 9 7 9.9.3.9.3.1.0 5 3 9 7 7 7 3 < 9 7 7 , ",
"7 9 0 0 3 7 3 7 7 9 q 0 1.7 9 0 7 7 3.1.6.6.0 r.6.6.6.9.5.g D.f u 6.0 q ^ 7 0 9 0 3.3 0 9 0 ^ ^ 3.6.1.7 6.< 9 0 < 7 7 7 7 3 3 ; ",
"7 9 > 9 7 0 < ; 3.9 < < 0 7 3 ^ 0 0 9.1.6.^ t.9.t.9.6.6.t.W.`.R.M.2 3.7 5 7 < 5 3.< 7 0 0 0 5 7 0 9 9 7 5 3.3.0 ^ 1.3 7 7 ^ 7 7 ",
"1.0 3 0 9 { 0 0 3 9 ^ 9 1.6.^ 9 0 1.3.^ ^ 3.h.t.v.r.6.^ B B.'.F.Z.1 3.^ ^ 9.7 < ^ 9 3.9 0 ^ 1.0 9 0 ^ 9 9 9 0 1.0 1.{ 6.6.0 , ; ",
"9 0 7 9 1.6.0 9.9 9 7 9 1.5.6.3.{ 0 1.9 < 3.r.u.h.3.3.0 N y Q.B.g u 2 7 ^ < < 0 r.t.0 1.3.^ 3.{ 1.3.1.0 ^ 9 0 0 < ^ 3.z.r.0 3   ",
"9 7 0 3 9.t.9.^ 3 7 7 ^ 1.9.3.5.7 , 7 3 ^ 6.h.t.q.1.9.6.n N H s N m b 5 7 7 0 9 t.b.9.6.0 0 ^ ^ ^ 9 { ^ 7 9 7 0 3 ^ 1.1.7 9 ^ 7 ",
"+ > 3 9 9 6.6.3.0 0 0 3 ^ { 9.1.> 3 < 0 9 9.x.9.3.1.0 q 5 ^ D s S ^ 1 ^ , ^ 9 0 q x.t.0 ^ 9 q { 0 9 ^ ^ ^ 3 0 9 9 q 7 3 > , 0 7 ",
"> 3 3 0 ^ ^ 3 3 { 9 9 0 0 3.6.3.0 ^ 9 ^ 9.1.< ^ 0 9 ^ 0 3.0 u y 1 7 > ^ 9 0 7 1.1.6.^ 0 7 9 1.^ 1.0 1.9.9 3 , 7 5.^ < 7 ^ < > ; ",
"> ; 5 0 7 7 3 < 7 3 ^ 7 q 3.1.1.0 1.1.1.5.7 ; 3 q ^ 0 7 9.9.2 2 { < > 0 { 3 7 q 0 0 9 9 9 ^ 9 9 0 1.5 7 3 , < 9 7 9 0 7 >   ; 3 ",
"> ; 3 < 7 3 7 3 > , 9 3 9 9 ^ ^ 0 ^ 7 0 { 7 ; > 7 ^ 3 0 0 7 < 7 3.  3 9 9 , , 3 7 , 6.0 7 9.^ 0 ^ ^ 9 7 > 7 , > ; , 9 < , ; > > "
};
