/* XPM */
static char *_fc44282120e49b190ab80a477477c5b[] = {
/* columns rows colors chars-per-pixel */
"64 64 221 2 ",
"   c #1C1C1D",
".  c #1E1E20",
"X  c #232325",
"o  c #262629",
"O  c #28272A",
"+  c #2A2A2D",
"@  c #2E2D31",
"#  c #302F33",
"$  c #323235",
"%  c #363539",
"&  c #38373B",
"*  c #3A393E",
"=  c #3E3D41",
"-  c #403F44",
";  c #424146",
":  c #46454A",
">  c #48474C",
",  c #47484C",
"<  c #4A494E",
"1  c #4D4C52",
"2  c #504F54",
"3  c #4D5154",
"4  c #4D585D",
"5  c #525156",
"6  c #55545A",
"7  c #595658",
"8  c #55595E",
"9  c #5A595D",
"0  c #6D665F",
"q  c #555D61",
"w  c #5C5C62",
"e  c #5C6367",
"r  c #5C7277",
"t  c #626165",
"y  c #636469",
"u  c #68686A",
"i  c #776F67",
"p  c #7D7269",
"a  c #696C72",
"s  c #697478",
"d  c #767876",
"f  c #84766B",
"g  c #867D75",
"h  c #76867E",
"j  c #94836A",
"k  c #99856B",
"l  c #89827A",
"z  c #9E8972",
"x  c #958879",
"c  c #998A7E",
"v  c #98927D",
"b  c #A18F7E",
"n  c #A69176",
"m  c #A2917E",
"M  c #A9947A",
"N  c #B0997E",
"B  c #6D7E82",
"V  c #707F82",
"C  c #6C8886",
"Z  c #768787",
"A  c #7A928D",
"S  c #7B8D91",
"D  c #6A9190",
"F  c #7A9692",
"G  c #779A98",
"H  c #7BA19E",
"J  c #789EA0",
"K  c #7CB2B5",
"L  c #858B88",
"P  c #83948B",
"I  c #88968B",
"U  c #979586",
"Y  c #8A9B95",
"T  c #979C94",
"R  c #A59482",
"E  c #A59B85",
"W  c #AA9B87",
"Q  c #A49C8C",
"!  c #AB9D8A",
"~  c #B09E88",
"^  c #88A29C",
"/  c #9DA596",
"(  c #9AA59A",
")  c #A5A18B",
"_  c #B5A58C",
"`  c #B8A48A",
"'  c #BCA88E",
"]  c #A3A495",
"[  c #A5A798",
"{  c #B4AA96",
"}  c #B3B19E",
"|  c #87AAA7",
" . c #93ADA7",
".. c #97B3AD",
"X. c #80AFB0",
"o. c #83B5B6",
"O. c #8BB5B5",
"+. c #84B6BA",
"@. c #85B9BC",
"#. c #8ABBBD",
"$. c #9BBAB6",
"%. c #91BDBD",
"&. c #AAB8AA",
"*. c #C7B090",
"=. c #C7B396",
"-. c #D3B897",
";. c #D3B698",
":. c #D8BB9D",
">. c #C9BEA6",
",. c #8EC0BD",
"<. c #AFC1B7",
"1. c #ACC5BB",
"2. c #B6C6BB",
"3. c #DCC09F",
"4. c #CBC3AA",
"5. c #DAC8AA",
"6. c #C6CAB6",
"7. c #DDCDB2",
"8. c #D7CDBA",
"9. c #DBD2B5",
"0. c #D5D1BA",
"q. c #DBD2BD",
"w. c #E1C4A6",
"e. c #E2C5A8",
"r. c #E5CBA9",
"t. c #F0D4AF",
"y. c #E4CFB4",
"u. c #E4D0B4",
"i. c #EBD9B8",
"p. c #F2D7B4",
"a. c #F3D9B5",
"s. c #F5DBBC",
"d. c #FADCBD",
"f. c #85BCC0",
"g. c #8CBEC2",
"h. c #92BFC3",
"j. c #8EC1C6",
"k. c #8DC6CB",
"l. c #93C2C4",
"z. c #9BC4C4",
"x. c #9DC9C5",
"c. c #95C5C9",
"v. c #99C5CA",
"b. c #96C8CC",
"n. c #9AC9CD",
"m. c #8FCAD0",
"M. c #95CED3",
"N. c #9ACFD4",
"B. c #99D1D6",
"V. c #9CD4D9",
"C. c #A7CAC6",
"Z. c #B6CCC2",
"A. c #A8D2CE",
"S. c #BED2C6",
"D. c #B7D2CC",
"F. c #BDD3CB",
"G. c #ABD6D4",
"H. c #B7D9D5",
"J. c #B4DEDC",
"K. c #B4E1DE",
"L. c #BDE2DC",
"P. c #97DFE8",
"I. c #B2DFE0",
"U. c #9BE5EC",
"Y. c #9BE7EC",
"T. c #9EE6F0",
"R. c #9FE9F1",
"E. c #A2E6EB",
"W. c #AAE5E8",
"Q. c #A2E9EE",
"!. c #ABE9EC",
"~. c #B9E7E6",
"^. c #BFF1EF",
"/. c #A2E7F0",
"(. c #A5EBF2",
"). c #ABEDF4",
"_. c #ADEEF8",
"`. c #B2EEF4",
"'. c #B2EFF8",
"]. c #ADF1F6",
"[. c #ADF2F9",
"{. c #B4F2F6",
"}. c #BBF4F5",
"|. c #B4F4FB",
" X c #BAF6FC",
".X c #B6F8FD",
"XX c #BBF9FC",
"oX c #CAD4C5",
"OX c #C6D5C8",
"+X c #CBD7CB",
"@X c #CAD9CC",
"#X c #D1D7C5",
"$X c #D8D6C2",
"%X c #D5D9C5",
"&X c #D8D9C6",
"*X c #D4DBC9",
"=X c #C4DCD3",
"-X c #CBDED3",
";X c #E3DEC4",
":X c #EADFC4",
">X c #E6DFC8",
",X c #D5E2CE",
"<X c #DDE2CA",
"1X c #CEE1D5",
"2X c #C2E3DD",
"3X c #D5E1D1",
"4X c #DEE6D1",
"5X c #E5E1C6",
"6X c #ECE2C5",
"7X c #E5E3CB",
"8X c #EAE2CA",
"9X c #F1E2C4",
"0X c #F0E4C9",
"qX c #E2E6D1",
"wX c #C3E3E1",
"eX c #C6F5EF",
"rX c #C3F5F4",
"tX c #C9F7F3",
"yX c #C2F8F7",
"uX c #C3FBFC",
"iX c #C9FAFA",
/* pixels */
"X o + X X @ X @ O o + % O O o @ $ = @ & O $ $ O @ . @ X X $ & $ @ & - % % $ ; = - < ; & & + $ % $ & $ @ o $ # O + O O + + + X X ",
"X o + o X X O o @ $ @ # o @ @ O O $ + % $ @ O $ $ X & $ O & ; $ # = & < + $ & & = = * % % o + @ @ + + @ O @ @ @ = % @ + o X X + ",
"$ O o X o O & $ + @ @ @ O + + O X + $ + % % $ : = @ $ = $ & 8 % & @ = ; % % ; & & * < = $ X @ + X . X $ o $ # $ & $ $ @ + X X   ",
"X X X X @ & : ; o X X @ + X o $ % ; & $ ; p c x c x x c c c Q Q Q U Q { { ) { } 4.8.>.5 O % = % X X X @ o & @ + @ ; & o O + O   ",
".   X X $ ; & + X o o & @ X O $ @ @ @ & ; C G G H | | | H G z.n.n.G.I.J.J.A.x.G.~.~.C.6 $ + & $ $ @ @ & % $ ; o $ ; < 6 o & @ X ",
"+ X   $ ; & @   X X @ $ + $ + % O + X & = G @.@.j.c.j.@.K f.!.[.[.XXXX.X).T.].|.|.|.B.8 ; * $ & $ + + $ % % $ # $ * < 9 1 ; & @ ",
"O + @ ; $ @ O + X X O < O % & % + & $ % ; J #.c.b.b.l.@.j.k.!.|.XXuXuXXX|.|.XX X|.(.k.3 & = & & = + # @ % $ & $ @ = = 6 : $ = $ ",
"o X = $ @ + + X . O + % $ % & O % - % & , G g.c.c.l.+.j.c.c.W.{.uXuX X`. XuXuXyX`.(.k.3 @ ; * % X O $ & = % = % & & : : & % @ + ",
"$ + + X X + @ $ X + $ % , % @ $ $ * u 7 t U ! ! ! ! ! =.=.=.7.y.u.u.u.y.u.u.u.y.y.y.5.Q l g 7 = % % & = = % % % % % # & + + $ $ ",
"$ @ o X @ + # + $ * % $ $ % @ $ $ 3 P Y Y Y Y ( ( ( ( Z.Z.Z.Z.Z.OX@X@X@X@XOXZ.2.S.@X@X@X@XOXs = % $ * = = $ % % @ $ @ = # + o o ",
"$ @ + + % $ % % # = 1 & & ; = $ & 4 K o.o.K @.g.g.g.g.Q.(.Q.E.).}.{.{.{.).Y.P.E.).{.{.{.{.!.s % & @ % & & $ % ; % - : = $ $ @ $ ",
"; - & > = & $ & & ; $ $ $ & % : - 4 o.#.g.c.b.n.n.b.k.].|.|.XXuXuXuXuXXX).(.]. X X X|.|.).Y.e @ : % = : = = = $ * : & % ; % $ @ ",
"& = * : % ; ; - @ @ @ + & ; ; $ & q X.#.l.c.z.z.l.#.#.!.{. XuXuXuXuX}.`. XuXuXuXXX X{.(.E.Y.r & = = & - : = - : : > ; ; : ; $ & ",
"& & % = = = 1 : $ + % $ ; : = & & 7 T / ( / [ [ ( / / oX+X*X*X*X*X*XoX#X*X*X*X*X*X*XoXoXoX6.a & & = % % ; ; - : = > < = ; ; $ % ",
"$ % % - & ; ; ; = : : = % = = < i c ` ` ` ` ` ` ' *.:.p.p.p.p.p.p.p.p.p.p.p.a.a.p.p.p.p.p.p.=.U 5 : = = = = - ; ; < = % & % % @ ",
"& % & - : = % % > ; = > = = & 2 j M ' ' ' ' ' ' *.=.w.a.d.d.s.d.d.d.d.d.d.d.d.d.d.d.d.d.d.d.d.s.d : & - ; = 1 : = ; ; $ $ $ $ @ ",
"+ % : % * % % % $ % - = = = = < F G ^ ^ ^ |  ...$.C.C.G.G.G.G.L.2X2X2X2X2XH.H.A.G.H.wXwXwXwXwX2Xd < ; ; 1 = & : = * % % $ $ % # ",
"% = & % = & & % & % = = - ; ; 4 o.@.@.+.@.j.c.l.B.(.[.].).].|.XXXXXXXX|.).Y.Y.(.|.|.|.|.|.|.|.).B 5 : ; ; - = ; % = = & % = & % ",
"% & & & ; ; = = % = = + = & 1 8 @.#.#.l.b.n.b.b.V.).|.|.XXuXuXuXuXuXXX|.{.{. XXXXX X X X|.)./.Y.B 5 < > = % @ ; & % % & $ : - & ",
"+ % = = > = % ; ; < ; - 1 < 1 y O.O.%.z.z.z.z.z.n.!.`.}.yXuXuXuXuX}.{.{. XuXuXuXuXuXuX}.).!.E.E.B = < : + & & % % - % * % & & $ ",
"% & & % - - & : ; - ; : 2 < < 9 v v Q ] } { { { } >.4.8.;X>X>X5X5X;X;X5X5X5X5X>X5X5X6X;X;X5X;X;Xd < ; % $ = % = : % $ % & ; $ O ",
"& = % & : : ; : ; & < < > ; : 9 F F G G H |  ...$.x.x.C.A.A.A.J.L.wX~.~.~.L.G.A.A.H.2XwXwXwX2XL.d : * & & & & % > = & - 1 < $ $ ",
"- : ; = 6 w = 6 = : % = 6 1 = e +.@.@.@.f.g.c.c.N.(.].[.].).|.XXXX X|.{.).Y.Y.R.|.|. X X X X|.`.Z & - % = = - : % ; < w 6 % & & ",
"; = - - 9 9 5 9 ; & & 1 = < 5 8 +.f.g.j.b.n.n.n.V.).|.|.|.uXuXuXuXuXuX|.].).|.XXXXXX X X|.[./.Y.B 1 < & & & : % $ ; < 9 ; ; & : ",
"% $ = ; & 5 5 ; = % = ; 5 < 5 u X.O.%.%.z.z.z.z.x.W.~.^.eXtXtXtXrX^.`.^.rXtXtXtXtXtXrX^.`.!.W.W.^ : : : & & = ; & : < = = : = = ",
"@ @ $ = < : ; $ ; = = 1 1 1 1 y x v E E E _ { { =.>.4.7.7.7.i.6X6X:X:X:X6X6X6X6X6X6X6X6X6X6X6X:XL 5 > - < : & = < 6 1 = = = & ; ",
"; = = $ < & : $ = ; * ; 1 ; 1 e C D D D D G | | O.%.,.l.l.h.z.G.K.J.K.K.K.K.A.x.x.G.K.K.K.K.K.K.Z 6 1 : 1 : : < ; - > ; % & & % ",
"% % : : ; = 1 = ; > < = - 1 1 a o.#.@.+.@.j.l.j.M.).|.).).).|. X X XXX|.{.Q.Y.Q.].|.|..X X X|.|.S : < 1 ; < : 1 1 - - & ; ; = & ",
"$ & : : : ; ; = : : : > > 1 : a +.#.#.l.b.n.n.n.V.).|.|. XuXiXuXuXuXXX|.).].{. XXXXXXXXX{._.(.Y.C 1 < : - < > > ; & & & ; % & = ",
"& ; : ; ; : : : % : - 5 = 6 < y o.@.g.c.b.c.c.c.M.(.). XuXuXuXuX X|.].{.XXXXuXuXXXXXXX|.)./.Y.Y.S < 1 > < ; > < 1 ; & & O $ % ; ",
"; : < : : : : & 5 1 < < - : < 7 x v E E E E E _ =.-.4.7.7.7.7.9.i.6X6X9X9X9X9X9X9X9X9X9X6X:X8X6XT 9 > ; 6 2 < < : ; - $ ; - = : ",
"; 1 = & > : ; 1 : 5 > 1 = < : 3 P P I I P P ^ ( &.<.<.Z.Z.1.1.S.-X1X1X1X1X-XOXS.F.@X1X3X1X1X1X1XI 6 5 : < 1 : ; & ; > ; - ; & = ",
"; ; - % ; < : 1 : < < 1 ; ; ; q +.@.+.+.@.g.j.j.M.(.).).(.).{. X X X X|.).T.Y./.).|.|.|.|.|.|.).S 6 6 1 1 9 5 < % - ; : & ; = & ",
"& : < & : ; ; ; & = : 1 9 1 : e #.g.#.g.b.n.n.n.V._.|.|.|.uXuXuXuXuXuX|.[.]. XXX X X X X|.).R.Y.Z > 8 : w w 5 2 > < 1 ; - - & & ",
"; = ; : ; = = & ; ; > 1 1 < 5 w O.#.%.z.v.v.v.v.N.`.`.}.uXuXuXuXuX}.{.{.yXuXiXiXiXiXiX}.`.Q.Q.E.S 1 5 1 5 w 8 < < < : : = = $ = ",
"; ; ; : 1 : ; : < : 1 5 < 1 2 7 U U ) ] ] ] ] ] [ 4.4.q.$X$X$X$Xq.0.&X7X7X7X7X7X7X7X7X<X<X<X<X<XI < : > 1 y w < + 6 < ; & : & = ",
"= : > : < > 1 1 < 1 2 5 6 8 6 w A A F F F G | | ..C.z.z.x.x.C.H.H.H.J.2X2XL.G.A.A.H.2X2X2X2X2X2XL 1 : < 5 ; 1 5 ; 1 > = < ; : & ",
"> > 5 > = 1 2 ; ; 5 1 ; 5 8 < 8 +.#.@.+.+.g.l.h.M.).[.].).).|. X X X|.|.).T.Y.T.[.{. X X X X X{.s 1 < : < % : 5 2 1 ; : ; % & % ",
"> > 1 2 2 1 6 : : 1 < > : 5 - 6 @.#.#.#.c.n.n.n.V._.|.|. XuXuXuXuXuXXX|.).(.{.XXXXXXXX X|.|.(.Y.S < 1 5 5 < 1 1 8 5 : = : % % % ",
"> 1 < < 5 6 y w 1 1 > 5 : < 1 8 o.O.%.l.z.z.z.z.n.!.`.}.yXyXyXyXyX}.`.{.}.uXuXuXuXuX}.}.`.W.E.E.Z 1 1 5 : 2 1 : 1 < < ; < ; % & ",
"1 ; > 1 8 t t 5 8 w 5 1 > 1 6 7 v v Q Q Q Q Q Q { 4.4.8.9.9.9.9.9.9.0.q.>X8X8X8X8X0X6X6X6X6X5X5Xg < 1 : : < 1 ; ; 2 2 9 < ; & & ",
"; $ 5 : t 8 9 : 6 8 y 9 a 5 : w h h Z Z Z A Y ^  ...$.$.$.$.$.Z.D.D.D.D.H.=XD.C.Z.D.=X=X=X=X=X=XZ 5 1 : ; : = < ; 6 6 y w 6 < % ",
"$ $ t u 9 1 < < : 1 2 6 w w t a +.@.+.+.+.g.j.j.M.).].).(.(.|. X X X X X|.Q.Y.Y.]..X|. X X X|.'.Z : < ; > > < ; ; : = ; 7 = % % ",
"$ & 5 9 > ; 1 1 < 5 < : 1 5 1 a @.#.#.g.c.n.n.b.V.).[.|.|.uXuXuXuXuXuX|.).(.].|.XXXX X X|.|.(.T.B < - < < 1 ; - % < < : % & % $ ",
"& & : ; ; = < 6 : 1 2 ; : : ; y +.f.j.c.c.v.v.c.B.(._. XuXuXuXuXuX|.].]. XuXuXuXuXuXuX|.(.(.R.Y.B 2 = : % - % = : = % = + $ $ % ",
"= = & - < - < : & : ; > < : 1 t U U Q ) ) ) ) ) { 4.4.q.q.q.q.q.q.8.8.q.q.q.5X7X7X7X5X>X5X5X5X;Xd & ; - 6 = = ; = & & $ % % $ & ",
"; = % : ; : < : < 1 ; & : - ; e L L I I I I T / [ &.<.2.2.2.2.oXoXOXoXoXoXOXoXoXoX*X3X3X3X3X3X,Xu = < : = ; : ; = ; & $ $ & % X ",
"= ; % = ; ; < 1 8 1 < ; < - : u K K K K K +.g.g.m.Y././.T./.).{.{.{.|.|.).T.P.Y./._.|.|.|.|.|.).a & $ $ % & ; & + - = % @ $ @ X ",
"% & & % = = & w 1 < < ; 2 1 > a @.#.#.g.c.n.n.n.V.].[.[..XuXuXuXuXuXuX|.).).{. X X X|. X X|.(.Y.s * % ; & & : ; & $ $ * $ + o o ",
"$ @ = 1 ; ; > = - > ; > > : < q o.#.g.z.v.v.v.v.B.(.{.}.uXuXuXuXuXyX{.{. XiXiXuXuXuXuX X)./.E.E.s 1 < & * & = : % @ + O $ % $ $ ",
"% $ % - ; = - ; & = > 1 1 < 5 6 I T ] ] ] ] ( / } 6.6.#X*X*X*X*X#XoXoX#X*X&X&X&X<X4X4X,X,X,X,X,Xh : : = $ - & & % % % * $ % O O ",
"= & % % % % $ % & & : 2 < 2 6 e Z A P P A P ^ ^  .$.$.1.1.1.1.F.F.OXF.F.F.F.1.1.Z.OX-X1X1X1X1X-XL < ; * $ $ O % & + @ O # % $ O ",
"1 = % % 1 % & $ ; ; & $ : ; 1 6 @.@.@.o.o.#.g.g.M.(.).).(.(.{. X X X X{.[.Y.Y.Y.].{.|.|.|.|.|.{.V & 1 ; ; - $ % $ O + O & & $ X ",
"& - = 1 & % - ; & = & $ : % % 3 #.#.#.g.c.n.n.n.V.).|.|.|.XXuXuXuXuXuX|.).(.].|. X X X X|.|.).Y.Z + $ & % * & = $ & + + & # % O ",
"# % & ; ; & * @ $ $ $ & $ $ : 8 +.#.g.c.c.c.c.c.M.(.].|.XXuXuXuXuX}.{.{.}.XXuXuXuXXX X X].Q.Y.Y.Z : ; & # @ % $ $ $ @ + % $ $ O ",
"$ % & & @ $ @ $ $ % * & ; $ % : U U ] ] ] ] ] ] } 6.6.%X&X&X&X&X&X#XoX*X&X&X&X&X&X&X7XqX4X4X<X<Xd < ; $ < + % & + $ $ $ $ @ @ X ",
"$ % o % $ & + X : % + + & $ @ < j k n M M M M M ~ *.-.5.w.e.e.e.w.e.e.e.e.e.e.e.e.e.t.d.d.d.d.s.t % % $ # : : & = ; @ $ $ = $ $ ",
"; & @ & % - & & @ % = % ; < = - j k n M M M M M ~ *.-.5.w.w.w.w.w.w.w.w.w.w.w.w.w.w.e.a.d.d.d.s.7 & = % % % & ; & ; - < < & O X ",
"% & $ % ; < & 1 % % $ % ; > < 2 j k z z z z z z N *.-.:.:.:.:.:.:.:.:.:.:.:.:.:.:.:.:.r.a.a.a.p.9 : ; & = % & & + = : y 5 & @   ",
"% $ & @ 1 6 1 = @ $ $ = ; 1 : 5 j k k k k k k k M *.-.;.;.;.;.;.;.;.;.;.;.;.;.;.;.;.;.3.t.p.a.t.7 % - = $ % $ & @ = ; ; $ % = $ ",
". o @ % % < < : & & & @ = - 1 < 0 i i f f f g f g m R m R m m m W R m R b R b R R _ ! ! { _ { _ < % = = = @ & % % * $ @ o O & $ ",
"o @ @ & = = @ @ - % % & & : < : & = % = 1 ; + = * % - & > & + + $ $ o - % & $ ; ; < = & $ % ; = ; & ; 1 % @ O $ , = + $ = + o X ",
"o X # & $ $ @ + $ @ = $ * : ; ; & ; ; ; > $ X @ * = & $ 1 1 + @ - + o * - @ $ & & & % % % = % % & ; # $ @ O + % $ % & $ o   X @ ",
"o X @ + $ @ $ @ o O % @ % % = = & = $ & - $ X o $ * @ & & $ + $ :   @ % % O O @ $ O < & $ 1 = & = = % $ o $ O o X O % + O X o o "
};
